<?xml version="1.0" encoding="utf-8"?>
<!-- Generator: Adobe Illustrator 21.0.0, SVG Export Plug-In . SVG Version: 6.00 Build 0)  -->
<svg version="1.1" id="Layer_1" xmlns="http://www.w3.org/2000/svg" xmlns:xlink="http://www.w3.org/1999/xlink" x="0px" y="0px"
	 width="42px" height="42px" viewBox="0 0 42 42" style="enable-background:new 0 0 42 42;" xml:space="preserve">
<style type="text/css">
	.st0{fill:#A8A8AA;}
</style>
<path class="st0" d="M3,21c0-9.9,8.1-18,18-18s18,8.1,18,18s-8.1,18-18,18S3,30.9,3,21 M0,21c0,11.6,9.4,21,21,21s21-9.4,21-21
	S32.6,0,21,0S0,9.4,0,21L0,21z"/>
<g>
	<polygon class="st0" points="19.4,7.7 17.1,10.1 26.4,19.4 10.7,19.4 10.7,22.7 26.3,22.7 17.1,32 19.4,34.4 32.7,21 32.7,21 
		32.7,21 	"/>
</g>
</svg>
