<?xml version="1.0" encoding="utf-8"?>
<!-- Generator: Adobe Illustrator 21.0.0, SVG Export Plug-In . SVG Version: 6.00 Build 0)  -->
<svg version="1.1" id="Layer_1" xmlns="http://www.w3.org/2000/svg" xmlns:xlink="http://www.w3.org/1999/xlink" x="0px" y="0px"
	 width="30px" height="30px" viewBox="0 0 30 30" style="enable-background:new 0 0 30 30;" xml:space="preserve">
<style type="text/css">
	.st0{fill:#FFFFFF;}
</style>
<path class="st0" d="M2.1,15C2.1,7.9,7.9,2.1,15,2.1S27.9,7.9,27.9,15S22.1,27.9,15,27.9S2.1,22.1,2.1,15 M0,15c0,8.3,6.7,15,15,15
	s15-6.7,15-15S23.3,0,15,0S0,6.7,0,15L0,15z"/>
<g>
	<polygon class="st0" points="13.9,5.5 12.2,7.2 18.9,13.9 7.6,13.9 7.6,16.2 18.8,16.2 12.2,22.9 13.9,24.5 23.4,15 23.4,15 
		23.4,15 	"/>
</g>
</svg>
