<?xml version="1.0" encoding="utf-8"?>
<!-- Generator: Adobe Illustrator 21.0.0, SVG Export Plug-In . SVG Version: 6.00 Build 0)  -->
<svg version="1.1" id="Layer_1" xmlns="http://www.w3.org/2000/svg" xmlns:xlink="http://www.w3.org/1999/xlink" x="0px" y="0px"
	 width="42px" height="42px" viewBox="0 0 42 42" style="enable-background:new 0 0 42 42;" xml:space="preserve">
<style type="text/css">
	.st0{fill:#dc6016;}
</style>
<path class="st0" d="M21,3c9.9,0,18,8.1,18,18s-8.1,18-18,18S3,30.9,3,21S11.1,3,21,3 M21,0C9.4,0,0,9.4,0,21s9.4,21,21,21
	s21-9.4,21-21S32.6,0,21,0L21,0z"/>
<g>
	<polygon class="st0" points="34.3,19.4 31.9,17.1 22.6,26.4 22.6,10.7 19.3,10.7 19.3,26.3 10,17.1 7.6,19.4 21,32.7 21,32.7 
		21,32.7 	"/>
</g>
</svg>
