<svg id="Layer_1" data-name="Layer 1" xmlns="http://www.w3.org/2000/svg" viewBox="0 0 146 138" width="73px" height="68px" preserveAspectRatio="xMinyMin meet">
	<defs>
		<style>.cls-1{fill:#f7d409;}.cls-2{fill:#034f9c;}.cls-3{fill:#fff;}</style>
	</defs>
	<title>CalMHSA logo</title>

	<polygon class="cls-1" points="22.21 29.46 22.91 32.26 24.08 32.96 30.27 39.73 30.73 42.88 30.38 43.7 30.5 47.32 30.97 49.07 31.62 51.03 85.23 51.03 85.23 0.76 24.9 0.76 24.2 2.74 24.43 5.54 26.18 7.76 26.77 10.79 25.37 13.83 26.07 17.68 24.55 20.01 24.67 20.94 21.98 26.08 22.21 29.46"/><polygon class="cls-1" points="167.97 130.06 167.51 128.07 166.69 126.32 164.82 123.99 164 122.36 131.07 93.42 57.08 93.42 58.39 100.65 59.91 101.12 63.99 106.6 64.34 107.42 67.96 111.39 72.16 115.82 72.28 117.81 74.03 119.79 75.9 120.26 76.25 123.87 76.6 129.82 78.58 132.16 84.88 132.04 86.75 132.74 91.53 132.86 92 133.33 92.82 133.09 97.95 138.11 101.1 139.39 106.47 139.51 108.11 141.38 108.22 144.06 109.27 144.76 113.36 144.76 116.51 146.98 118.49 149.08 122.23 152.93 124.33 156.2 124.33 159 166.69 159 166.22 155.62 163.31 154.68 163.31 150.72 164.59 148.85 166.11 146.4 166.11 140.91 170.19 136.36 170.19 132.04 169.49 131.34 167.97 130.06"/><rect class="cls-2" x="0.84" y="53.56" width="167.71" height="37.21"/><path class="cls-3" d="M28.71,74.47C28.55,80.12,25.47,83,19.57,83c-6.69,0-10.9-4.31-10.9-10.87a10.51,10.51,0,0,1,3.12-7.94,10,10,0,0,1,7.54-2.9,9.58,9.58,0,0,1,6,2l.61-1.62h2.81V70h-3c-.24-3.63-2.2-5.71-5.16-5.71-3.24,0-5.22,2.78-5.22,7.82S17.25,80,20.58,80c2.81,0,4.67-2,4.89-5.5Z"/><path class="cls-3" d="M35.67,83c-2.84,0-4.61-1.65-4.61-4.12,0-2.87,1.86-3.57,5.22-4.31,2.72-.58,4.09-.92,4.09-2.78,0-1.34-1.13-2.32-3.09-2.32A3.77,3.77,0,0,0,35,70a1.75,1.75,0,0,1,1.8,1.71,2.15,2.15,0,0,1-2.41,2,2.35,2.35,0,0,1-2.63-2.32c0-2.41,2.44-3.94,6.93-3.94a9.33,9.33,0,0,1,5,1.1c1.5,1,1.56,2.11,1.56,3.82v6c0,.95.24,1.37.79,1.37s.76-.43.76-1.37V77.1h1.83V78.5c0,3-1.25,4.46-4.22,4.46-1.92,0-3.18-.76-3.7-2.23A6.24,6.24,0,0,1,35.67,83Zm.64-4.7a1.65,1.65,0,0,0,1.83,1.62c1.31,0,2.14-.86,2.14-2.44V75.3C37.81,76.61,36.31,76.92,36.31,78.26Z"/><path class="cls-3" d="M56.84,78.5c0,1.16.12,1.44,1.37,1.44H59v2.47H49.42V79.94h.82c1.22,0,1.44-.27,1.44-1.44V66.2c0-1.56-.15-1.8-1.37-1.8h-.89V61.92h7.42Z"/><path class="cls-3" d="M69,79.73h.58v2.69H60.78V79.73h1c1.68,0,1.89-.28,1.89-1.77V66.38c0-1.5-.21-1.77-1.89-1.77h-1V61.92H71.53l3.57,12.61,3.76-12.61H89.52v2.69h-1c-1.68,0-1.89.27-1.89,1.77V78c0,1.5.21,1.77,1.89,1.77h1v2.69H78.77V79.73h.61c1.68,0,1.86-.28,1.86-1.77V65.16l-5.1,17.26H72L67.07,65.13V78C67.07,79.45,67.29,79.73,69,79.73Z"/><path class="cls-3" d="M91.91,79.73H93c1.68,0,1.86-.28,1.86-1.77V66.38c0-1.5-.18-1.77-1.86-1.77H91.91V61.92h11.21v2.69h-.58c-1.68,0-1.89.27-1.89,1.77v4h6.63v-4c0-1.5-.21-1.77-1.89-1.77h-.58V61.92H116v2.69h-1.13c-1.68,0-1.89.27-1.89,1.77V78c0,1.5.21,1.77,1.89,1.77H116v2.69H104.8V79.73h.58c1.68,0,1.89-.28,1.89-1.77v-4.8h-6.63V78c0,1.5.21,1.77,1.89,1.77h.58v2.69H91.91Z"/><path class="cls-3" d="M119.09,82.69V74.63h2.75A6.12,6.12,0,0,0,128.19,80c2.35,0,3.7-1,3.7-2.44,0-2-1.8-2.17-4.58-2.84s-5-1.19-6.48-2.38a5.4,5.4,0,0,1-2.08-4.4c0-4.09,3-6.54,8.34-6.54a9.85,9.85,0,0,1,6.17,1.71l.61-1.44h2.54v7.48H133.6c-.37-3.05-2.66-4.86-6-4.86-2.14,0-3.33,1-3.33,2.38,0,2,2.26,1.92,6.48,3,4.58,1.13,6.78,3.15,6.78,6.69,0,4-3.18,6.66-8.49,6.66a12,12,0,0,1-6.6-1.83l-.82,1.5Z"/><path class="cls-3" d="M137.85,79.73h.73c1.65,0,1.89-.55,2.38-2l5.25-15.82h6.11l5,15.91c.46,1.4.82,1.89,2.11,1.89h1v2.69h-11.3V79.73h.85c1.34,0,1.86-.12,1.86-.73a3.19,3.19,0,0,0-.15-.64L151,75.82h-5.9l-.76,2.35a2.77,2.77,0,0,0-.15.82c0,.64.46.73,1.65.73h1v2.69h-9Zm10.23-13L146,73.16h4.15Z"/></svg>