<svg id="Layer_1" data-name="Layer 1" xmlns="http://www.w3.org/2000/svg" width="39.17" height="37.33" viewBox="0 0 39.17 37.33"><defs><style>.cls-1{fill:#f7d409;}.cls-2{fill:#fff;}.cls-3{fill:#034f9c;}</style></defs><title>Funding Bugs for SVG</title><polygon class="cls-1" points="5.03 7.1 5.19 7.74 5.46 7.9 6.88 9.46 6.99 10.18 6.91 10.37 6.94 11.2 7.04 11.61 7.2 12.06 19.52 12.06 19.52 0.5 5.65 0.5 5.49 0.96 5.54 1.6 5.95 2.11 6.08 2.81 5.76 3.5 5.92 4.39 5.57 4.93 5.6 5.14 4.98 6.32 5.03 7.1"/><polygon class="cls-1" points="38.54 30.22 38.43 29.77 38.24 29.36 37.81 28.83 37.63 28.45 30.05 21.8 13.05 21.8 13.35 23.46 13.7 23.57 14.64 24.83 14.72 25.02 15.55 25.93 16.51 26.95 16.54 27.41 16.94 27.86 17.37 27.97 17.45 28.8 17.53 30.17 17.99 30.7 19.44 30.68 19.87 30.84 20.97 30.87 21.07 30.97 21.26 30.92 22.44 32.07 23.17 32.37 24.4 32.4 24.78 32.82 24.8 33.44 25.05 33.6 25.98 33.6 26.71 34.11 27.16 34.59 28.02 35.48 28.5 36.23 28.5 36.88 38.24 36.88 38.13 36.1 37.47 35.88 37.47 34.97 37.76 34.54 38.11 33.98 38.11 32.72 39.05 31.67 39.05 30.68 38.89 30.52 38.54 30.22"/><rect class="cls-2" x="0.37" y="12.89" width="38.05" height="8.05"/><rect class="cls-3" x="0.12" y="12.64" width="38.55" height="8.55"/><path class="cls-2" d="M6.53,17.45a1.84,1.84,0,0,1-2.1,2,2.34,2.34,0,0,1-2.51-2.5,2.42,2.42,0,0,1,.72-1.83,2.31,2.31,0,0,1,1.73-.67,2.2,2.2,0,0,1,1.37.46l.14-.37h.65v1.92H5.84c-.06-.84-.51-1.31-1.19-1.31s-1.2.64-1.2,1.8.44,1.8,1.21,1.8,1.07-.46,1.12-1.26Z"/><path class="cls-2" d="M8.13,19.4a.94.94,0,0,1-1.06-.95c0-.66.43-.82,1.2-1s.94-.21.94-.64-.26-.53-.71-.53a.87.87,0,0,0-.53.14.4.4,0,0,1,.41.39.49.49,0,0,1-.55.46.54.54,0,0,1-.6-.53c0-.55.56-.91,1.59-.91a2.14,2.14,0,0,1,1.14.25c.34.24.36.48.36.88v1.37c0,.22.06.32.18.32s.18-.1.18-.32V18h.42v.32c0,.7-.29,1-1,1a.8.8,0,0,1-.85-.51A1.44,1.44,0,0,1,8.13,19.4Zm.15-1.08a.38.38,0,0,0,.42.37c.3,0,.49-.2.49-.56v-.49C8.62,17.94,8.27,18,8.27,18.32Z"/><path class="cls-2" d="M13,18.37c0,.27,0,.33.32.33h.19v.57H11.29V18.7h.19c.28,0,.33-.06.33-.33V15.54c0-.36,0-.41-.32-.41h-.2v-.57H13Z"/><path class="cls-2" d="M15.78,18.65h.13v.62h-2v-.62h.23c.39,0,.44-.06.44-.41V15.58c0-.34,0-.41-.44-.41H13.9v-.62h2.47l.82,2.9.86-2.9H20.5v.62h-.24c-.39,0-.44.06-.44.41v2.66c0,.34,0,.41.44.41h.24v.62H18v-.62h.14c.39,0,.43-.06.43-.41V15.3l-1.17,4h-.95l-1.14-4v2.95C15.34,18.59,15.39,18.65,15.78,18.65Z"/><path class="cls-2" d="M21.05,18.65h.26c.39,0,.43-.06.43-.41V15.58c0-.34,0-.41-.43-.41h-.26v-.62h2.58v.62H23.5c-.39,0-.44.06-.44.41v.92h1.52v-.92c0-.34,0-.41-.44-.41H24v-.62h2.58v.62h-.26c-.39,0-.44.06-.44.41v2.66c0,.34,0,.41.44.41h.26v.62H24v-.62h.13c.39,0,.44-.06.44-.41v-1.1H23.06v1.1c0,.34,0,.41.44.41h.13v.62H21.05Z"/><path class="cls-2" d="M27.3,19.33V17.48h.63a1.41,1.41,0,0,0,1.46,1.24c.54,0,.85-.22.85-.56s-.41-.5-1.05-.65A3.87,3.87,0,0,1,27.7,17a1.24,1.24,0,0,1-.48-1c0-.94.69-1.5,1.92-1.5a2.26,2.26,0,0,1,1.42.39l.14-.33h.58v1.72h-.65a1.26,1.26,0,0,0-1.39-1.12c-.49,0-.77.22-.77.55s.52.44,1.49.68,1.56.72,1.56,1.54-.73,1.53-2,1.53A2.75,2.75,0,0,1,28.06,19l-.19.34Z"/><path class="cls-2" d="M31.61,18.65h.17c.38,0,.44-.13.55-.46l1.21-3.64h1.4l1.16,3.66c.11.32.19.44.48.44h.24v.62h-2.6v-.62h.2c.31,0,.43,0,.43-.17a.73.73,0,0,0,0-.15l-.18-.58H33.28l-.18.54a.64.64,0,0,0,0,.19c0,.15.11.17.38.17h.23v.62H31.61Zm2.35-3-.48,1.49h1Z"/></svg>