<?xml version="1.0" encoding="utf-8"?>
<!-- Generator: Adobe Illustrator 21.0.0, SVG Export Plug-In . SVG Version: 6.00 Build 0)  -->
<svg version="1.1" id="ÉåÉCÉÑÅ_x5B__1" xmlns="http://www.w3.org/2000/svg" xmlns:xlink="http://www.w3.org/1999/xlink"
	 x="0px" y="0px" width="180px" height="180px" viewBox="0 0 180 180" style="enable-background:new 0 0 180 180;"
	 xml:space="preserve">
<style type="text/css">
	.st0{opacity:0.5;fill:#FFFFFF;}
</style>
<path class="st0" d="M90.2,59.1c-67.1,0-89.3-7.6-89.3-7.6L4,60.4c0,0,1.2,0.3,4,0.8v11.2c0,0,13,1.5,33.8,2.6l0,0v2.2
	c0,0.4,0.4,0.4,0.9,0.4h0.4L41,103.1H17.3v14.2h22.5L35.4,172h-0.7c-0.4,0-0.9,0.4-0.9,0.4v3.1h-1.3v4.4h21.3v-4.4h-1.3v-3.1
	c0-0.4-0.4-0.4-0.9-0.4h-0.3l2.3-54.7h73.2l2,54.7h-0.3c-0.4,0-0.9,0-0.9,0.4v3.1h-0.9v4.4h20.9v-4.4h-1.3v-3.1c0,0-0.4-0.4-0.9-0.4
	h-0.7l-4.2-54.7h22.3v-14.2h-23.4l-2-25.3h0.4c0,0,0.4,0,0.4-0.4l0.4-1.8c0,0-0.4-0.4-0.8-0.4c21.2-1.2,34.5-2.7,34.5-2.7V61.2
	c2.4-0.5,3.6-0.7,3.6-0.7l3.1-8.9C179.1,51.5,157.3,59.1,90.2,59.1z M77.3,103.1H54.1l1-24.4l-11.6-0.9l11.6,0.4
	c0.4,0,0.9-0.4,0.9-0.4V76c0-0.1,0-0.2-0.1-0.2c6.6,0.3,13.8,0.5,21.4,0.6V103.1z M96,96.9H84.4V82.2H96V96.9z M126.2,103.1h-23.6
	V76.3c7.7-0.1,15.1-0.3,21.8-0.6c0,0.1-0.1,0.1-0.1,0.2v1.8c0,0,0.4,0.4,0.9,0.4l11.6-0.4l-11.6,0.9L126.2,103.1z"/>
</svg>
