<?xml version="1.0" encoding="utf-8"?>
<!-- Generator: Adobe Illustrator 21.0.0, SVG Export Plug-In . SVG Version: 6.00 Build 0)  -->
<svg version="1.1" id="Layer_1" xmlns="http://www.w3.org/2000/svg" xmlns:xlink="http://www.w3.org/1999/xlink" x="0px" y="0px"
	 width="180px" height="180px" viewBox="0 0 180 180" style="enable-background:new 0 0 180 180;" xml:space="preserve">
<style type="text/css">
	.st0{opacity:0.5;fill:#FFFFFF;}
</style>
<path class="st0" d="M151.8,100.6v-62c0,0-0.6-9.3-9.3-9.3s-9.6,8.4-9.6,8.4v47.5c0,0,0,2.5-4,2.5s-3.7-3.1-3.7-3.1V16
	c0,0,0.3-9.8-9.5-9.8s-9.8,8.9-9.8,8.9v61.6c0,0,0.3,3.7-3.4,3.7c-3.7,0-3.7-4-3.7-4v-66c0,0-0.3-10.4-9.2-10.4S79.2,9.2,79.2,9.2
	v68.1c0,0,0.9,3.1-3.1,3.1S71.8,77,71.8,77l-0.6-54c0,0,0-9.2-9.2-9.2s-9.5,8.9-9.5,8.9v80.9c0,0,0,4.6-1.8,4.6
	c-3.4,0-9.6-10.3-13.2-13.8c-3.7-3.7-10.7-13.5-18.1-6.1c-5.4,5.4-4.5,12-1.5,17.8c3.9,7.6,9.9,16.4,14.5,23.7
	C37,137,42,144.1,47.3,151c5.1,6.5,10.4,14.4,17.1,19c11.8,8.2,20.7,10,34.7,10c0,0,23.8,1.7,39.6-14.1S151.8,100.6,151.8,100.6z
	 M98,160c-4,0-33.6-24.2-33.6-40.2c0-8.6,4.6-16.9,17.8-16.9s15.8,9.2,15.8,9.2s3.2-9.2,15.5-9.2s17.8,8.3,17.8,18.1
	C131.2,137,100.7,160,98,160z"/>
</svg>
