<?xml version="1.0" encoding="utf-8"?>
<!-- Generator: Adobe Illustrator 21.0.0, SVG Export Plug-In . SVG Version: 6.00 Build 0)  -->
<svg version="1.1" id="Layer_1" xmlns="http://www.w3.org/2000/svg" xmlns:xlink="http://www.w3.org/1999/xlink" x="0px" y="0px"
	 width="180px" height="180px" viewBox="0 0 180 180" style="enable-background:new 0 0 180 180;" xml:space="preserve">
<style type="text/css">
	.st0{opacity:0.5;}
	.st1{fill:#FFFFFF;}
</style>
<g id="First_Row" class="st0">
	<g>
		<path class="st1" d="M55.9,61.1c0-6.9,5.5-11.2,7.7-11.4c-8.6-6.7-15.7,2-13.4,6.7c-9.1,0.4-9.3,10.6-6.6,12.4
			c-8.2,2.7-7,12.7-2.3,15.1c-6.1,4.5-3.2,13.7,1.8,14.9c-6.8,5.7-0.2,15.3,7,14.3c-4.3,5.7,3.9,15.1,12.7,10.8
			c-4.8,9,10,14.7,15.9,10.2c-2.5,7.1,8,13.9,15.9,8.2c-2,8,8.2,13.1,15.4,6.9c0.7,7.6,14.8,8.6,13.4,5.3
			c-1.4-3.1-6.6-12.9-9.3-22.7c-2.7-10.2-2.3-17.8-4.3-23.9C70,100,55.9,80.5,55.9,61.1z"/>
		<path class="st1" d="M91.3,179c-20.9-3.7-19.5,1.4-38.4,0c0-9.2,9.1-28.4,9.3-42.6c2.3,3.7,7.7,4.7,12,2.7
			c-1.1,7.1,9.8,12.7,16.4,8.8c-0.2,6.9,10.2,11.6,18.2,6.5c4.5,9.2,15.4,8.6,16.6,5.1c1.6,4.7,5.7,15.9,7.3,19.6
			C113.6,173.7,112.4,182.9,91.3,179z"/>
		<path class="st1" d="M76.8,79c-1.1-1.4-4.1-1.4-5.9-6.1c-1.6-3.7,0.5-8.4,3.6-7.8c4.5,1,4.8,3.7,6.8,4.5c2.3,0.8,4.5-1,8.2,0.4
			c4.5,1.6,7,6.3,15.2,10.2c-2,9.2,2.3,18,3.6,22.7c-9.3-2.2-25-7.6-31.6-13.1C77.9,86.4,78.8,81.5,76.8,79z"/>
		<path class="st1" d="M69.5,53.9c-2-0.2-3.4-1.6-4.3-1.6c-3.4,0.2-5.7,5.1-3.6,7.1c1.4,1.4,4.8,0.2,5.9,0.2
			c5.7,0.4,16.1,2.9,19.8,4.3c12,5.1,10,7.8,19.3,12.2c1.8-4.3,3.4-9.2,0.5-12.4c-2.5-2.9-9.3-5.5-14.5-7.6
			C83.6,52.7,71.8,54.1,69.5,53.9z"/>
		<path class="st1" d="M93.8,0.7c-1.4-1-3.2-0.8-3.2,0.2C90.8,4,92.4,6,91.3,6.4c-0.9,0.2-1.1-0.6-1.4-1.8C89.7,3,88.5,3,88.3,4.2
			c-0.2,1-0.9,3.7,0,4.9c0.7,1.2,0.9,3.1-0.2,4.1c-3,3.1-10.5,5.5-16.1,10c-3,2.4-4.1,4.9-4.3,6.3c-0.7,6.9-1.4,15.7-0.9,17.8
			c0,0.8,0.9,1.2,1.8,1.2c2.3,0,6.1,0.2,7.7-1c0.7-0.6,1.1-1.2,0.9-2.2c-1.6-4.5-2-13.9-1.6-14.3c2.3-2,11.8-9.8,17.7-15.3
			c1.1-1,1.4-2,1.8-2.4c1.1-2.2,1.4-3.3,1.6-4.7C96.8,4.3,94.7,1.3,93.8,0.7z"/>
		<path class="st1" d="M107.4,42.7c0-1,0.2-2.7-0.2-4.9c0.2-3.5-3.2-5.9-8-7.6c-3.4-1-8-0.4-10,1.2c-0.5-2.4-7.7-3.3-10.5,1
			c-3.2,5.1,1.4,11,4.8,9.4c0.2,2.9,0.9,5.9,2.7,8.2c2,0.6,8.2,2.7,10.7,4.1c1.4,0.8,2.5,1.4,3.6,1c1.1-0.2,0.9-1,1.4-1.4
			s1.6-0.4,1.4-1.2c-0.2-0.6-0.5-0.6-0.7-0.8c0.7,0.2,1.8,0,1.8-0.8c0-0.6-0.5-0.6-0.2-1.2c0.5,0.2,1.6,0.4,1.8-0.2
			c0.5-0.8-0.7-3.3-0.2-4.7C106.3,45,107.4,43.9,107.4,42.7z"/>
	</g>
</g>
</svg>
