<?xml version="1.0" encoding="utf-8"?>
<!-- Generator: Adobe Illustrator 21.0.0, SVG Export Plug-In . SVG Version: 6.00 Build 0)  -->
<svg version="1.1" id="Layer_1" xmlns="http://www.w3.org/2000/svg" xmlns:xlink="http://www.w3.org/1999/xlink" x="0px" y="0px"
	 width="180px" height="180px" viewBox="0 0 180 180" style="enable-background:new 0 0 180 180;" xml:space="preserve">
<style type="text/css">
	.st0{opacity:0.5;}
	.st1{fill:#FFFFFF;}
</style>
<g id="icons" class="st0">
	<path class="st1" d="M176,0h-49.1c-0.4,0-0.6,0.2-0.6,0.6v16.2c0,0.4,0.2,0.6,0.6,0.6h20.3l-27.7,27.5c-8.4-6-18.6-9.3-29.6-9.3
		S68.7,39,60.3,44.8l-3-3l13.2-13.2c0.2-0.2,0.2-0.6,0-0.7L59.2,16.5c-0.2-0.2-0.6-0.2-0.7,0l-13,13.2L33,17.3h20.3
		c0.4,0,0.6-0.2,0.6-0.6V0.6c0-0.4-0.2-0.6-0.6-0.6H4C3.6,0,3.4,0.2,3.4,0.6v49.3c0,0.4,0.2,0.6,0.6,0.6h16.2c0.4,0,0.6-0.2,0.6-0.6
		V29.6L33.2,42L20,55.2c-0.2,0.2-0.2,0.6,0,0.7l11.3,11.3c0.2,0.2,0.6,0.2,0.7,0L45.2,54l3,3c-6,8.4-9.5,18.6-9.5,29.8l0,0
		c0,25.5,18.6,46.5,42.8,50.6v12.8H60.3c-0.4,0-0.6,0.2-0.6,0.6V167c0,0.4,0.2,0.6,0.6,0.6l21.2-0.2v12.1c0,0.4,0.2,0.6,0.6,0.6
		h16.2c0.4,0,0.6-0.2,0.6-0.6v-12.1H120c0.4,0,0.6-0.2,0.6-0.6v-16.2c0-0.4-0.2-0.6-0.6-0.6H98.8v-12.8
		c24.2-4.3,42.4-25.3,42.4-50.6l0,0c0-11.2-3.5-21.4-9.5-29.8l27.5-27.5v20.3c0,0.4,0.2,0.6,0.6,0.6H176c0.4,0,0.6-0.2,0.6-0.6v-49
		C176.6,0.2,176.4,0,176,0z M90.1,120.9c-9.1,0-17.7-3.5-24-10c-6.5-6.5-10-14.9-10-24l0,0l0,0c0-9.1,3.5-17.7,10-24
		c6.5-6.5,14.9-10,24-10s17.7,3.5,24,10c6.5,6.5,10,14.9,10,24C124.1,105.6,108.9,120.9,90.1,120.9z"/>
</g>
</svg>
