<?xml version="1.0" encoding="utf-8"?>
<!-- Generator: Adobe Illustrator 21.0.0, SVG Export Plug-In . SVG Version: 6.00 Build 0)  -->
<svg version="1.1" id="Layer_1" xmlns="http://www.w3.org/2000/svg" xmlns:xlink="http://www.w3.org/1999/xlink" x="0px" y="0px"
	 width="180px" height="180px" viewBox="0 0 180 180" style="enable-background:new 0 0 180 180;" xml:space="preserve">
<style type="text/css">
	.st0{opacity:0.5;}
	.st1{fill:#FFFFFF;}
</style>
<g class="st0">
	<path class="st1" d="M82.4,0c4.8,0,9.7,0,14.5,0c2.3,0.4,4.7,0.9,7.1,1.3c36.9,5.5,67.4,35.4,73.7,72c0.8,4.8,1.3,9.7,2,14.6
		c0,1.5,0,3,0,4.4c-0.6,4.9-1.2,9.7-2,14.6c-5.8,33.9-33.2,62.9-66.7,70.6c-4.5,1-9,1.8-13.5,2.6c-5,0-10.1,0-15.2,0
		c-2.2-0.4-4.5-0.9-6.7-1.3c-35.5-5.5-64.9-32.9-72.8-67.9c-1-4.5-1.7-9-2.6-13.6c0-4.8,0-9.7,0-14.5c0.4-2.3,0.8-4.7,1.3-7.1
		C8.8,38.3,30.6,14,67.1,3.1C72.1,1.6,77.3,1,82.4,0z M20.7,48.3c2.6,3.4,4.5,6.2,6.8,8.7c7.8,8.8,17.8,14.2,28.5,18.7
		c2.1,0.9,3.3,2,3.8,4.4c1.4,6.9,5.4,12,11.7,15.2c1.7,0.9,3.4,1.6,5.4,2.6c-6.2,4.1-9.2,9.6-8.3,16.8c0.8,7.2,5.3,11.6,11.9,14.3
		c-4.1,4-6.7,8.2-5.9,13.9c1,7.2,5.8,11.5,12.1,14.2c2.1,0.9,2.9,2,2.8,4.2c-0.2,2.6,0,5.2,0,8.1c1.5-0.1,2.5-0.1,3.7-0.2
		c0.1-1.7,0.4-3,0.2-4.4c-0.5-4.5,0.5-8,5.5-9.3c1.3-0.3,2.4-1.3,3.5-2.1c7.9-5.9,8.9-15.5,2.4-22.8c-0.5-0.5-0.9-1.1-1.6-1.9
		c6.7-2.8,11-7.3,11.7-14.6c0.8-7.2-2.4-12.5-8.5-16.5c1.7-0.7,2.9-1.2,4.1-1.8c6.7-3.2,11.5-8.2,13-15.6c0.6-2.7,1.9-3.8,4.1-4.9
		c7.3-4,14.7-7.8,21.5-12.4c5.2-3.5,9.2-8.4,12.2-14c-0.4-0.3-0.6-0.5-0.7-0.5c-1.2,0.1-2.3,0.1-3.5,0.3c-12.9,2.1-24.9-0.2-35.6-8
		c-1-0.7-2.2-1.2-3.4-1.6c-3.7-1.3-7.3-1-9.8,2c-2.2,2.6-3.8,5.8-5,8.9c-0.9,2.5-0.8,5.4-1.3,8c-0.7,3.3-2.3,4.4-6.1,4.3
		c0-3.6,0.1-7.3,0-11c-0.1-2.4,0.5-4,2.9-5.3c5.7-3.2,8.1-9.8,6.4-16.1c-1.7-6-7.6-10.4-13.9-10.3c-6.3,0.1-12.1,4.6-13.7,10.7
		c-1.6,6.3,1,12.5,6.7,16c1,0.6,2.3,1.8,2.4,2.8c0.3,4.4,0.1,8.8,0.1,13.2c-4-0.1-5.6-1.4-6.2-5c-0.3-1.8-0.4-3.6-0.6-5.3
		c-1.6-12.7-10.3-16.8-20.9-10c-7.1,4.6-14.9,7.3-23.5,7.2C31,49.1,26.4,48.7,20.7,48.3z"/>
	<path class="st1" d="M94.7,124.3c0-8,0-15.7,0-23.7c5.3-0.3,9.7,1,12.8,5.1c2.9,3.8,3,8,0.7,12.1C105.3,123,100.4,124.5,94.7,124.3
		z"/>
	<path class="st1" d="M73.6,112.6c0-6.4,5.8-12,12.2-11.8c0.7,0,2,1.2,2,1.9c0.3,6.6,0.5,13.2,0.5,19.8c0,0.6-1,1.8-1.7,1.9
		C80,125.3,73.6,119.4,73.6,112.6z"/>
	<path class="st1" d="M95.4,77.9c7.5,0.5,15,1,22.5,1.5c-0.6,7.4-12,15.4-22.5,15.1C95.4,88.8,95.4,83.1,95.4,77.9z"/>
	<path class="st1" d="M65.1,79.5c7.4-0.5,14.7-1,22.1-1.5c0,5.2,0,11,0,16.8C76,94.2,67.2,88.1,65.1,79.5z"/>
	<path class="st1" d="M93.9,151.9c0-7.3,0-14.4,0-21.5c5.3,0.9,9.8,5.7,9.8,10.3C103.7,145.8,98.3,151.5,93.9,151.9z"/>
	<path class="st1" d="M88.8,130.9c0,7.2,0,14,0,20.9c-4.5-0.6-9-5.6-9.2-10.3C79.3,137,83.5,132,88.8,130.9z"/>
</g>
</svg>
