<?xml version="1.0" encoding="utf-8"?>
<!-- Generator: Adobe Illustrator 21.0.0, SVG Export Plug-In . SVG Version: 6.00 Build 0)  -->
<svg version="1.1" id="Layer_1" xmlns="http://www.w3.org/2000/svg" xmlns:xlink="http://www.w3.org/1999/xlink" x="0px" y="0px"
	 width="180px" height="180px" viewBox="0 0 180 180" style="enable-background:new 0 0 180 180;" xml:space="preserve">
<style type="text/css">
	.st0{opacity:0.5;fill:#FFFFFF;}
</style>
<path class="st0" d="M108.3,93.8L108.3,93.8c-0.5-0.6-1-1.4-1.7-2.4c7.9-12.3,18.4-29.7,20.5-37.1c0.1-0.3,0.2-0.7,0.3-1
	c4.2-17.1-3.5-27.1-13.4-43.4c0,0-1.9-2.8-4.8-4.9c-3.7-2.6-10-5-20.1-5S72.6,2.5,68.9,5c-2.9,2.1-4.8,4.9-4.8,4.9
	C64,10,64,10.1,63.9,10.2C64,10.1,64,10,64,9.9c-9.9,16.3-17.6,26.3-13.4,43.4C53.8,66.1,65,83,71.2,91.6l0.1,0.2l-45.2,63.3l0,0
	v0.1l15.9,2.9l1.8,21.8l45.3-63.4l45,63.3v-0.1v0.1l2.3-21.9l15.2-3.2L108.3,93.8z M64.5,26.4c3.4-3.7,10.3-7.5,24.5-7.5
	c14,0,20.9,3.7,24.4,7.3c-3.3,9.5-15.7,28.6-24.3,41.1C78.8,52.7,67.8,36,64.5,26.4z"/>
</svg>
