<?xml version="1.0" encoding="utf-8"?>
<!-- Generator: Adobe Illustrator 21.0.0, SVG Export Plug-In . SVG Version: 6.00 Build 0)  -->
<svg version="1.1" id="Layer_1" xmlns="http://www.w3.org/2000/svg" xmlns:xlink="http://www.w3.org/1999/xlink" x="0px" y="0px"
	 width="180px" height="180px" viewBox="0 0 180 180" style="enable-background:new 0 0 180 180;" xml:space="preserve">
<style type="text/css">
	.st0{opacity:0.5;}
	.st1{fill:#FFFFFF;}
</style>
<g class="st0">
	<path class="st1" d="M127.4,141.1c0,0,6.4-6.4,7.1-7.1c1.3-1.3,2.2-1.9,5-3.2c3.6-1.6,11.2-0.4,23.3-12.6l16.6-16.6
		c1-1,0.6-3-1-4.6s-3.6-2-4.6-1l-14.9,15c-0.6,0.6-2.3-0.4-2.9-1c-0.6-0.6-1.6-2.3-1-2.9l19.4-19.4c1-1,0.6-3-1-4.6s-3.6-2-4.6-1
		l-19.3,19.4c-0.6,0.6-2.4-0.5-3-1.1s-1.5-2.2-0.9-2.8l21.1-21.1c1-1,0.6-3-1-4.6s-3.6-2-4.6-1L140,92c-0.6,0.6-2.3-0.4-2.9-1
		c-0.6-0.6-1.6-2.3-1-2.9L157.2,67c1-1,0.6-3-1-4.6s-3.6-2-4.6-1L124,89c-2.3,2.3-6.2,2.3-8.5,0l-5.1-5.1c-8.8,8.8,4.5,22.6-3,30.1
		c-0.5,0.5-3.5,3.5-3.5,3.5c-1.2,1.2-1.2,3.1,0,4.3l19.3,19.3C124.3,142.3,126.2,142.3,127.4,141.1z"/>
	<path class="st1" d="M141.3,52.5c0,0-6.4-6.4-7.1-7.1c-1.3-1.3-1.9-2.2-3.2-5c-1.6-3.6-0.4-11.2-12.6-23.3L101.9,0.5
		c-1-1-3-0.5-4.6,1c-1.5,1.6-2,3.6-1,4.6L111.2,21c0.6,0.6-0.4,2.3-1,2.9s-2.3,1.6-2.9,1L88,5.5c-1-1-3-0.5-4.6,1
		c-1.6,1.6-2,3.6-1,4.6l19.4,19.4c0.6,0.6-0.5,2.4-1.1,3s-2.2,1.5-2.8,0.9L76.8,13.2c-1-1-3-0.6-4.6,1c-1.5,1.6-2,3.6-1,4.6
		l21.1,21.1c0.6,0.6-0.4,2.3-1,2.9c-0.6,0.6-2.3,1.6-2.9,1L67.3,22.7c-1-1-3-0.6-4.6,1s-2,3.6-1,4.6l27.6,27.6
		c2.3,2.3,2.3,6.2,0,8.5l-5.1,5.1c8.8,8.8,22.6-4.5,30.1,3c0.5,0.5,3.5,3.5,3.5,3.5c1.2,1.2,3.1,1.2,4.3,0l19.3-19.3
		C142.5,55.6,142.5,53.7,141.3,52.5z"/>
	<path class="st1" d="M52.5,38.8c0,0-6.4,6.4-7.1,7.1c-1.3,1.3-2.2,1.9-5,3.2c-3.6,1.6-11.2,0.4-23.3,12.6L0.5,78.2
		c-1,1-0.6,3,1,4.6s3.6,2,4.6,1L21,68.9c0.6-0.6,2.3,0.4,2.9,1s1.6,2.3,1,2.9L5.4,92.2c-1,1-0.5,3,1,4.6c1.6,1.6,3.6,2,4.6,1
		l19.4-19.4c0.6-0.6,2.4,0.5,3,1.1c0.6,0.6,1.5,2.2,0.9,2.8l-21,21.1c-1,1-0.6,3,1,4.6s3.6,2,4.6,1L40,87.9c0.6-0.6,2.3,0.4,2.9,1
		c0.6,0.6,1.6,2.3,1,2.9l-21.1,21.1c-1,1-0.6,3,1,4.6c1.5,1.6,3.6,2,4.6,1L56,90.9c2.3-2.3,6.2-2.3,8.5,0l5.1,5.1
		c8.8-8.8-4.5-22.6,3-30.1c0.5-0.5,3.5-3.5,3.5-3.5c1.2-1.2,1.2-3.1,0-4.3L56.7,38.8C55.6,37.7,53.6,37.7,52.5,38.8z"/>
	<path class="st1" d="M38.7,127.5c0,0,6.4,6.4,7.1,7.1c1.3,1.3,1.9,2.2,3.2,5c1.6,3.6,0.4,11.2,12.6,23.3l16.6,16.6c1,1,3,0.6,4.6-1
		c1.5-1.6,2-3.6,1-4.6l-15-14.9c-0.6-0.6,0.4-2.3,1-2.9s2.3-1.6,2.9-1L92,174.5c1,1,3,0.5,4.6-1c1.6-1.6,2-3.6,1-4.6l-19.4-19.4
		c-0.6-0.6,0.5-2.4,1.1-3s2.2-1.5,2.8-0.9l21.1,21.1c1,1,3,0.6,4.6-1c1.5-1.5,2-3.6,1-4.6L87.7,140c-0.6-0.6,0.4-2.3,1-2.9
		c0.6-0.6,2.3-1.6,2.9-1l21.1,21.1c1,1,3,0.5,4.6-1c1.6-1.6,2-3.6,1-4.6L90.7,124c-2.3-2.3-2.3-6.2,0-8.5l5.1-5.1
		c-8.8-8.8-22.6,4.5-30.1-3c-0.5-0.5-3.5-3.5-3.5-3.5c-1.2-1.2-3.1-1.2-4.3,0l-19.3,19.3C37.5,124.4,37.5,126.3,38.7,127.5z"/>
</g>
</svg>
