<?xml version="1.0" encoding="utf-8"?>
<!-- Generator: Adobe Illustrator 21.0.0, SVG Export Plug-In . SVG Version: 6.00 Build 0)  -->
<svg version="1.1" id="Layer_1" xmlns="http://www.w3.org/2000/svg" xmlns:xlink="http://www.w3.org/1999/xlink" x="0px" y="0px"
	 width="180px" height="180px" viewBox="0 0 180 180" style="enable-background:new 0 0 180 180;" xml:space="preserve">
<style type="text/css">
	.st0{opacity:0.5;}
	.st1{fill:#FFFFFF;}
</style>
<g id="Layer_1_1_" class="st0">
	<path class="st1" d="M65,66.1v41h13.2l0.3-6.7c0.3-9.4,22.8-9.4,23.1,0l0.2,6.7H115v-41C96.2,66.1,87.1,66.1,65,66.1L65,66.1z
		 M83.7,80c0.3-3.3,3-5.1,6.2-5.1c3,0,5.9,1.6,6.2,5.1c0.2,1.8-0.2,5.9-1.1,7.4c-0.8,1.3-2.3,2.6-4.1,3.1c-0.9,0.2-1.1,0.2-2,0
		c-1.8-0.5-3.5-1.8-4.1-3.1C84,85.9,83.6,81.7,83.7,80L83.7,80z M43.9,93c0.3-3.3,3-4.9,6.1-4.9c3,0,5.8,1.6,6.1,4.9
		c0.2,1.8-0.2,5.7-1.1,7.4c-0.8,1.3-2.3,2.6-4.1,3.1c-0.9,0.2-1.1,0.2-2,0c-1.8-0.5-3.3-1.8-4.1-3.1C44.2,98.9,43.7,94.8,43.9,93
		L43.9,93z M61.5,115.3v-3.1c-0.2-5.7-8.7-7.9-15.2-6.6c0.2,3.3-0.5,8.2-1.8,10.7c-0.5,1-1.1,1.8-1.8,2.6c4.3,1.1,7.8,3.4,9.4,6.9
		c0.6,1.3,0.9,3.3,0.9,5.1L61.5,115.3L61.5,115.3z M26.8,105c0.5-4.4,4-6.6,8.1-6.6s7.8,2.1,8.1,6.6c0.2,2.3-0.3,7.7-1.4,9.7
		c-0.9,1.8-3,3.4-5.5,4.1c-1.2,0.2-1.4,0.2-2.6,0c-2.4-0.7-4.6-2.3-5.5-4.1C27.1,112.7,26.7,107.3,26.8,105L26.8,105z M50.3,135.7
		l-10.5,18.9c-0.2-2.5-0.3-5.3-1.1-6.7c-2.1-3.9-6.4-6.6-11.3-8c0.9-0.8,1.7-1.8,2.1-3c1.7-3.1,2.3-10.3,2-14c0-0.7-0.2-1.1-0.3-1.6
		c8.5-1.1,18.6,1.8,18.7,9L50.3,135.7L50.3,135.7z M8.7,123.4c-0.3,2.8,0.3,9.2,1.5,11.7c1.1,2.1,3.7,4.3,6.5,4.9
		c1.4,0.2,1.7,0.2,3,0c2.9-0.7,5.5-2.8,6.5-4.9c1.2-2.5,1.8-8.9,1.5-11.7c-0.5-5.3-4.9-7.9-9.6-7.9S9.2,118.1,8.7,123.4L8.7,123.4z
		 M36.6,160.5l-0.2-6.9c-0.3-14.8-35.7-14.6-36,0l-0.5,22h28.3L36.6,160.5L36.6,160.5z M136,93c-0.3-3.3-3-4.9-6.1-4.9
		c-3,0-5.8,1.6-6.1,4.9c-0.2,1.8,0.2,5.7,1.1,7.4c0.8,1.3,2.3,2.6,4.1,3.1c0.9,0.2,1.1,0.2,2,0c1.8-0.5,3.3-1.8,4.1-3.1
		C135.9,98.9,136.2,94.8,136,93L136,93z M118.5,115.3v-3.1c0.2-5.7,8.7-7.9,15.2-6.6c-0.2,3.3,0.5,8.2,1.8,10.7
		c0.5,1,1.1,1.8,1.8,2.6c-4.3,1.1-7.8,3.4-9.4,6.9c-0.6,1.3-0.9,3.3-0.9,5.1L118.5,115.3L118.5,115.3z M153.1,105
		c-0.5-4.4-4-6.6-8.1-6.6s-7.8,2.1-8.1,6.6c-0.2,2.3,0.3,7.7,1.4,9.7c0.9,1.8,3,3.4,5.5,4.1c1.2,0.2,1.4,0.2,2.6,0
		c2.4-0.7,4.6-2.3,5.5-4.1C152.8,112.7,153.2,107.3,153.1,105L153.1,105z M129.7,135.7l10.5,18.9c0.2-2.5,0.3-5.3,1.1-6.7
		c2.1-3.9,6.4-6.6,11.3-8c-0.9-0.8-1.7-1.8-2.1-3c-1.7-3.1-2.3-10.3-2-14c0-0.7,0.2-1.1,0.3-1.6c-8.5-1.1-18.6,1.8-18.7,9
		L129.7,135.7L129.7,135.7z M171.2,123.4c0.3,2.8-0.3,9.2-1.5,11.7c-1.1,2.1-3.7,4.3-6.5,4.9c-1.4,0.2-1.7,0.2-3,0
		c-2.9-0.7-5.5-2.8-6.5-4.9c-1.2-2.5-1.8-8.9-1.5-11.7c0.5-5.3,4.9-7.9,9.6-7.9C166.5,115.5,170.7,118.1,171.2,123.4L171.2,123.4z
		 M143.3,160.5l0.2-6.7c0.3-14.8,35.7-14.6,36,0l0.5,21.8h-28.3L143.3,160.5L143.3,160.5z M32.2,180c11.4-22.5,22.5-45.3,34.1-67.5
		h47.5c11.6,22.2,22.8,45,34.1,67.5C147.8,180,32.2,180,32.2,180z"/>
</g>
</svg>
