<?xml version="1.0" encoding="utf-8"?>
<!-- Generator: Adobe Illustrator 21.0.0, SVG Export Plug-In . SVG Version: 6.00 Build 0)  -->
<svg version="1.1" id="Layer_1" xmlns="http://www.w3.org/2000/svg" xmlns:xlink="http://www.w3.org/1999/xlink" x="0px" y="0px"
	 width="180px" height="180px" viewBox="0 0 180 180" style="enable-background:new 0 0 180 180;" xml:space="preserve">
<style type="text/css">
	.st0{opacity:0.5;fill:#FFFFFF;}
</style>
<path class="st0" d="M180,46.3c-0.2,0-0.3,0-0.5,0l0,0c-5.6,0-5.6,4.1-11.1,4.1c-5.6,0-5.6-4.1-11.1-4.1l0,0
	c-5.6,0-5.6,4.1-11.1,4.1c-5.6,0-5.6-4.1-11.1-4.1l0,0l0,0c-5.6,0-5.6,4.1-11.1,4.1s-5.6-4.1-11.1-4.1l0,0c-5.6,0-5.6,4.1-11.1,4.1
	c-5.6,0-5.6-4.1-11.1-4.1l0,0c-0.1,0-0.3,0-0.4,0s-0.3,0-0.4,0l0,0c-5.6,0-5.6,4.1-11.1,4.1c-5.6,0-5.6-4.1-11.1-4.1l0,0
	c-5.6,0-5.6,4.1-11.1,4.1s-5.6-4.1-11.1-4.1l0,0l0,0c-5.6,0-5.6,4.1-11.1,4.1s-5.6-4.1-11.1-4.1l0,0c-5.6,0-5.6,4.1-11.1,4.1
	s-5.6-4.1-11.1-4.1l0,0c-0.4,0-0.5,0-0.7,0v2.4c0.8,3.7,3.9,4.3,3.9,9.1S0.8,63.3,0,67v4c0.8,3.7,3.9,4.3,3.9,9.1
	c0,4.8-3.1,5.4-3.9,9.1v4c0.8,3.6,3.8,4.3,3.9,8.8c-0.1,4.5-3.1,5.2-3.9,8.8v4.7c0.8,3.6,3.8,4.3,3.9,8.8c-0.1,4.5-3.1,5.2-3.9,8.8
	v4c0.8,3.7,3.9,4.3,3.9,9.1s-3.1,5.5-3.9,9.1v4c0.8,3.7,3.9,4.3,3.9,9.1S0.8,174,0,177.6v2.4c0.2,0,0.3,0,0.5,0l0,0
	c5.6,0,5.6-4.1,11.1-4.1s5.6,4.1,11.1,4.1l0,0c5.6,0,5.6-4.1,11.1-4.1S39.5,180,45,180l0,0l0,0c5.6,0,5.6-4.1,11.1-4.1
	s5.6,4.1,11.1,4.1l0,0c5.6,0,5.6-4.1,11.1-4.1c5.6,0,5.6,4.1,11.1,4.1l0,0c0.1,0,0.3,0,0.4,0s0.3,0,0.4,0l0,0
	c5.6,0,5.6-4.1,11.1-4.1c5.6,0,5.6,4.1,11.1,4.1l0,0c5.6,0,5.6-4.1,11.1-4.1c5.6,0,5.6,4.1,11.1,4.1l0,0l0,0c5.6,0,5.6-4.1,11.1-4.1
	c5.6,0,5.6,4.1,11.1,4.1l0,0c5.6,0,5.6-4.1,11.1-4.1s5.6,4.1,11.1,4.1l0,0c0.2,0,0.4,0,0.5,0v-2.4c-0.8-3.7-3.9-4.3-3.9-9.1
	s3.1-5.5,3.9-9.1v-4c-0.8-3.7-3.9-4.3-3.9-9.1s3.1-5.5,3.9-9.1v-4c-0.8-3.6-3.7-4.3-3.9-8.8c0.1-4.5,3.1-5.2,3.9-8.8v-4.7
	c-0.8-3.6-3.7-4.3-3.9-8.8c0.1-4.5,3.1-5.2,3.9-8.8v-4c-0.8-3.7-3.9-4.3-3.9-9.1s3.1-5.5,3.9-9.1v-4c-0.8-3.7-3.9-4.3-3.9-9.1
	s3.1-5.5,3.9-9.1v-2.4h0.5V46.3z M167,166.7H13v-108h154V166.7z M135.9,124.4c-7.5,0-13.6,6.1-13.6,13.6s6.1,13.6,13.6,13.6
	s13.6-6.1,13.6-13.6S143.4,124.4,135.9,124.4z M149.6,128.6l1.4-3.9l-4.1,0.9l0.4-4.2l-3.7,1.9l-0.6-4.1l-3.2,2.7l-1.6-3.9l-2.4,3.4
	l-2.4-3.4l-1.6,3.9l-3.2-2.7l-0.6,4.1l-3.7-1.9l0.4,4.2l-4.1-0.9l1.4,3.9l-4.2,0.1l2.3,3.5l-4,1.1l3.1,2.8l-3.7,2l3.7,2l-3.1,2.8
	l4,1.1l-2.3,3.5l4.2,0.1l-1.4,3.9l4.1-0.9l-0.4,4.2l3.7-1.9l0.6,4.1l3.2-2.7l1.6,3.9l2.4-3.4l2.4,3.4l1.6-3.9l3.2,2.7l0.6-4.1
	l3.7,1.9l-0.4-4.2l4.1,0.9l-1.4-3.9l4.2-0.1l-2.3-3.5l4-1.1l-3.1-2.8l3.7-2l-3.7-2l3.1-2.8l-4-1.1l2.3-3.5L149.6,128.6z
	 M135.9,153.2c-8.4,0-15.1-6.8-15.1-15.1c0-8.4,6.8-15.1,15.1-15.1c8.4,0,15.2,6.8,15.2,15.1S144.3,153.2,135.9,153.2z M30.3,128.8
	h71.2c1.9,0,3.5-1.6,3.5-3.5s-1.6-3.5-3.5-3.5H30.3c-1.9,0-3.5,1.6-3.5,3.5C26.8,127.3,28.4,128.8,30.3,128.8z M30.3,152.1h71.2
	c1.9,0,3.5-1.6,3.5-3.5s-1.6-3.5-3.5-3.5H30.3c-1.9,0-3.5,1.6-3.5,3.5C26.8,150.6,28.4,152.1,30.3,152.1z M30.3,82.2h119.4
	c1.9,0,3.5-1.6,3.5-3.5s-1.6-3.5-3.5-3.5H30.3c-1.9,0-3.5,1.6-3.5,3.5S28.4,82.2,30.3,82.2z M30.3,105.5h119.4
	c1.9,0,3.5-1.6,3.5-3.5s-1.6-3.5-3.5-3.5H30.3c-1.9,0-3.5,1.6-3.5,3.5S28.4,105.5,30.3,105.5z"/>
</svg>
