<?xml version="1.0" encoding="utf-8"?>
<!-- Generator: Adobe Illustrator 21.0.0, SVG Export Plug-In . SVG Version: 6.00 Build 0)  -->
<svg version="1.1" id="Layer_1" xmlns="http://www.w3.org/2000/svg" xmlns:xlink="http://www.w3.org/1999/xlink" x="0px" y="0px"
	 width="180px" height="180px" viewBox="0 0 180 180" style="enable-background:new 0 0 180 180;" xml:space="preserve">
<style type="text/css">
	.st0{opacity:0.5;}
	.st1{fill:#FFFFFF;}
</style>
<g class="st0">
	<circle class="st1" cx="66.4" cy="88.2" r="3"/>
	<circle class="st1" cx="101.8" cy="83.8" r="2.9"/>
	<path class="st1" d="M74.9,89.1c0.7-1-6.4-4.5-9-4.1s-3.4,0.5-4.9,1.2c-1.6,0.6-5.4,2.9-4.8,4.1c0.5,1.3,2.5,0.6,3.7-0.1
		s1.6-3.4,6.2-3C70.7,87.8,73.7,91,74.9,89.1z"/>
	<circle class="st1" cx="67.1" cy="87.9" r="0.8"/>
	<path class="st1" d="M94,86.5c0.5,0.8,1.1-0.2,2.3-1.6c1.2-1.4,2.9-2.5,5.7-2.6c2.8-0.1,5.4,1.6,5.2,2.5c-0.1,0.9-0.7,1.3-0.5,1.4
		s4.8,0.5,5.4-0.7s0.3-2.7-2.1-3.5s-8.7-1.4-11.6-0.5C95.6,82.2,93.1,85.2,94,86.5z"/>
	<circle class="st1" cx="102.8" cy="83.7" r="0.8"/>
	<path class="st1" d="M74.8,81.9c0.8-1.3-3.9-4.8-7.4-5.2c-3.6-0.4-9.4,0.1-12,1.8c-2.5,1.7-3.4,5.4-3.2,6.1s3.7-4,6.8-4.1
		C62.1,80.4,72.6,85.6,74.8,81.9z"/>
	<path class="st1" d="M92.1,77.3c-1,1.9-0.1,2.7,1.4,2.6s3.6-1.9,6.9-2.9s11.4,1.5,12.2,0.8c0.7-0.7-6.5-4.2-10-4.1
		C98.9,73.8,93.4,74.8,92.1,77.3z"/>
	<path class="st1" d="M75.1,100.6c-0.3-0.9-4.9,4.7-3.5,6.7s6.4,0.5,6.4,0.5s-3.3,0-3.6-2.3C74.1,103.2,75.4,101.5,75.1,100.6z"/>
	<path class="st1" d="M78.2,107.3c-0.9-1-0.7-2.6,1.5-3c4.1-0.6,3.7,1.1,6.1,1s5-0.4,5.8-1.5c1.2-1.8,5.4-1.6,5.9-0.2
		s-0.1,2.8-1.6,2.7c-1.4-0.1-0.4-1.3-1.5-1.4s-3.9,0.2-5.3,1C87.7,106.5,80.1,109.3,78.2,107.3z"/>
	<path class="st1" d="M74.9,119.5c0,0,5.2-3.7,7.9-2.8c2.7,0.9,3.4,0.6,5.2,0.4c1.8-0.1,4.2-1.9,7.3-1.8c3,0.1,8.4,2.1,8.9,3
		s-8.3-0.2-11.5,0.5s-6.7,1.3-8.3,1.1C82.8,119.8,74.8,122.3,74.9,119.5z"/>
	<path class="st1" d="M80.3,124.3c-0.2,1.6,3.9,3.1,8.5,3.3c4.6,0.1,10.2-2.8,8.9-3.6C96.6,123.1,80.5,122.4,80.3,124.3z"/>
	<path class="st1" d="M83.5,107.7c-2.5,0.2-11.2,8.6-13.2,10.4c-2,1.9-1.4,6,1.2,5.3s10.5-9.8,12.1-9.7c1.5,0.1,2.1,1.4,3.9,1.4
		s1.4-2.5,4.9-2.1c3.5,0.5,7.9,2.7,9.2,4.2c1.3,1.5,4.7,5.5,6,3.9c2.9-3.8-6.8-9.9-9.8-11.7s-3.9-2.6-5.4-2.1
		c-1.6,0.5-3.2,1.8-4.7,1.8C86.1,109.1,85.3,107.5,83.5,107.7z"/>
	<path class="st1" d="M121.8,86.5c-0.5,0.9-3.6-7.2-4.9-13.9C115.6,66,100.7,47,95.8,47S83,49.6,79.1,50.6s-13.6,2.1-16.5,1.6
		c-2.8-0.5-12.1,5.4-12.8,7.7C49.1,62.2,44.7,83,46,87.6s3.1,9.1,2.1,9.5c-0.8,0.3-4.9-4.6-6.2-6.2s-1.3-1.6-1.3-1.6
		S36,84,36.2,80.6c0.2-3.3-0.4-29,15.8-36.2s31.6-8.7,42.1-6.2s17.7,5.1,22.6,15.4C121.6,64,123.6,83.2,121.8,86.5z"/>
	<path class="st1" d="M66,139.2c5.1,3.9,26.8,9.9,40.9,0.5c10.8-7.2,15.7-30.3,13.9-35.7c-1.8-5.4-2.8-4.6-3.1,0.5
		c-0.5,9.8-4.9,19-6.9,23.4c-2.1,4.3-11,8.2-17.7,10c-2.5,0.7-9,0.5-11.3,0.8C79.4,138.9,66,139.2,66,139.2z"/>
	<path class="st1" d="M45.4,97.9c-1.3-0.3-2.4,2.6-1.7,4.8c0.7,2.2,1.7,4.8,2.6,4.4c1-0.3-0.4-1.4-0.1-3.6
		C46.5,101.4,46.7,98.2,45.4,97.9z"/>
	<path class="st1" d="M41.2,93.9c-1.8,0.6-1.3,8.2,0,8.2s0.2-3.7,1.2-4.8C43.3,96,42.1,93.5,41.2,93.9z"/>
	<path class="st1" d="M44.5,107.4c-0.5-0.4-2-0.8-2.1-1.5s-1.1-1.5-1-0.6v0.2c0.7,1.4,0.1,2.8,1.4,2.5
		C44.2,107.8,45,107.8,44.5,107.4z"/>
	<path class="st1" d="M74.8,149.7c-6,2.2-12.3,19.6-10,19.6c2.3,0,6.4-7.2,6.2-3.1c-0.2,4.1,0.8,13.6,0.8,13.6l15.4-0.5
		c0,0-8.7-15.7-5.4-17.2c3.3-1.6,17.5,4.6,17.5,4.6s-16-15.7-17-16.3C81.2,150,77.6,148.7,74.8,149.7z"/>
	<path class="st1" d="M60.1,140.5c0,0-41.6,10.3-49.1,21.3c-2,3-2,1.9-11.1,17.2l65.3,0.2c0,0-1.6-9.5-2.1-17.7
		C62.7,153.3,60.1,140.5,60.1,140.5z"/>
	<path class="st1" d="M41.1,109.2c0.1-0.4,1.5,3.2,2.7,3.5s4.1-1.5,4.1-1.5s-2.7,2.8-3.9,2.4C42.7,113.2,40.7,110.5,41.1,109.2z"/>
	<path class="st1" d="M180,139c-14.9-8.8-53.9-13.7-54.6-13.9c0,0-1,11-10.3,26.8c-9.3,15.7-23.1,27.7-23.1,27.7l88-0.2V139z"/>
</g>
</svg>
