<?xml version="1.0" encoding="utf-8"?>
<!-- Generator: Adobe Illustrator 21.0.0, SVG Export Plug-In . SVG Version: 6.00 Build 0)  -->
<svg version="1.1" id="Layer_1" xmlns="http://www.w3.org/2000/svg" xmlns:xlink="http://www.w3.org/1999/xlink" x="0px" y="0px"
	 width="180px" height="180px" viewBox="0 0 180 180" style="enable-background:new 0 0 180 180;" xml:space="preserve">
<style type="text/css">
	.st0{opacity:0.5;fill:#FFFFFF;}
</style>
<path class="st0" d="M136.7,40.5c0-4.5-3.7-8.2-8.2-8.2s-8.2,3.7-8.2,8.2v37c0,0.8-0.7,1.5-1.5,1.5s-1.5-0.7-1.5-1.5V20.7
	c0-4.5-3.7-8.2-8.2-8.2s-8.2,3.7-8.2,8.2v51c0,0.8-0.7,1.5-1.5,1.5s-1.5-0.7-1.5-1.5V9.2c0-0.1,0-0.3,0-0.4c0-4.5-3.7-8.2-8.2-8.2
	c-4.7-0.1-8.4,3.6-8.4,8.1c0,0.1,0,0.3,0,0.4v64.1c0,0.8-0.7,1.4-1.5,1.4s-1.5-0.7-1.5-1.5V23.5c0-4.5-3.7-8.2-8.2-8.2
	s-8.2,3.7-8.2,8.2v60.3V90v19c0,0.8-0.7,1.5-1.5,1.5c-0.5,0-0.9-0.2-1.3-0.8L46.8,87.2c-6-10.9-16-9.8-20.3-8.4
	c-1.3,0.4-1.7,1.7-1,3.1c0.5,1.1,24.2,50.3,24.2,50.3c3.9,8.2,8.5,12.5,12.4,14.9c2.5,1.6,7,5.6,9.9,9.3c-0.1,0.1-0.1,0.2-0.1,0.2
	l-0.7,0.7l7.1,5.6l0.9,16.6l1.6-2c0.1-0.1,9.9-15.8,19.1-30.5c9.1,14.7,19,30.4,19.1,30.5l1.6,2l0.9-16.6l7-5.5l-0.6-0.8
	c0,0-0.2-0.3-0.5-0.7c2-11.1,9.4-16,9.4-32.5V40.5H136.7z M112.3,96.8c0.6,2,1.2,4.1,1.6,6c1.4,5.8,1.8,13.9-1.1,19.1
	c-0.7,1.3-2.2,3.8-4.2,7.1c-2.6-3.8-5.2-7.6-7.6-11.1c4.6-6.7,8.2-12.3,9.4-14.5C111.4,101.7,112.1,99.4,112.3,96.8z M91.3,87.3
	c1.8-3,4.7-4.6,8.5-4.6s6.7,1.6,8.5,4.6c1.5,2.5,2.1,5.8,1.9,9c-2.2-2.1-5.8-3.9-10.4-3.9s-8.1,1.8-10.3,3.9
	C89.2,92.9,89.8,89.7,91.3,87.3z M80.8,173.8L80.1,162l-6.2-4.9c2.2-3,9.4-13.4,17-24.3c2.3,3.7,4.9,8,7.7,12.6
	C91.6,156.6,84,168.7,80.8,173.8z M119.4,162l-0.6,11.9c-3.3-5.2-31.4-50.8-32.1-51.9c-2.9-5.2-2.5-13.3-1.1-19.1c0.5-1.9,1-4,1.6-6
	c0.2,2.5,0.9,4.9,1.9,6.6c1.1,2.1,34.5,50.7,36.5,53.6L119.4,162z"/>
</svg>
