<?xml version="1.0" encoding="utf-8"?>
<!-- Generator: Adobe Illustrator 21.0.0, SVG Export Plug-In . SVG Version: 6.00 Build 0)  -->
<svg version="1.1" id="_x2014_ÎÓÈ_1" xmlns="http://www.w3.org/2000/svg" xmlns:xlink="http://www.w3.org/1999/xlink" x="0px"
	 y="0px" width="180px" height="180px" viewBox="0 0 180 180" style="enable-background:new 0 0 180 180;" xml:space="preserve">
<style type="text/css">
	.st0{opacity:0.5;fill:#FFFFFF;}
</style>
<path class="st0" d="M106,178c0,1.2-1,2.1-2.4,2.1h-1.2c-1.3,0-2.4-1-2.4-2.1v-60.5c0-1.2,1-2.1,2.4-2.1h1.2c1.3,0,2.4,1,2.4,2.1
	V178z"/>
<path class="st0" d="M6.9,176.3c0,1.2-1,2.1-2.4,2.1H3.4c-1.3,0-2.4-1-2.4-2.1v-58.2c0-1.2,1-2.1,2.4-2.1h1.2c1.3,0,2.4,1,2.4,2.1
	L6.9,176.3L6.9,176.3z"/>
<path class="st0" d="M179.7,105.4l-3.5-10.2c-0.8-2.4-2.4-6.2-3.6-8.5l-6.3-12.3c-1.2-2.2-3.4-5.7-5-7.6l-0.9-1.1
	c-1.6-1.9-4.9-4.2-7.3-5l-1-0.3h-24.2l-1,0.3c-2.4,0.8-5.7,3-7.3,5l-0.9,1.1c-1.6,1.9-3.9,5.4-5,7.6l-6.2,12.3
	c-1.2,2.2-2.8,6.1-3.6,8.5l-3.5,10.2c-0.8,2.4,0.4,5.2,2.7,6.2l0.6,0.3c2.3,1,5.1,0,6.1-2.4l3-6.8c1-2.3,2.9-5.7,4.1-7.6
	c1.2-1.8,2.7-3.9,3.2-4.7c0.5-0.7,1.3-1.6,1.6-1.9c0.4-0.3,1-0.5,1.4-0.3c0.4,0.1,0.7,0.6,0.6,1s-0.4,2.1-0.7,3.6
	c-0.3,1.6-1,4.9-1.6,7.3l-2.2,8.7c-0.6,2.4-1.6,6.5-2.3,8.9l-4.5,17.5c-0.6,2.4-1.2,5.4-1.4,6.5c-0.1,1.1,1.8,2.6,4.2,3.2l2.4,0.6
	c2.4,0.6,5.2,1.3,6.1,1.4c0.9,0.1,1.7,1,1.7,1.9c0.1,0.9,0.3,3.7,0.5,6.3l1.7,20.5c0.2,2.5,2.4,4.6,5,4.6h14.6c2.5,0,4.8-2.1,5-4.6
	l1.7-20.5c0.2-2.5,0.4-5.4,0.5-6.3c0.1-0.9,0.9-1.8,1.7-1.9c0.9-0.1,3.6-0.7,6.1-1.4l2.4-0.6c2.4-0.6,4.3-2.1,4.2-3.2
	c-0.1-1.1-0.7-4-1.4-6.5l-4.5-17.5c-0.6-2.4-1.6-6.5-2.3-8.9l-2.2-8.7c-0.6-2.4-1.4-5.8-1.6-7.3c-0.3-1.6-0.6-3.2-0.7-3.6
	c-0.1-0.4,0.2-0.9,0.6-1s1,0,1.4,0.3s1.1,1.2,1.6,1.9c0.5,0.7,2,2.8,3.2,4.7c1.2,1.8,3.1,5.2,4.1,7.6l3,6.8c1,2.3,3.8,3.4,6.1,2.4
	l0.6-0.3C179.3,110.5,180.6,107.8,179.7,105.4z"/>
<path class="st0" d="M148.9,26.4c0.5-1,0.8-2.2,0.8-3.4c0-4.6-4.2-8.4-9.4-8.4s-9.4,3.7-9.4,8.4c0,1.2,0.3,2.4,0.8,3.4
	c-4.8,2.9-8.1,8.2-8.1,14.3c0,9.2,7.5,16.7,16.7,16.7S157,49.9,157,40.7C157,34.6,153.7,29.3,148.9,26.4z"/>
<path class="st0" d="M71.5,95.4C71.1,91.7,70,85,69.1,80.7L67.6,74c-0.9-4.3-3.5-9.6-5.7-11.8s-7.5-4.6-11.8-5.4l-3.4-0.6l-4.5,7.5
	l-3.4,4.8l-1.1,0.7l-1.3,0.5L35,69.2l-1.1-0.7l-3.5-4.8l-4.5-7.5l-3.4,0.6c-4.3,0.8-9.7,3.3-11.8,5.4C8.4,64.4,5.9,69.7,5,74
	l-1.5,6.7c-0.9,4.3-2,11-2.4,14.8s-0.9,9.2-1.1,11.9c-0.3,2.8,1.9,5.3,4.7,5.6s5.7-1.5,6.2-4c0.6-2.5,1.3-7.2,1.7-10.4
	c0.4-3.2,1-7.5,1.5-9.7c0.4-2.1,1.2-4.6,1.6-5.5s1.2-1.6,1.7-1.5c0.5,0,0.9,0.6,0.9,1.4s0,4.3,0,7.9s0,10.2,0,14.6L18,172.6
	c0,4.4,3.5,8.1,7.8,8.1s7.9-3.6,8-8.1l0.8-32.6c0.1-4.4,0.3-9.4,0.5-11.1c0.1-1.1,0.3-2,0.4-2.6H37c0.2,0.6,0.4,1.5,0.4,2.6
	c0.1,1.7,0.4,6.7,0.5,11.1l0.8,32.6c0.1,4.4,3.7,8.1,8,8.1s7.8-3.6,7.8-8.1l-0.1-66.8c0-4.4,0-11,0-14.6s0-7.2,0-7.9
	c0-0.7,0.4-1.3,0.9-1.4c0.5,0,1.3,0.7,1.7,1.5s1.1,3.3,1.6,5.5c0.4,2.1,1.1,6.5,1.5,9.7s1.1,7.9,1.7,10.4s3.4,4.3,6.2,4
	c2.8-0.3,5-2.8,4.7-5.6C72.4,104.6,71.8,99.3,71.5,95.4z"/>
<circle class="st0" cx="36.7" cy="36.8" r="16.7"/>
</svg>
