<?xml version="1.0" encoding="utf-8"?>
<!-- Generator: Adobe Illustrator 21.0.0, SVG Export Plug-In . SVG Version: 6.00 Build 0)  -->
<svg version="1.1" id="_x2014_ÎÓÈ_1" xmlns="http://www.w3.org/2000/svg" xmlns:xlink="http://www.w3.org/1999/xlink" x="0px"
	 y="0px" width="180px" height="180px" viewBox="0 0 180 180" style="enable-background:new 0 0 180 180;" xml:space="preserve">
<style type="text/css">
	.st0{opacity:0.5;fill:#FFFFFF;}
</style>
<path class="st0" d="M129.5,96.6l-12.1-40.9c-0.8-2.6-2.3-6.6-3.5-8.9c-1.2-2.3-4.2-4.9-6.8-5.7l-6.3-2c-2.9,1.4-6.5,2.2-10.5,2.2
	c-4.1,0-7.8-0.9-10.7-2.3L73,41.1c-2.6,0.8-5.7,3.4-6.8,5.7c-1.2,2.3-2.7,6.3-3.5,8.9L50.5,96.6c-0.8,2.6,0.6,5.5,3.1,6.5
	s5.2-0.3,6.2-2.9l9-24.5c0.9-2.5,2.5-6.4,3.5-8.5s2-1.7,2.2,1l0.2,1.8c0.2,2.7-0.4,7-1.4,9.5l-3.8,9.9c-1,2.5-2.5,6.7-3.4,9.2
	l-3.9,11c-0.9,2.6-1.8,5.7-1.9,6.9c-0.2,1.2,1.8,2.9,4.5,3.7l1.5,0.4c2.6,0.8,5.5,1.5,6.5,1.6s1.8,1,1.8,2c0.1,1,0.4,4.1,0.7,6.7
	l5.2,44c0.3,2.7,2.5,4.9,4.9,4.9c0.2,0,9.2,0,9.5,0c2.4,0,4.6-2.2,4.9-4.9l5.2-44c0.3-2.7,0.6-5.7,0.7-6.7s0.9-2,1.8-2
	c1-0.1,3.9-0.8,6.5-1.6l1.5-0.4c2.6-0.8,4.6-2.5,4.5-3.7c-0.2-1.2-1-4.3-1.9-6.9l-3.9-10.9c-0.9-2.6-2.5-6.7-3.4-9.2l-3.8-9.9
	c-1-2.5-1.6-6.8-1.4-9.5l0.2-1.8c0.2-2.7,1.2-3.2,2.2-1c1,2.1,2.6,6,3.5,8.5l9,24.5c0.9,2.5,3.7,3.8,6.2,2.9
	C128.9,102.1,130.3,99.2,129.5,96.6z"/>
<circle class="st0" cx="90.3" cy="17.9" r="17.9"/>
</svg>
