<?xml version="1.0" encoding="utf-8"?>
<!-- Generator: Adobe Illustrator 21.0.0, SVG Export Plug-In . SVG Version: 6.00 Build 0)  -->
<svg version="1.1" id="_x2014_ÎÓÈ_1" xmlns="http://www.w3.org/2000/svg" xmlns:xlink="http://www.w3.org/1999/xlink" x="0px"
	 y="0px" width="180px" height="180px" viewBox="0 0 180 180" style="enable-background:new 0 0 180 180;" xml:space="preserve">
<style type="text/css">
	.st0{opacity:0.5;fill:#FFFFFF;}
</style>
<path class="st0" d="M126.2,90.5l-4.6-33.2c-0.6-4-2.3-9-3.8-11.3c-1.5-2.2-6.1-4.5-10.1-5.1l-8.5-1.2H80.8L72.3,41
	c-4,0.6-8.5,2.9-10.1,5.1c-1.5,2.2-3.3,7.3-3.8,11.3l-4.6,33.2c-0.6,4-1.2,9.4-1.4,12s2,5,5,5.4c3,0.3,5.8-1.2,6.2-3.5
	s1.3-7.4,2.1-11.3l1.7-9.3c0.8-4,1.5-8.1,1.7-9.1c0.2-1.1,0.7-1.9,1.1-1.9s0.8,0.8,0.8,1.6c0,0.8,0,4.8,0,8.8v5.4
	c0,4-0.2,10.6-0.5,14.6l-4.9,69.5c-0.3,4,2.8,7.3,6.8,7.3H74c4,0,7.7-3.2,8.2-7.2l5.8-46.4c0.5-4,1-7.5,1.1-7.8s1.8-0.3,1.9,0
	s0.6,3.8,1.1,7.8l5.8,46.4c0.5,4,4.2,7.2,8.2,7.2h1.6c4,0,7.1-3.3,6.8-7.3l-4.9-69.6c-0.3-4-0.5-10.6-0.5-14.6v-5.4c0-4,0-8,0-8.8
	s0.4-1.5,0.8-1.6c0.4,0,1,0.8,1.1,1.9c0.2,1.1,1,5.2,1.7,9.1l1.7,9.3c0.8,4,1.7,9,2.1,11.3s3.2,3.8,6.2,3.5s5.2-2.8,5-5.4
	C127.4,99.9,126.7,94.5,126.2,90.5z"/>
<circle class="st0" cx="89.7" cy="17.6" r="17.6"/>
</svg>
