<?xml version="1.0" encoding="utf-8"?>
<!-- Generator: Adobe Illustrator 21.0.0, SVG Export Plug-In . SVG Version: 6.00 Build 0)  -->
<svg version="1.1" id="_x2014_ÎÓÈ_x5F_1" xmlns="http://www.w3.org/2000/svg" xmlns:xlink="http://www.w3.org/1999/xlink"
	 x="0px" y="0px" width="180px" height="180px" viewBox="0 0 180 180" style="enable-background:new 0 0 180 180;"
	 xml:space="preserve">
<style type="text/css">
	.st0{opacity:0.5;}
	.st1{fill:#FFFFFF;}
</style>
<g class="st0">
	<polygon class="st1" points="106.6,53 73.1,53 76.8,57.2 102.8,57.2 	"/>
	<polygon class="st1" points="97.2,63.6 82.6,63.6 89.9,71.8 	"/>
	<polygon class="st1" points="73.1,153 106.6,153 102.8,149 76.8,149 	"/>
	<polygon class="st1" points="82.6,142.7 97.2,142.7 89.9,134.2 	"/>
	<polygon class="st1" points="89.9,81.2 72,103 89.9,124.8 107.8,103 	"/>
	<polygon class="st1" points="123.8,122.7 99.3,122.7 96.2,126.5 127,126.5 	"/>
	<polygon class="st1" points="104.7,116.4 118.6,116.4 111.6,107.7 	"/>
	<polygon class="st1" points="104.7,89.6 111.6,98.3 118.6,89.6 	"/>
	<polygon class="st1" points="127,79.5 96.2,79.5 99.5,83.3 123.8,83.3 	"/>
	<polygon class="st1" points="55.8,83.3 80.3,83.3 83.3,79.5 52.7,79.5 	"/>
	<polygon class="st1" points="75.1,89.6 61,89.6 68.1,98.3 	"/>
	<polygon class="st1" points="75.1,116.4 68.1,107.7 61,116.4 	"/>
	<polygon class="st1" points="52.7,126.5 83.3,126.5 80.3,122.7 55.8,122.7 	"/>
	<polygon class="st1" points="82.9,132.9 47.3,132.9 28.5,153 65.1,153 	"/>
	<polygon class="st1" points="67.6,159.4 48.7,179.8 131.1,179.8 112.2,159.4 	"/>
	<polygon class="st1" points="96.6,132.9 114.5,153 151.1,153 132.2,132.9 	"/>
	<polygon class="st1" points="115.5,103 134.7,126.5 179.8,126.5 157.8,103 179.8,79.5 134.7,79.5 	"/>
	<polygon class="st1" points="96.6,73.1 132.2,73.1 151.1,53 114.5,53 	"/>
	<polygon class="st1" points="112.2,46.6 131.1,26.2 48.7,26.2 67.6,46.6 	"/>
	<polygon class="st1" points="82.9,73.1 65.1,53 28.5,53 47.3,73.1 	"/>
	<polygon class="st1" points="45,126.5 64.1,103 45,79.5 0,79.5 21.7,103 0,126.5 	"/>
</g>
</svg>
