<?xml version="1.0" encoding="utf-8"?>
<!-- Generator: Adobe Illustrator 21.0.0, SVG Export Plug-In . SVG Version: 6.00 Build 0)  -->
<svg version="1.1" id="_x2014_ÎÓÈ_1" xmlns="http://www.w3.org/2000/svg" xmlns:xlink="http://www.w3.org/1999/xlink" x="0px"
	 y="0px" width="180px" height="180px" viewBox="0 0 180 180" style="enable-background:new 0 0 180 180;" xml:space="preserve">
<style type="text/css">
	.st0{opacity:0.5;fill:#FFFFFF;}
</style>
<path class="st0" d="M179.8,118.3l-8.2-34.7c-0.7-3.2-3.2-7.6-5.5-10l-1-1c-2.3-2.3-6.8-4.6-10-5l-4-0.6c-3.4,1.6-7.1,2.5-11.1,2.5
	s-7.9-1-11.3-2.7l-4.7,0.7c-3.2,0.5-7.7,2.7-10,5l-1,1c-2.3,2.3-4.8,6.8-5.5,10l-8.2,34.7c-0.7,3.2,1,6.3,4,6.9s6.2-1.5,7.2-4.5
	l4.4-13.7c1-3.1,2-5.9,2.2-6.2c0.2-0.3,0.8-0.3,1.3,0s0.9,3.3,0.9,6.5v9.9c0,3.3,0,8.6,0,11.9v45.1c0,3.3,2.7,5.9,5.9,5.9h3.2
	c3.3,0,6.2-2.6,6.5-5.9l3.9-42h1.7l3.9,42c0.3,3.2,3.2,5.9,6.5,5.9h3.2c3.3,0,5.9-2.7,5.9-5.9V129c0-3.3,0-8.6,0-11.9v-9.9
	c0-3.3,0.4-6.2,0.9-6.5s1-0.4,1.3,0c0.2,0.3,1.2,3,2.2,6.2l4.5,13.7c1,3.1,4.2,5.1,7.2,4.5C178.7,124.5,180.6,121.5,179.8,118.3z"/>
<circle class="st0" cx="140" cy="44" r="19.6"/>
<path class="st0" d="M86.5,109.6c-1.1-2-3.2-6-4.6-8.9l-9.8-19.5c-1.4-2.8-4.3-6.9-6.3-9.1s-6.3-4.4-9.4-4.8l-0.8-0.1
	c-3.5,1.1-7.4,1.7-11.6,1.7c-4.4,0-8.4-0.6-11.9-1.8l-1.4,0.2c-3.2,0.5-7.4,2.7-9.4,4.8c-2,2.2-4.9,6.3-6.3,9.1l-9.8,19.5
	c-1.4,2.8-3.5,6.8-4.6,8.9c-1.1,2-0.2,4.8,2,6.1s5.1,0.9,6.4-0.9s4-5.4,5.8-8l3.8-5.3c1.9-2.6,4-5.6,4.8-6.6s1.7-1.2,2.2-0.5
	c0.4,0.8-0.2,3.8-1.4,6.7l-10.9,26.4c-1.2,2.9,0.2,6.3,3.2,7.5l1.2,0.4c3,1.2,5.7,3,6.1,4.1s0.9,4.5,1.2,7.7l1.9,27
	c0.2,3.2,3,5.8,6.2,5.8h1.2c3.2,0,6-2.6,6.2-5.8l2.3-31.4h1.5l2.3,31.4c0.2,3.2,3,5.8,6.2,5.8H54c3.2,0,6-2.6,6.2-5.8l1.9-27
	c0.2-3.2,0.8-6.7,1.2-7.7c0.4-1.1,3.2-2.9,6.1-4.1l1.2-0.4c3-1.2,4.4-4.5,3.2-7.5l-10.9-26.4c-1.2-2.9-1.8-6-1.4-6.7
	c0.4-0.8,1.5-0.5,2.2,0.5c0.8,1,2.9,4,4.8,6.6l3.8,5.3c1.9,2.6,4.5,6.2,5.8,8s4.2,2.2,6.4,0.9C86.8,114.4,87.7,111.6,86.5,109.6z"/>
<path class="st0" d="M67.1,52.4l-0.6-1.9c-0.8-2.9-2-6.6-2.5-8.1c-0.5-1.6-1.9-5.6-2-5.7c-2.6-7.4-9.6-12.8-17.9-12.9
	c-0.1,0-0.5,0-0.7,0c-8.2,0.2-15.2,5.5-17.7,12.9c0,0.2-1.4,4.2-2,5.7c-0.5,1.6-1.6,5.2-2.5,8.1l-0.6,1.9c-0.8,2.9,0.8,6.2,3.6,7.2
	l3.2,1.2c2.8,1,7.7,2.2,10.7,2.6h0.1c1.5,0.2,3.4,0.3,5.3,0.3c0,0,0.3,0,0.4,0c2,0,3.9-0.1,5.3-0.3h0.1c3-0.4,7.8-1.6,10.7-2.6
	l3.2-1.2C66.3,58.5,68,55.3,67.1,52.4z"/>
</svg>
