<?xml version="1.0" encoding="utf-8"?>
<!-- Generator: Adobe Illustrator 21.0.0, SVG Export Plug-In . SVG Version: 6.00 Build 0)  -->
<svg version="1.1" id="Layer_1" xmlns="http://www.w3.org/2000/svg" xmlns:xlink="http://www.w3.org/1999/xlink" x="0px" y="0px"
	 width="180px" height="180px" viewBox="0 0 180 180" style="enable-background:new 0 0 180 180;" xml:space="preserve">
<style type="text/css">
	.st0{opacity:0.5;fill:#FFFFFF;}
</style>
<polygon class="st0" points="166.3,53.2 166.3,32.6 116.6,32.6 109.2,52.6 36.3,52.6 36.3,33.6 116.1,33.6 123.7,13 36.3,13 
	36.3,0.5 20.3,0.5 20.3,180 36.3,180 36.3,112.9 90.2,112.9 83.5,131.1 166.3,131.1 166.3,110.5 91.4,110.5 98.1,92.3 36.3,92.3 
	36.3,73.3 103.2,73.3 96.2,92.2 166.3,92.2 166.3,71.6 103.9,71.6 110.7,53.2 "/>
</svg>
