<?xml version="1.0" encoding="utf-8"?>
<!-- Generator: Adobe Illustrator 21.0.0, SVG Export Plug-In . SVG Version: 6.00 Build 0)  -->
<svg version="1.1" id="Layer_1" xmlns="http://www.w3.org/2000/svg" xmlns:xlink="http://www.w3.org/1999/xlink" x="0px" y="0px"
	 width="180px" height="180px" viewBox="0 0 180 180" style="enable-background:new 0 0 180 180;" xml:space="preserve">
<style type="text/css">
	.st0{opacity:0.5;fill:#FFFFFF;}
</style>
<path class="st0" d="M164.7,149.1L74.3,172c-0.5,0.1-0.9,0.3-1.4,0.5l-0.3-0.9l-40-12.2c-9.3-0.9-13.9-7.4-13.2-14.8
	c0.6-6.4,4.7-11.4,11.6-12.3l42,11.5c0.5,0.2,1,0.4,1.6,0.4l0.6,0.2v-0.2c0.2,0,0.3,0,0.5,0l90.5-22c2.2-0.4,3.7-2.5,3.4-4.7
	c-0.4-2.2-2.6-3.6-4.8-3.3L76,135.8l-40.3-11l-3.2-1c-9.3-0.9-13.9-7.4-13.2-14.8c0.7-7.6,6.3-13.1,15.6-12.4l38.5,11.7
	c0.4,0.2,0.8,0.3,1.2,0.4l0.3,0.1v-0.1c0.3,0,0.7,0,1,0l90.5-21.2c2.2-0.4,3.7-2.5,3.4-4.7c-0.3-2.1-2.1-3.4-4.1-3.4h0.2l-37.7-5.6
	c-7,11-19.1,19.1-38.7,19.4c-13.8,0.2-23.7-3.9-30.6-10.5L29,88.1c-10.3,0.7-17.8,9.1-18.7,20c-0.7,8.1,2.4,15.5,8.3,19.8
	c-4.6,3.6-7.6,9.3-8.2,15.9c-1.1,12,6.3,22.4,18.3,23.5l44,12c0.7,0.4,1.5,0.7,2.3,0.6h0.2v-0.1c0.2,0,0.3,0,0.5,0l90.5-22.9
	c2.2-0.4,3.7-2.5,3.4-4.7C169.1,150,167,148.6,164.7,149.1z"/>
<path class="st0" d="M92.5,24.9c0-1,0.2-1.9,0.5-2.8c0.5-0.1,1-0.3,1.2-0.6c0.5-0.6,0.7-2.1,0.8-3.7c4.6-7.1,13.8-12.3,14.8-13
	c1.1-0.9-0.6-0.3-0.8-0.3c-2.6,0.5-9.4,3.9-13.9,9.7c0-0.5,0-0.9,0-1.2C95,11.3,94,5.1,87.2,3.7C81.1,2.3,80,0,80,0
	c-0.4,1.6-1.6,5.1-1.6,6.5c-0.5,4.9,0.3,7.4,1.2,9.1c0.8,1.4,2.3,3.3,4.5,4.3c2,0.9,5,1.9,7.2,2.2c-0.3,1.5-0.4,3-0.3,4.7
	C80.9,10.2,46.7,22.3,49.4,51c1.9,19.8,12,39.1,40.2,38.7C118.7,89.3,129.5,70,132,51C135.6,23.3,105.2,10.5,92.5,24.9z"/>
</svg>
