<?xml version="1.0" encoding="utf-8"?>
<!-- Generator: Adobe Illustrator 21.0.0, SVG Export Plug-In . SVG Version: 6.00 Build 0)  -->
<svg version="1.1" id="Layer_1" xmlns="http://www.w3.org/2000/svg" xmlns:xlink="http://www.w3.org/1999/xlink" x="0px" y="0px"
	 width="180px" height="180px" viewBox="0 0 180 180" style="enable-background:new 0 0 180 180;" xml:space="preserve">
<style type="text/css">
	.st0{opacity:0.5;}
	.st1{fill:#FFFFFF;}
</style>
<g class="st0">
	<path class="st1" d="M25.2,82.1c-4.7,5.8-3,14.5,3.6,18.4c14.5,8.6,34.8-4.5,36.3-6.2c0.5-0.3,1-0.6,1.5-0.9
		c-0.8,0.9-1.4,2-1.7,3.5C63,104.8,72,111.2,79,104c0,0,2.4,6,11.1,6s11.1-6,11.1-6c6.8,7.1,15.8,0.8,14.1-7.1
		c-0.4-1.5-1-2.7-1.7-3.5c0.5,0.3,1,0.6,1.5,0.9c1.5,1.7,21.6,14.7,36.3,6.2c6.6-3.9,8.1-12.6,3.6-18.4
		c19.4-7.5,20.3-59.6-24.6-43.2c-11,4-17.8,10.7-21.9,17.7c0.2-1,0.3-2,0.3-3.1c0-10.4-8.4-18.8-18.8-18.8s-18.8,8.4-18.8,18.8
		c0,0.9,0.1,1.8,0.2,2.6C67.3,49.2,60.7,42.7,50,38.8C4.8,22.5,5.9,74.6,25.2,82.1z M125,53.4c20.9-5.6,31.9,16.7,21,30.4
		c-6.3,7.9-21.1,14.3-32.1,7.5c9.3,4.2,21.6-0.3,27.1-6.5c9.6-10.9,0.2-29.7-18.2-25.2c-13.3,3.3-16.6,12-17.2,18
		c1.4-5.8,7.1-11.1,14.2-12c10.9-1.5,15.4,5.6,16,13c0.6,7.1-5.6,12.8-14.1,13.5c-2.8,0.3-5.5-0.1-7.9-0.9c-1-0.6-1.9-1.3-2.8-2.1
		c1.1,0.5,2.3,0.8,3.5,0.8c4.7,0,8.5-3.8,8.5-8.5s-3.8-8.5-8.5-8.5s-8.5,3.8-8.5,8.5c0,0.5,0.1,1,0.1,1.5c-0.2-0.3-0.3-0.6-0.5-0.9
		C105.7,81.9,101.1,59.7,125,53.4z M89.9,40.8c5.2,0,9.4,4.2,9.4,9.4s-4.2,9.4-9.4,9.4s-9.4-4.2-9.4-9.4S84.7,40.8,89.9,40.8z
		 M89.9,72.3c6,0,11.4-2.9,14.8-7.3c-2.5,8.1-2.2,15.3-1.3,17.8c1.3,4,3.5,6.2,6.9,8.5c-3.3-1-6.9,0.3-6.9,0.3s0.2-13-13.3-13
		c-13.3,0-13.3,13-13.3,13s-3.7-1.2-7.1-0.2c3.5-2.3,5.7-4.6,7.1-8.6c0.7-2.5,1-9.6-1.4-17.5C78.7,69.6,84,72.3,89.9,72.3z
		 M54.9,53.4C78.8,59.8,74.3,82,74.3,82c-0.2,0.3-0.3,0.6-0.5,0.9c0.1-0.5,0.1-1,0.1-1.5c0-4.7-3.8-8.5-8.5-8.5s-8.5,3.8-8.5,8.5
		s3.8,8.5,8.5,8.5c1.2,0,2.4-0.3,3.5-0.8c-0.9,0.8-1.8,1.5-2.8,2.1c-2.4,0.8-5,1.1-7.8,0.9c-8.5-0.8-14.7-6.4-14.1-13.5
		c0.6-7.3,5.1-14.5,16-13c7,0.9,12.8,6.2,14.2,12c-0.6-6-3.8-14.7-17.2-18C38.8,55.1,29.4,73.8,39,84.7c5.5,6.2,17.6,10.7,27,6.6
		c-11.1,6.8-25.9,0.4-32.1-7.5C23,70.1,34.1,47.7,54.9,53.4z"/>
	<path class="st1" d="M31.4,115c16,4.7,28-12.8,28-12.8s-12.7,9.8-27,6.8c-11.3-2.4-10.7-13.7-10.7-13.7S15.7,110.3,31.4,115z"/>
	<path class="st1" d="M147.6,109c-14.3,3-27.1-6.8-27.1-6.8s12,17.5,28,12.8c15.8-4.7,9.8-19.7,9.8-19.7S158.8,106.5,147.6,109z"/>
	<path class="st1" d="M67.3,48.9c0,0,2.8-17.8,22.9-17.8s22.9,17.8,22.9,17.8c6.6-11.1,19.2-14.5,19.2-14.5
		c-13.3-9-26.9-6.6-26.9-6.6c-0.7-1.6-1.3-4.3-2.2-7.5c-3.6,2.2-8.2,3.6-13.4,3.6c-5,0-9.6-1.3-13.2-3.4c-0.8,3.1-1.5,5.8-2.1,7.4
		c0,0-13.5-2.4-26.5,6.6C48.2,34.4,60.6,38,67.3,48.9z"/>
	<path class="st1" d="M159.8,102c4.1,8.8-4.3,22.5-17.1,22c-13.9-0.6-21.4-13.3-52.6-13.3S51.4,123.5,37.5,124
		c-13,0.6-21.2-13.2-17.3-22c0,0-11.3,9.8-1.3,25c5.3,8.1,10.5,11.4,16.7,12.1C38.7,168.2,62.9,180,90,180
		c27.2,0,51.2-11.8,54.3-40.7c6.2-0.6,11.4-3.9,16.7-12.1C170.9,112,159.8,102,159.8,102z M127.8,157.5c0,0-8.6-4.5-9.4-3.8
		c-0.8,0.9,2.4,10,1.7,10.3c-8.3,5.3-18.8,7.5-29.9,7.5c-10.7,0-20.9-2.3-28.9-7c-1.1-0.6,1.3-10.1,0.6-10.9
		c-0.9-0.8-9.4,3.8-9.4,3.8c-3.5-4-6.1-9-7.6-15h32.7c1.1,5.1,5.7,23.5,12.3,23.5s11.2-18.4,12.3-23.5h33
		C133.8,148.4,131.1,153.4,127.8,157.5z M136.1,137.7H44c-0.2-1.5-0.3-3-0.4-4.5l46.4-9.4l46.4,9.4
		C136.4,134.8,136.3,136.3,136.1,137.7z"/>
	<path class="st1" d="M89.9,11.8c3.6,0,6.8-2.7,7.9-6.4c-2-3.2-4.5-5.4-7.7-5.4c-3.4,0-5.9,2.4-8,5.7C83.3,9.3,86.3,11.8,89.9,11.8z
		"/>
	<path class="st1" d="M102.4,17c-0.8-2.7-1.7-5.5-2.8-8c-1.9,3.6-5.5,6-9.7,6c-4,0-7.6-2.3-9.5-5.8c-1.1,2.5-2,5.3-2.7,8
		c3.1,2.1,7.5,3.5,12.3,3.5C94.8,20.7,99.2,19.3,102.4,17z"/>
</g>
</svg>
