<?xml version="1.0" encoding="utf-8"?>
<!-- Generator: Adobe Illustrator 21.0.0, SVG Export Plug-In . SVG Version: 6.00 Build 0)  -->
<svg version="1.1" id="_x2014_ÎÓÈ_1" xmlns="http://www.w3.org/2000/svg" xmlns:xlink="http://www.w3.org/1999/xlink" x="0px"
	 y="0px" width="180px" height="180px" viewBox="0 0 180 180" style="enable-background:new 0 0 180 180;" xml:space="preserve">
<style type="text/css">
	.st0{opacity:0.5;fill:#FFFFFF;}
</style>
<path class="st0" d="M179.1,115.9l-8.6-15c-1.6-2.8-4.8-7.1-7.1-9.4l-1.1-1.1c-2.3-2.3-6.8-4.6-10.1-5.1l-4.1-0.6
	c-3.4,1.6-7.2,2.6-11.1,2.6c-4.1,0-7.9-1-11.3-2.6l-4.9,0.7c-3.2,0.5-7.7,2.7-10.1,5.1l-1.1,1.1c-2.3,2.3-5.5,6.5-7.1,9.4l-8.6,15
	c-1.6,2.8-1.1,6.7,1.1,8.5s5.8,1.3,8-1.1l9-10c2.2-2.4,4-1.7,4,1.5v3.6c0,3.3-0.3,8.6-0.6,11.8l-2.7,26.2c-0.3,3.2-1.5,8.4-2.6,11.5
	l-2,5.6c-1.1,3.1,0.7,5.6,3.9,5.6h7.7c3.3,0,6.7-2.6,7.7-5.7l7.4-23.4c0.3-1,0.6-2.3,0.9-3.6h1.8c0.3,1.3,0.5,2.6,0.9,3.6l7.4,23.4
	c1,3.1,4.5,5.7,7.7,5.7h7.7c3.3,0,5-2.5,3.9-5.6l-2-5.6c-1.1-3.1-2.3-8.2-2.6-11.5l-2.7-26.2c-0.3-3.2-0.6-8.6-0.6-11.8v-3.6
	c0-3.3,1.8-4,4-1.5l9,10c2.2,2.4,5.8,2.9,8,1.1C180.2,122.6,180.7,118.7,179.1,115.9z"/>
<circle class="st0" cx="136.9" cy="61.5" r="19.9"/>
<path class="st0" d="M82.6,118.4c-1.1-2-3.5-5.9-5.2-8.7l-5.6-9.5c-1.7-2.8-5-6.9-7.4-9.1L64.3,91c-2.4-2.2-7.1-4.4-10.3-5l-1.3-0.2
	c-3.2,1.5-6.8,2.3-10.7,2.3s-7.6-0.9-10.9-2.5L29,86c-3.2,0.5-7.8,2.8-10.3,5l-0.1,0.1c-2.4,2.2-5.8,6.3-7.4,9.1l-5.6,9.5
	c-1.7,2.8-4,6.7-5.2,8.7c-1.1,2-0.7,4.8,1.1,6.2c1.7,1.5,4.5,1.3,6.1-0.3c1.6-1.6,4.7-5,7-7.3l5.5-5.7c2.2-2.4,3.9-2.8,3.6-1
	s-1.7,5.7-3.2,8.6L14,131.2c-1.5,2.9-3.2,6.3-3.7,7.6s0.2,3,1.7,3.8s3.6,1.8,4.6,2.2s2.2,0.9,2.6,1.1c0.4,0.2,1,0.7,1.4,1.1
	c0.4,0.4,0.5,3.5,0.5,6.7l-0.1,3c-0.1,3.3-0.9,8.5-1.8,11.7l-1.6,5.7c-0.9,3.1,1.1,5.7,4.4,5.7h5.7c3.3,0,6.5-2.6,7.2-5.8l5.2-23.2
	c0-0.3,0.1-0.5,0.2-0.8h2.3c0,0.3,0.1,0.5,0.2,0.8L48,174c0.7,3.2,4,5.8,7.2,5.8h5.7c3.3,0,5.2-2.6,4.4-5.7l-1.6-5.7
	c-0.9-3.1-1.7-8.4-1.8-11.7l-0.1-3c-0.1-3.3,0.1-6.3,0.5-6.7s1-1,1.4-1.1c0.4-0.2,1.5-0.7,2.6-1.1c1-0.4,3.1-1.4,4.6-2.2
	s2.2-2.6,1.7-3.8c-0.5-1.3-2.2-4.7-3.7-7.6l-6.5-12.3c-1.5-2.9-3-6.7-3.2-8.6c-0.2-1.8,1.4-1.4,3.6,1l5.5,5.7c2.2,2.4,5.4,5.7,7,7.3
	c1.6,1.6,4.3,1.8,6.1,0.3C83.3,123.2,83.8,120.3,82.6,118.4z"/>
<path class="st0" d="M78.4,54.8c-0.3-0.5-1.1-1.1-1.8-1.5l-2.5-1.2c-0.7-0.4-2-0.8-2.8-1l-2.6-0.5c-0.8-0.2-2.1-0.3-2.9-0.3h-2.1
	c-0.8,0-2.1,0.2-3,0.3l-2.3,0.5c-3.6-5.2-9.6-8.6-16.4-8.6S29.3,46,25.7,51.2l-2.3-0.5c-0.8-0.1-2.1-0.3-3-0.3h-2.1
	c-0.8,0-2.1,0.1-2.9,0.3l-2.7,0.5c-0.8,0.2-2.1,0.6-2.8,1l-2.5,1.2c-0.7,0.4-1.5,1-1.8,1.5s-0.5,1.2-0.5,1.7S5.5,58,6,58.7l5,7.3
	c0.5,0.7,1.2,1.3,1.6,1.5c0.5,0.1,1.2,0.1,1.7-0.1s1.4-0.9,1.9-1.5l0.6-0.7c0.5-0.6,1.4-1.6,2.1-2.1l0.6-0.5
	c0.6-0.5,1.7-1.3,2.5-1.6h0.1c0,0.5-0.1,1.1-0.1,1.7c0,11,8.9,19.9,19.9,19.9s19.9-8.9,19.9-19.9c0-0.5,0-1.1-0.1-1.7h0.1
	c0.7,0.4,1.8,1.1,2.5,1.6L65,63c0.6,0.5,1.5,1.5,2.1,2.1l0.6,0.7c0.5,0.6,1.4,1.3,1.9,1.5s1.3,0.2,1.7,0.1c0.5-0.1,1.2-0.8,1.6-1.5
	l5-7.3c0.5-0.7,0.9-1.6,0.9-2.1C78.9,56.1,78.6,55.3,78.4,54.8z"/>
</svg>
