<?xml version="1.0" encoding="utf-8"?>
<!-- Generator: Adobe Illustrator 21.0.0, SVG Export Plug-In . SVG Version: 6.00 Build 0)  -->
<svg version="1.1" id="Layer_1" xmlns="http://www.w3.org/2000/svg" xmlns:xlink="http://www.w3.org/1999/xlink" x="0px" y="0px"
	 width="180px" height="180px" viewBox="0 0 180 180" style="enable-background:new 0 0 180 180;" xml:space="preserve">
<style type="text/css">
	.st0{opacity:0.5;}
	.st1{fill:#FFFFFF;}
</style>
<g class="st0">
	<path class="st1" d="M166,150.2H14L0.5,172.7h179L166,150.2z M112.1,171.4H67.9c-4.2,0-3.3-0.7-2.7-1.4l1.9-2.3
		c0.5-0.6,2.2-1.1,5.7-1.1H107c3.5,0,5.2,0.5,5.7,1.1l1.9,2.3C115.4,170.8,116.2,171.4,112.1,171.4z M159.7,58.4H20.3
		c-3.8,0-6,2.3-6,6.3v83.6h151.4V64.7C165.7,60.7,163.5,58.4,159.7,58.4z M90,60.5c0.7,0,1.2,0.5,1.2,1.2s-0.5,1.2-1.2,1.2
		s-1.2-0.5-1.2-1.2S89.3,60.5,90,60.5z M158.8,144H21.2V66.6h137.5L158.8,144L158.8,144z M179.5,174.4c0,0.7-0.2,1.3-0.5,1.9
		c0,0-0.1,0.1-0.1,0.2c0,0.1-0.1,0.1-0.1,0.2c0,0-0.1,0.1-0.1,0.2c0,0-0.1,0.1-0.1,0.2c0,0-0.1,0.1-0.2,0.2l0,0
		c-1.5,1.6-4,2.7-7.1,2.7H8.8c-3.1,0-5.7-1.1-7.1-2.7l0,0c0,0-0.1-0.1-0.2-0.2c0,0-0.1-0.1-0.1-0.2c0,0-0.1-0.1-0.1-0.2
		c0,0-0.1-0.1-0.1-0.2c0,0-0.1-0.1-0.1-0.2c-0.3-0.6-0.5-1.2-0.5-1.9c0-0.1,0-0.2,0-0.2l0,0c0-0.1,0-0.2,0-0.3h178.9
		c0,0.1,0,0.2,0,0.3l0,0C179.5,174.3,179.5,174.4,179.5,174.4z"/>
</g>
<g class="st0">
	<path class="st1" d="M75.5,96.5l-1.2,4.1l-1.3,1.2c0.1,2.6,1.1,15.4,0.9,18l1.3,1.2l1.2,4.1H63.1l1.2-4.1l1.3-1.2
		c-0.2-2.6,0.7-15.3,0.9-18l-1.3-1.2L64,96.5H75.5L75.5,96.5z M93.1,122.5c-0.4,1.7-1.9,3-3.5,3s-3.1-1.2-3.5-3H93.1L93.1,122.5z
		 M89.7,95.9c1.4,0,2.5,1.2,2.5,2.7c0,0.7-0.2,1.2-0.6,1.7c0.5,0.1,1,0.2,1.5,0.4c6.9,2.4,2.7,8.2,5.4,13.5c1.5,3.1,2.8,2.9,2.8,3.8
		v2.2c0,0.6-0.5,1.1-1,1.1H79c-0.6,0-1-0.5-1-1.1V118c0-1,1.3-0.7,2.8-3.8c2.6-5.4-1.5-11.1,5.4-13.5c0.5-0.2,1-0.3,1.5-0.4
		c-0.4-0.5-0.5-1.1-0.5-1.7C87.2,97.2,88.3,95.9,89.7,95.9L89.7,95.9z M89.7,97.6c-0.5,0-0.9,0.4-0.9,1s0.4,1,0.9,1s0.9-0.4,0.9-1
		C90.6,98.1,90.2,97.6,89.7,97.6L89.7,97.6z M82.4,118c1.9-2.4,2.5-5.1,2.6-8.3c0-1.2,0-3,0.4-4.2c1.1-3.2,6.4-3.2,8.9-2.3l0,0
		c-2.6-1.7-9.1-1.8-10.3,1.7c-0.4,1.2-0.4,2.9-0.4,4.2c0,3.4-0.8,6.6-3.1,8.9L82.4,118L82.4,118z M116,96.5l-1.2,4.1l-1.3,1.2
		c0.1,2.6,1.1,15.4,0.9,18l1.3,1.2l1.2,4.1h-13.2l1.2-4.1l1.3-1.2c-0.2-2.6,0.7-15.3,0.9-18l-1.3-1.2l-1.2-4.1H116L116,96.5z
		 M120.8,89.2v3.7H59.2v-3.7h-2v-3.7C68.1,80.3,79.1,75.1,90,70c10.9,5.2,21.9,10.3,32.8,15.5v3.7H120.8L120.8,89.2z M58.6,128.4
		h62.8v4.5h3v5.6H55.6v-5.6h3V128.4z"/>
</g>
</svg>
