<?xml version="1.0" encoding="utf-8"?>
<!-- Generator: Adobe Illustrator 21.0.0, SVG Export Plug-In . SVG Version: 6.00 Build 0)  -->
<svg version="1.1" id="_x2014_ÎÓÈ_x5F_1" xmlns="http://www.w3.org/2000/svg" xmlns:xlink="http://www.w3.org/1999/xlink"
	 x="0px" y="0px" width="180px" height="180px" viewBox="0 0 180 180" style="enable-background:new 0 0 180 180;"
	 xml:space="preserve">
<style type="text/css">
	.st0{opacity:0.5;}
	.st1{fill:#FFFFFF;}
</style>
<g class="st0">
	<path class="st1" d="M107.8,51.8L107.8,51.8c2.9,0,5.2-2.3,5.2-5.2l0,0c0-2.9-2.3-5.2-5.2-5.2l0,0c-2.9,0-5.2,2.3-5.2,5.2l0,0
		C102.7,49.5,105,51.8,107.8,51.8z"/>
	<path class="st1" d="M95.9,51.8L95.9,51.8c2.9,0,5.2-2.3,5.2-5.2v-5.2c0-2.9-2.3-5.2-5.2-5.2l0,0c-2.9,0-5.2,2.3-5.2,5.2v5.2
		C90.8,49.5,93.1,51.8,95.9,51.8z"/>
	<path class="st1" d="M84.1,58.5L84.1,58.5c2.9,0,5.2-2.3,5.2-5.2V41.5c0-2.9-2.3-5.2-5.2-5.2l0,0c-2.9,0-5.2,2.3-5.2,5.2v11.9
		C78.9,56.2,81.2,58.5,84.1,58.5z"/>
	<path class="st1" d="M72.2,58.5L72.2,58.5c2.9,0,5.2-2.3,5.2-5.2v-8.1c0-2.9-2.3-5.2-5.2-5.2l0,0c-2.9,0-5.2,2.3-5.2,5.2v8.1
		C67,56.2,69.3,58.5,72.2,58.5z"/>
	<path class="st1" d="M101.5,134V89.2l0,0c1.7-1.2,4.2-3.1,6.4-4.7c3.2-2.4,5.1-6.2,5.1-10.3V58.5c0-2.9-2.3-5.2-5.2-5.2h-12
		c-2.8,0-5,2.3-5,5v0.1c0,2.9,2.3,5.2,5.2,5.2c3.2,0,6.6,0,6.6,0c-0.6,3.1-3.2,5.4-6.4,5.4H77.3c0-5-4.1-9.1-9.1-9.1l0,0
		c-0.7,0-1.3,0.6-1.3,1.3V74c0,4,1.9,7.8,5.1,10.3c2.2,1.7,4.7,3.5,6.4,4.7v45H58.3c-1.6,0-2.9,1.3-2.9,2.9v17.2
		c0,1.6,1.3,2.9,2.9,2.9h20.2v20.2c0,1.6,1.3,2.9,2.9,2.9h17.3c1.6,0,2.9-1.3,2.9-2.9V157h20.2c1.6,0,2.9-1.3,2.9-2.9v-17.3
		c0-1.6-1.3-2.9-2.9-2.9L101.5,134L101.5,134z"/>
	<path class="st1" d="M90,0C55.3,0,27.3,28.1,27.3,62.7c0,28.9,19.5,53.2,46,60.5V98.8c-4.2-1.9-8-4.6-11.4-8
		c-7.5-7.5-11.6-17.5-11.6-28.1s4.1-20.6,11.6-28.1S79.4,23,90,23s20.6,4.1,28.1,11.6s11.6,17.5,11.6,28.1s-4.1,20.6-11.6,28.1
		c-3.4,3.4-7.2,6-11.4,8v24.4c26.5-7.3,46-31.6,46-60.5C152.7,28.1,124.7,0,90,0z"/>
</g>
</svg>
