<?xml version="1.0" encoding="utf-8"?>
<!-- Generator: Adobe Illustrator 21.0.0, SVG Export Plug-In . SVG Version: 6.00 Build 0)  -->
<svg version="1.1" id="Õ_xBA__x2264__x201E__x5F_1"
	 xmlns="http://www.w3.org/2000/svg" xmlns:xlink="http://www.w3.org/1999/xlink" x="0px" y="0px" width="180px" height="180px"
	 viewBox="0 0 180 180" style="enable-background:new 0 0 180 180;" xml:space="preserve">
<style type="text/css">
	.st0{opacity:0.5;}
	.st1{fill:#FFFFFF;}
</style>
<g class="st0">
	<path class="st1" d="M63.9,87.2c0.8-11.6,3.8-18.3,8.8-19.6c1-0.2,2.3-0.4,3.5-0.4c1.5,0,3,0.2,4.3,0.8c0.3-1.7,0.5-3.2,0.5-4.2
		C82,53,82.8,42.1,83.3,41c1.5-3.4,4.8-17.7,4.3-29.3C87.1,1,76.8-1.7,74.5,1s-8.8,22.8-12.1,34.8c-0.8,2.5-9.8,25.3-16.4,52.9
		c-3,13.1-7.3,25.3-9.3,32.9c-1.3,4.2-3.5,7.6-5.8,9.1c-6.5,4-20.2,13.7-20.2,13.7l29,35.6c9.3-5.7,21.9-13.3,24.7-14.8
		c4-2.1,18.1-9.7,21.4-38.6c1.8-14.1-0.8-25.1-0.5-32.5c0-0.8,0-1.7,0.3-2.5c0,0,0,0,0-0.2c0.3-1.3,0.3-2.3,0.5-3.4
		c0-0.2,0-0.4,0-0.6c0-1.1,0-2.1,0-3c0-0.2,0-0.2,0-0.4c0-0.8-0.3-1.7-0.3-2.5c0-0.2,0-0.2,0-0.4c-0.3-0.8-0.3-1.7-0.8-2.5v-0.2
		c-0.5-1.5-1.3-3-2.3-4l0,0c-1-1.1-2-1.9-3-2.5l0,0C78.5,71.2,77.3,71,76,71c-0.8,0-1.5,0-2,0.2c-3.8,1.1-5.3,11.6-5.8,16.2
		c-0.3,4.2-2,8.4-2.8,12.7c-1,5.1-1.3,8.6-1.8,10.5c-0.3,1.3-1.5,1.5-2.5,1.3s-1.8-0.8-1.8-1.9c0-4.2,2.3-12.7,2.8-14.5
		C63.2,92.1,63.9,88.9,63.9,87.2z"/>
	<path class="st1" d="M149.1,130.7c-2.3-1.5-4.5-4.6-5.5-9.1c-2-7.6-6.3-20-9.3-32.9c-6.5-27.6-15.6-50.4-16.4-52.9
		c-3.3-12-9.8-32-12.1-34.8c-2.3-2.7-12.6,0-13.1,10.8c-0.5,11.4,3,25.9,4.3,29.3c0.5,1.1,1.3,12.2,2.3,22.8c0,1.1,0.3,2.5,0.5,4.2
		c1.3-0.4,2.8-0.8,4.3-0.8c1.3,0,2.3,0.2,3.5,0.4c5,1.3,7.8,7.8,8.8,19.6c0,1.7,1,4.8,1.8,8.4c0.5,1.9,2.8,10.3,2.8,14.5
		c0,0.8-1,1.7-1.8,1.9c-1,0.2-2.3,0-2.5-1.3c-0.5-2.1-0.8-5.5-1.8-10.5c-0.8-4.2-2.5-8.4-2.8-12.7c-0.3-4.8-1.8-15.4-5.8-16.2
		c-0.8-0.2-1.5-0.2-2-0.2c-1.3,0-2.5,0.4-3.8,0.8l0,0c-1.3,0.6-2.3,1.5-3,2.5l0,0c-0.8,1.1-1.5,2.5-2.3,4v0.2
		c-0.3,0.8-0.5,1.7-0.8,2.5c0,0.2,0,0.2,0,0.4c-0.5,0.4-0.5,1.3-0.5,2.1c0,0.2,0,0.2,0,0.4c0,1.1,0,1.9,0,3c0,0.2,0,0.4,0,0.6
		c0,1.1,0.3,2.3,0.5,3.4l0,0c0.3,0.8,0.3,1.7,0.3,2.5c0.3,7.4-2,18.3-0.5,32.5c3.3,28.9,17.4,36.5,21.4,38.6
		c2.8,1.5,15.4,9.1,24.7,14.8l29-35.6C169.2,144.2,155.4,134.7,149.1,130.7z"/>
</g>
</svg>
