<?xml version="1.0" encoding="utf-8"?>
<!-- Generator: Adobe Illustrator 21.0.0, SVG Export Plug-In . SVG Version: 6.00 Build 0)  -->
<svg version="1.1" id="Layer_1" xmlns="http://www.w3.org/2000/svg" xmlns:xlink="http://www.w3.org/1999/xlink" x="0px" y="0px"
	 width="180px" height="180px" viewBox="0 0 180 180" style="enable-background:new 0 0 180 180;" xml:space="preserve">
<style type="text/css">
	.st0{opacity:0.5;}
	.st1{fill:#FFFFFF;}
</style>
<g id="Layer_1_1_" class="st0">
	<path class="st1" d="M65.1,32.7H115l-0.8,7.1h-2.6V69h-43V39.8H66L65.1,32.7L65.1,32.7z M69.7,152h17.8v-23.3H69.7V152L69.7,152z
		 M92.6,152h17.8v-23.3H92.6V152L92.6,152z M-0.2,159.3V152h5.5V93.9H2.7l-0.8-7.1h47.6v18.4h3.2V79.9h-2.2l-0.8-7.1
		c27,0,53.9,0,80.9,0l-0.8,7.1h-2.4v25.3h3.2V86.8h47.6l-0.8,7.1H175V152h5.3v7.1C120.2,159.3,60,159.3-0.2,159.3L-0.2,159.3z
		 M88.4,52.3c0,1,0.8,1.4,1.6,1.4h10.1c1.4,0,1.4-2.2,0-2.2h-8.5v-6.9c0-1.8-3.4-1.8-3.4,0v7.7H88.4z M90,40
		c-6.7,0-12.2,5.5-12.2,12.2S83.3,64.3,90,64.3s12.2-5.5,12.2-12.2C102.4,45.4,96.9,40,90,40L90,40z M94.7,1.5
		c4.3-1.4,9.7-2.2,15.2-0.6c4.1,1.2,7.5,3,12.4,0.2v16.8c-4.9,3.2-9.5,4.1-14.6,1.2c-4.3-2.4-9.3-2.2-13,0.6V1.5L94.7,1.5z
		 M87.6,29.4v-28h4.9v28H87.6L87.6,29.4z M155.9,122.6v18.6h11.8v-18.6H155.9L155.9,122.6z M137.8,122.6v18.6h11.8v-18.6H137.8
		L137.8,122.6z M155.9,95.9v18.6h11.8V95.9H155.9L155.9,95.9z M137.8,95.9v18.6h11.8V95.9H137.8L137.8,95.9z M30.6,122.6v18.6h11.8
		v-18.6H30.6L30.6,122.6z M12.6,122.6v18.6h11.6v-18.6H12.6L12.6,122.6z M30.6,95.9v18.6h11.8V95.9H30.6L30.6,95.9z M12.6,95.9v18.6
		h11.6V95.9H12.6L12.6,95.9z M59.6,169.9h61v-7.1h-61V169.9L59.6,169.9z M55.8,180h68.5v-7.1H55.8V180L55.8,180z M61.4,83.5v31h14
		v-31H61.4L61.4,83.5z M83.1,83.5v31h14v-31H83.1L83.1,83.5z M104.8,83.5v31h14v-31H104.8z"/>
</g>
</svg>
