<?xml version="1.0" encoding="utf-8"?>
<!-- Generator: Adobe Illustrator 21.0.0, SVG Export Plug-In . SVG Version: 6.00 Build 0)  -->
<svg version="1.1" id="Layer_1" xmlns="http://www.w3.org/2000/svg" xmlns:xlink="http://www.w3.org/1999/xlink" x="0px" y="0px"
	 width="180px" height="180px" viewBox="0 0 180 180" style="enable-background:new 0 0 180 180;" xml:space="preserve">
<style type="text/css">
	.st0{opacity:0.5;}
	.st1{fill:#FFFFFF;}
</style>
<g id="Layer_1_1_" class="st0">
	<path class="st1" d="M0.8,173H4l1.5-9.5c0.4-1.9,2-3.5,3.7-4.1l11.3-3.7c1.5-0.4,2.8-1.7,2.8-3.2c-1.7-1.9-2-4.1-2.6-6.3l-0.7-0.4
		c-0.9-2.8-1.3-5.2-1.3-7.6l0.6-0.4c-0.2-2-0.2-5.8,0.7-7.6c3.7-6.9,16-6.9,19.7,0c0.9,1.9,1.1,5.6,0.9,7.6l0.6,0.4
		c0.2,2.2-0.2,4.8-1.3,7.6l-0.7,0.4c-0.6,2-0.9,4.5-2.6,6.3c0,1.3,1.1,2.6,2.2,3l11.7,3.9c1.9,0.6,3.3,2.2,3.7,4.1l1.5,9.5h7.1
		l1.5-9.5c0.4-1.9,2-3.5,3.7-4.1l11.3-3.7c1.5-0.4,2.8-1.7,2.8-3.2c-1.7-1.9-2-4.1-2.6-6.3l-0.7-0.4c-0.9-2.8-1.3-5.2-1.3-7.6
		l0.6-0.4c-0.2-2,0-5.8,0.9-7.6c3.7-6.9,16-6.9,19.7,0c0.9,1.9,1.1,5.6,0.9,7.6l0.6,0.4c0.2,2.2-0.2,4.8-1.3,7.6l-0.7,0.4
		c-0.6,2.2-0.9,4.5-2.8,6.3c0,1.3,1.1,2.6,2.2,3l11.7,3.9c1.9,0.6,3.3,2.2,3.7,4.1l1.5,9.5h7.2l1.5-9.5c0.4-1.9,2-3.5,3.7-4.1
		l11.3-3.7c1.5-0.4,2.8-1.7,2.8-3.2c-1.7-1.9-2-4.1-2.6-6.3l-0.7-0.4c-0.9-2.8-1.3-5.2-1.3-7.6l0.6-0.4c-0.4-2-0.4-5.8,0.7-7.6
		c3.7-6.9,16-6.9,19.7,0c0.9,1.9,1.1,5.6,0.9,7.6l0.6,0.4c0.2,2.2-0.2,4.8-1.3,7.6l-0.7,0.4c-0.6,2-0.9,4.5-2.6,6.3
		c0,1.3,1.1,2.6,2.2,3l11.7,3.9c1.9,0.6,3.3,2.2,3.7,4.1l1.5,9.5h5.9v6.3H0.8V173L0.8,173z M101.5,127.6c3.3,5.4,2.6,15.1,0.6,20.6
		h32c-2.2-5.9-3-16,0.9-21.4l-6.7-2.2c-1.3-0.4-2.2-1.9-2.2-3c1.7-1.9,2-4.1,2.6-6.3l0.7-0.4c0.9-2.8,1.3-5.2,1.3-7.6l-0.6-0.4
		c0.2-2,0-5.8-0.9-7.6c-3.7-6.9-16-6.9-19.7,0c-0.9,1.9-1.1,5.6-0.9,7.6l-0.6,0.4c-0.2,2.2,0.2,4.8,1.3,7.6l0.7,0.4
		c0.6,2,0.9,4.5,2.6,6.3c0,1.5-1.3,2.8-2.8,3.2L101.5,127.6L101.5,127.6z M42.8,127.6c3.3,5.4,2.6,15.1,0.6,20.6h31.8
		c-2.2-5.9-3-16,0.9-21.4l-6.5-2.2c-1.3-0.4-2.2-1.9-2.2-3c1.7-1.9,2-4.1,2.6-6.3l0.7-0.4c0.9-2.8,1.3-5.2,1.3-7.6l-0.6-0.4
		c0.2-2,0-5.8-0.9-7.6c-3.7-6.9-16-6.9-19.7,0c-0.9,1.9-1.1,5.6-0.9,7.6l-0.6,0.4c-0.2,2.2,0.2,4.8,1.3,7.6l0.7,0.4
		c0.6,2,0.9,4.5,2.6,6.3c0,1.5-1.3,2.8-2.8,3.2L42.8,127.6L42.8,127.6z M34.2,91V28c37.2,0,74.3,0,111.5,0v63H91.3l-1.1-6.7
		c-0.4-1.7-1.9-3.2-3.3-3.7l-10.6-3.5c-1.1-0.4-2-1.7-2-2.8c1.5-1.7,1.9-3.7,2.4-5.8l0.7-0.4c0.9-2.6,1.3-4.8,1.1-6.9l-0.6-0.4
		c0.2-1.9,0-5.2-0.7-6.9c-3.3-6.3-14.5-6.3-18,0c-0.9,1.7-0.9,5-0.7,6.9l-0.6,0.4c-0.2,2,0.2,4.3,1.1,6.9l0.7,0.4
		c0.6,1.9,0.9,4.1,2.4,5.8c0,1.5-1.1,2.4-2.4,3l-10.2,3.3c-1.7,0.6-3,2-3.3,3.7L45,91H34.2z"/>
</g>
</svg>
