<svg id="Layer_1" data-name="Layer 1" xmlns="http://www.w3.org/2000/svg" width="90.33" height="37.33" viewBox="0 0 90.33 37.33"><defs><style>.cls-1{fill:#fff;}</style></defs><title>Funding Bugs for SVG</title><path class="cls-1" d="M14.13,15.18h0c-1-1.42-5.42-7.17-6.27-9.64C8.34,5,9.34,4.47,11.37,4.47s3,.53,3.49,1a22,22,0,0,1-2.95,5.05l2.54,3.51a17.1,17.1,0,0,0,2.4-4.7c.6-2.45-.49-3.87-1.91-6.2a3,3,0,0,0-.69-.69,5,5,0,0,0-2.87-.72,5,5,0,0,0-2.87.72,3,3,0,0,0-.69.69C6.38,5.52,5.28,6.94,5.89,9.39a19.48,19.48,0,0,0,2.94,5.48h0l2.53,3.54h0l-.13-.18h0l6.59,9.27,2.5-3.59Zm-4.6.64-.11-.15.11.15ZM11.08,18,9.53,15.81,11.08,18Z"/><path class="cls-1" d="M8.31,15.6,2.37,23.95,4.9,27.48l5.92-8.33C9.9,17.86,9,16.65,8.31,15.6Z"/><path class="cls-1" d="M7.79,3.18C6.37,5.52,5.27,6.94,5.87,9.39a19.48,19.48,0,0,0,2.94,5.48l2.41,3.35,6.59,9.27,2.5-3.59-6.21-8.72h0C13.1,13.76,8.69,8,7.84,5.54A3.8,3.8,0,0,1,7.79,3.18ZM9.52,15.81l-.11-.15.11.15ZM11.07,18,9.52,15.81,11.07,18Z"/><path class="cls-1" d="M14.85,5.53a22,22,0,0,1-2.95,5.05l2.54,3.51a17.1,17.1,0,0,0,2.4-4.7c.6-2.45-.49-3.87-1.91-6.2A3.39,3.39,0,0,1,14.85,5.53Z"/><path class="cls-1" d="M8.3,15.61,2.36,24,4.9,27.49l5.92-8.33C9.9,17.88,9,16.66,8.3,15.61Z"/><polygon class="cls-1" points="28.88 11.49 24.35 11.49 24.35 8.22 28.85 8.22 28.85 6.84 24.35 6.84 24.35 3.67 28.88 3.67 28.88 2.28 22.84 2.28 22.84 12.87 28.88 12.87 28.88 11.49"/><path class="cls-1" d="M37.69,12.87V5.07h-1.4V6.16a3.63,3.63,0,0,0-2.85-1.29,4,4,0,0,0-4,4.11,4,4,0,0,0,4,4.11,3.53,3.53,0,0,0,2.85-1.29v1.08Zm-4.11-1.12A2.73,2.73,0,0,1,30.79,9a2.72,2.72,0,0,1,2.77-2.79A2.68,2.68,0,0,1,36.1,7.85,2.46,2.46,0,0,1,36.32,9a2.68,2.68,0,0,1-.24,1.11A2.58,2.58,0,0,1,33.58,11.75Z"/><path class="cls-1" d="M42.75,13.08a4,4,0,0,0,3.89-2.85l.07-.24H45.27l0,.12a2.63,2.63,0,0,1-2.52,1.64A2.7,2.7,0,0,1,40,9a2.87,2.87,0,0,1,.78-2,2.76,2.76,0,0,1,4.49.92l0,.12h1.43l-.07-.24A4.13,4.13,0,0,0,38.58,9,4.05,4.05,0,0,0,42.75,13.08Z"/><path class="cls-1" d="M51.35,4.86h-.09a3.15,3.15,0,0,0-2.37,1V2.28h-1.4V12.87h1.4V8.46a2.33,2.33,0,0,1,.55-1.6,2.13,2.13,0,0,1,1.67-.67,2.06,2.06,0,0,1,1.72.69,3,3,0,0,1,.5,1.85v4.15H54.7V8.68A4.29,4.29,0,0,0,54,6,3.08,3.08,0,0,0,51.35,4.86Z"/><polygon class="cls-1" points="57.51 4.5 61.17 12.87 62.15 12.87 65.8 4.51 65.77 12.87 67.22 12.87 67.22 2.28 65.31 2.28 61.67 10.58 58.01 2.28 56.09 2.28 56.09 12.87 57.53 12.87 57.51 4.5"/><rect class="cls-1" x="68.67" y="5.07" width="1.4" height="7.8"/><rect class="cls-1" x="68.67" y="2.28" width="1.4" height="1.8"/><path class="cls-1" d="M72.79,8.49A2.07,2.07,0,0,1,75,6.19h.06c1.77,0,2.14,1.35,2.14,2.48v4.2H78.6V8.46c0-2.26-1.2-3.57-3.3-3.6h-.09a3.13,3.13,0,0,0-2.47,1c0-.22,0-.44,0-.65V5.07H71.39v7.8h1.4Z"/><path class="cls-1" d="M83.49,13.08a3.53,3.53,0,0,0,2.88-1.3v1.09h1.35V2.28h-1.4V6.11a3.67,3.67,0,0,0-2.85-1.25,4,4,0,0,0-4,4.09A4,4,0,0,0,83.49,13.08ZM80.85,9a2.79,2.79,0,0,1,4.75-2,2.66,2.66,0,0,1,.8,2,2.71,2.71,0,0,1-.78,2,2.77,2.77,0,0,1-2,.81A2.72,2.72,0,0,1,80.85,9Z"/><polygon class="cls-1" points="29.53 25.21 25.21 15.42 23.02 15.42 23.02 27.79 24.64 27.79 24.61 17.84 28.97 27.79 30.07 27.79 34.41 17.84 34.38 27.79 36.02 27.79 36.02 15.42 33.83 15.42 29.53 25.21"/><path class="cls-1" d="M41.71,15.42,36.55,27.79H38.4l1.38-3.37h5.34l1.39,3.37h1.86L43.26,15.42Zm2.85,7.52H40.33l2.11-5.32Z"/><polygon class="cls-1" points="46.81 16.98 49.76 16.98 49.76 27.79 51.48 27.79 51.48 16.98 54.45 16.98 54.45 15.42 46.81 15.42 46.81 16.98"/><polygon class="cls-1" points="54.82 16.98 57.77 16.98 57.77 27.79 59.49 27.79 59.49 16.98 62.46 16.98 62.46 15.42 54.82 15.42 54.82 16.98"/><polygon class="cls-1" points="63.05 27.79 70.07 27.79 70.07 26.23 64.75 26.23 64.75 22.33 70.04 22.33 70.04 20.77 64.75 20.77 64.75 16.98 70.07 16.98 70.07 15.42 63.05 15.42 63.05 27.79"/><path class="cls-1" d="M79.06,21.91a4,4,0,0,0,.75-2.46,4,4,0,0,0-1.72-3.38,6.42,6.42,0,0,0-3.47-.64H71.29V27.79H73V17h1.69a4.18,4.18,0,0,1,2.33.41,2.65,2.65,0,0,1,1.1,2.16,2.74,2.74,0,0,1-.85,2.07,4,4,0,0,1-2.53.57H74l3.63,5.61h1.91l-3-4.53A3.32,3.32,0,0,0,79.06,21.91Z"/><path class="cls-1" d="M85,20.88l-.25-.09c-1.69-.57-2.71-.92-2.7-2.2A2,2,0,0,1,86,18.53l0,.15h1.69l0-.2a3.42,3.42,0,0,0-3.59-3.27,4,4,0,0,0-2.83,1.11,3.24,3.24,0,0,0-.92,2.38c0,2.4,2.23,3.07,3.19,3.36l.22.07c1.34.43,2.49.8,2.49,2.26A2.16,2.16,0,0,1,84,26.49a2.24,2.24,0,0,1-2.21-2.25l0-.17H80.11v.19A3.72,3.72,0,0,0,84.07,28,3.68,3.68,0,0,0,88,24.3C88,22,86.19,21.33,85,20.88Z"/><path class="cls-1" d="M5.93,33.93a1.49,1.49,0,0,1-1.48,1.64c-1,0-1.58-.8-1.58-2.34s.57-2.34,1.58-2.34a1.52,1.52,0,0,1,1.48,1.72H5.33c0-.65-.24-1.14-.83-1.14s-1,.64-1,1.8S3.92,35,4.5,35s.8-.55.83-1.07Z"/><path class="cls-1" d="M8.69,35.49H8.2v-.54a.83.83,0,0,1-.81.61c-.65,0-1.1-.65-1.1-1.75s.41-1.76,1.1-1.76a.8.8,0,0,1,.81.63v-.55h.49ZM6.82,33.81c0,.75.24,1.22.67,1.22a.55.55,0,0,0,.5-.3,1.67,1.67,0,0,0,.16-.93A1.66,1.66,0,0,0,8,32.88a.56.56,0,0,0-.5-.3c-.43,0-.67.47-.67,1.22Z"/><path class="cls-1" d="M9.38,31h.54v4.5H9.38Z"/><path class="cls-1" d="M10.63,31h.54v.62h-.54Zm0,1.14h.54v3.36h-.54Z"/><path class="cls-1" d="M12,32.63h-.35v-.51H12v-.21a1,1,0,0,1,1.08-1v.47c-.27,0-.54.11-.54.59v.16H13v.51H12.5v2.85H12Z"/><path class="cls-1" d="M13.18,33.8c0-1,.4-1.75,1.3-1.75s1.29.79,1.29,1.75-.4,1.75-1.29,1.75-1.3-.79-1.3-1.75Zm.57,0c0,.86.26,1.25.74,1.25s.72-.39.72-1.25-.26-1.25-.74-1.25-.72.39-.72,1.25Z"/><path class="cls-1" d="M16.28,32.12h.49c0,.26,0,.44,0,.62a.83.83,0,0,1,.88-.69v.64a.38.38,0,0,0-.22-.06c-.29,0-.61.32-.61,1v1.85h-.54Z"/><path class="cls-1" d="M18,32.12h.47c0,.16,0,.32,0,.49a.87.87,0,0,1,.87-.57c.56,0,.93.32.93,1.09v2.34h-.54V33.32c0-.31,0-.74-.54-.74s-.66.27-.66.83v2.07H18Z"/><path class="cls-1" d="M21,31h.54v.62H21Zm0,1.14h.54v3.36H21Z"/><path class="cls-1" d="M24.45,35.49H24v-.54a.83.83,0,0,1-.81.61c-.65,0-1.1-.65-1.1-1.75s.41-1.76,1.1-1.76a.8.8,0,0,1,.81.63v-.55h.49Zm-1.87-1.67c0,.75.24,1.22.67,1.22a.55.55,0,0,0,.5-.3,1.67,1.67,0,0,0,.16-.93,1.66,1.66,0,0,0-.16-.93.56.56,0,0,0-.5-.3c-.43,0-.67.47-.67,1.22Z"/><path class="cls-1" d="M25.41,31H26l-.54,1.27H25Z"/><path class="cls-1" d="M27.56,33c0-.37-.19-.52-.48-.52a.4.4,0,0,0-.43.43c0,.35.34.44.74.57a1,1,0,0,1,.79,1,1,1,0,0,1-1.06,1A1,1,0,0,1,26,34.47h.53a.55.55,0,0,0,.58.6.47.47,0,0,0,.49-.51c0-.37-.32-.49-.74-.63a1,1,0,0,1-.78-1,1,1,0,0,1,2,.07Z"/><path class="cls-1" d="M30.21,35.49V31h.91L32,34.53,32.92,31h.91v4.5h-.54v-3.9l-1,3.9h-.5l-1-3.9v3.9Z"/><path class="cls-1" d="M34.84,34c0,.58.23,1.08.72,1.08a.65.65,0,0,0,.64-.58h.53a1.33,1.33,0,0,1-.44.84,1.16,1.16,0,0,1-.73.24c-.91,0-1.29-.85-1.29-1.75s.46-1.76,1.28-1.76a1,1,0,0,1,.93.49A2.56,2.56,0,0,1,36.77,34Zm1.39-.46c0-.54-.21-1-.68-1s-.69.41-.71,1Z"/><path class="cls-1" d="M37.29,32.12h.47c0,.16,0,.32,0,.49a.87.87,0,0,1,.87-.57c.56,0,.93.32.93,1.09v2.34H39V33.32c0-.31,0-.74-.54-.74s-.66.27-.66.83v2.07h-.54Z"/><path class="cls-1" d="M40.34,32.63h-.43v-.51h.43V31.2h.54v.93h.43v.51h-.43v2.85h-.54Z"/><path class="cls-1" d="M43.9,35.49h-.49v-.54a.83.83,0,0,1-.81.61c-.65,0-1.1-.65-1.1-1.75s.41-1.76,1.1-1.76a.8.8,0,0,1,.81.63v-.55h.49ZM42,33.81c0,.75.24,1.22.67,1.22a.55.55,0,0,0,.5-.3,1.67,1.67,0,0,0,.16-.93,1.66,1.66,0,0,0-.16-.93.56.56,0,0,0-.5-.3c-.43,0-.67.47-.67,1.22Z"/><path class="cls-1" d="M44.59,31h.54v4.5h-.54Z"/><path class="cls-1" d="M47.39,35.49V31H48v1.91h1.44V31H50v4.5h-.61v-2H48v2Z"/><path class="cls-1" d="M51.15,34c0,.58.23,1.08.72,1.08a.65.65,0,0,0,.64-.58H53a1.33,1.33,0,0,1-.44.84,1.16,1.16,0,0,1-.73.24c-.91,0-1.29-.85-1.29-1.75s.46-1.76,1.28-1.76a1,1,0,0,1,.93.49A2.56,2.56,0,0,1,53.07,34Zm1.39-.46c0-.54-.21-1-.68-1s-.69.41-.71,1Z"/><path class="cls-1" d="M55.84,35.49h-.49v-.54a.83.83,0,0,1-.81.61c-.65,0-1.1-.65-1.1-1.75s.41-1.76,1.1-1.76a.8.8,0,0,1,.81.63v-.55h.49ZM54,33.81c0,.75.24,1.22.67,1.22a.55.55,0,0,0,.5-.3,1.67,1.67,0,0,0,.16-.93,1.66,1.66,0,0,0-.16-.93.56.56,0,0,0-.5-.3c-.43,0-.67.47-.67,1.22Z"/><path class="cls-1" d="M56.53,31h.54v4.5h-.54Z"/><path class="cls-1" d="M57.9,32.63h-.43v-.51h.43V31.2h.54v.93h.43v.51h-.43v2.85H57.9Z"/><path class="cls-1" d="M59.25,31h.54v1.11c0,.15,0,.3,0,.47a.77.77,0,0,1,.8-.51.89.89,0,0,1,.71.29,1.26,1.26,0,0,1,.23.86v2.28H61V33.36a1,1,0,0,0-.12-.59.49.49,0,0,0-.41-.19.59.59,0,0,0-.49.21,1,1,0,0,0-.18.67v2h-.54Z"/><path class="cls-1" d="M63.73,35.49V31h.91l.93,3.55L66.43,31h.91v4.5h-.54v-3.9l-1,3.9h-.5l-1-3.9v3.9Z"/><path class="cls-1" d="M67.88,33.8c0-1,.4-1.75,1.3-1.75s1.29.79,1.29,1.75-.4,1.75-1.29,1.75-1.3-.79-1.3-1.75Zm.57,0c0,.86.26,1.25.74,1.25s.72-.39.72-1.25-.26-1.25-.74-1.25-.72.39-.72,1.25Z"/><path class="cls-1" d="M72.06,35.49h-.51l-1-3.36h.55l.7,2.59.67-2.59H73Z"/><path class="cls-1" d="M73.67,34c0,.58.23,1.08.72,1.08a.65.65,0,0,0,.64-.58h.53a1.33,1.33,0,0,1-.44.84,1.16,1.16,0,0,1-.73.24c-.91,0-1.29-.85-1.29-1.75s.46-1.76,1.28-1.76a1,1,0,0,1,.93.49A2.56,2.56,0,0,1,75.6,34Zm1.39-.46c0-.54-.21-1-.68-1s-.69.41-.71,1Z"/><path class="cls-1" d="M76.13,32.12h.51c0,.16,0,.32,0,.5a.77.77,0,0,1,.8-.57.8.8,0,0,1,.55.2.76.76,0,0,1,.17.34.85.85,0,0,1,.26-.36,1,1,0,0,1,.6-.18.9.9,0,0,1,.78.4,1.67,1.67,0,0,1,.18.85v2.19h-.54V33.37a1.38,1.38,0,0,0-.07-.52.45.45,0,0,0-.44-.27.52.52,0,0,0-.46.21,1,1,0,0,0-.15.58v2.11h-.54V33.38a1.36,1.36,0,0,0-.07-.53.44.44,0,0,0-.43-.27.55.55,0,0,0-.46.2,1,1,0,0,0-.15.6v2.1h-.54Z"/><path class="cls-1" d="M81.05,34c0,.58.23,1.08.72,1.08a.65.65,0,0,0,.64-.58h.53a1.33,1.33,0,0,1-.44.84,1.16,1.16,0,0,1-.73.24c-.91,0-1.29-.85-1.29-1.75s.46-1.76,1.28-1.76a1,1,0,0,1,.93.49A2.56,2.56,0,0,1,83,34Zm1.39-.46c0-.54-.21-1-.68-1s-.69.41-.71,1Z"/><path class="cls-1" d="M83.5,32.12H84c0,.16,0,.32,0,.49a.87.87,0,0,1,.87-.57c.56,0,.93.32.93,1.09v2.34h-.54V33.32c0-.31,0-.74-.54-.74s-.66.27-.66.83v2.07H83.5Z"/><path class="cls-1" d="M86.54,32.63h-.43v-.51h.43V31.2h.54v.93h.43v.51h-.43v2.85h-.54Z"/></svg>