<svg xmlns="http://www.w3.org/2000/svg" id="Layer_1" width="177px" height="101px" data-name="Layer 1" viewBox="0 0 177.8 101.63">
	<defs>
		<style>.cls-1{fill:#fff;}</style></defs>
		<title>EMM Resource Center Logo</title>
		<path class="cls-1" d="M20.7,15.38c-3,4.85-5.23,7.81-4,12.89.94,3.81,4.27,8.81,6.11,11.37l5,7L41.53,65.85l5.2-7.45L33.84,40.29h0c-2.09-2.95-11.26-14.9-13-20A7.88,7.88,0,0,1,20.7,15.38Zm3.6,26.24-.22-.31.22.31Zm3.22,4.53-3.22-4.53,3.22,4.53Z" transform="translate(-9.43 -12.43)"/>
		<path class="cls-1" d="M41.55,65.85l5.2-7.45L33.86,40.29h0c-2.09-2.95-11.26-14.9-13-20,1-1.09,3.07-2.22,7.29-2.22s6.22,1.1,7.25,2.18c-1.37,3.91-4.66,8.54-6.12,10.5h0c1.47-2,4.75-6.59,6.11-10.48a7,7,0,0,0,.16-4.85c3,4.85,5.23,7.81,4,12.89v0c1.25-5.08-1-8-4-12.89a6.32,6.32,0,0,0-1.44-1.44,10.3,10.3,0,0,0-6-1.5,10.31,10.31,0,0,0-6,1.5,6.3,6.3,0,0,0-1.44,1.44c-3,4.85-5.23,7.81-4,12.89.94,3.81,4.27,8.81,6.11,11.37h0c2,2.75,3.69,5.16,5.26,7.34v0l-.26-.37h0ZM24.32,41.62l-.22-.31.22.31Zm3.22,4.53-3.22-4.53,3.22,4.53Z" transform="translate(-9.43 -12.43)"/>
		<path class="cls-1" d="M35.37,20.25c-1.37,3.91-4.66,8.54-6.12,10.5L34.52,38c1.84-2.72,4.21-6.64,5-9.76,1.25-5.08-1-8-4-12.89A7,7,0,0,1,35.37,20.25Z" transform="translate(-9.43 -12.43)"/>
		<path class="cls-1" d="M21.77,41.2,9.43,58.54l5.26,7.34L27,48.59C25.09,45.9,23.29,43.38,21.77,41.2Z" transform="translate(-9.43 -12.43)"/><polygon class="cls-1" points="55.06 20.2 45.66 20.2 45.66 13.41 55.01 13.41 55.01 10.54 45.66 10.54 45.66 3.95 55.06 3.95 55.06 1.08 42.53 1.08 42.53 23.08 55.06 23.08 55.06 20.2"/><path class="cls-1" d="M82.81,35.51V19.31h-2.9v2.25A7.54,7.54,0,0,0,74,18.88a8.27,8.27,0,0,0-8.39,8.53A8.29,8.29,0,0,0,74,35.94a7.33,7.33,0,0,0,5.92-2.68v2.25Zm-8.53-2.33a5.79,5.79,0,0,1-.06-11.58,5.57,5.57,0,0,1,5.3,3.47,5.1,5.1,0,0,1,.45,2.3,5.57,5.57,0,0,1-.49,2.3A5.35,5.35,0,0,1,74.27,33.18Z" transform="translate(-9.43 -12.43)"/><path class="cls-1" d="M93.33,35.94A8.39,8.39,0,0,0,101.41,30l.15-.5h-3l-.09.26a5.46,5.46,0,0,1-5.22,3.41,5.61,5.61,0,0,1-5.69-5.78,6,6,0,0,1,1.63-4.16,5.73,5.73,0,0,1,9.32,1.92l.09.25h3l-.14-.5a8.56,8.56,0,1,0-8.09,11Z" transform="translate(-9.43 -12.43)"/><path class="cls-1" d="M111.19,18.88H111a6.54,6.54,0,0,0-4.93,2V13.52h-2.9v22h2.9V26.35A4.85,4.85,0,0,1,107.2,23a4.43,4.43,0,0,1,3.46-1.39,4.27,4.27,0,0,1,3.56,1.43,6.19,6.19,0,0,1,1,3.83v8.62h2.87v-8.7a8.91,8.91,0,0,0-1.55-5.66A6.4,6.4,0,0,0,111.19,18.88Z" transform="translate(-9.43 -12.43)"/><polygon class="cls-1" points="114.54 5.69 122.15 23.08 124.18 23.08 131.76 5.7 131.7 23.08 134.72 23.08 134.72 1.08 130.75 1.08 123.18 18.31 115.57 1.08 111.61 1.08 111.61 23.08 114.59 23.08 114.54 5.69"/><rect class="cls-1" x="137.73" y="6.87" width="2.9" height="16.2"/><rect class="cls-1" x="137.73" y="1.08" width="2.9" height="3.73"/><path class="cls-1" d="M155.72,26.41c0-3,1.69-4.75,4.64-4.77h.12c3.67,0,4.44,2.8,4.44,5.14v8.73h2.87V26.35c0-4.7-2.5-7.42-6.86-7.47h-.19A6.5,6.5,0,0,0,155.6,21c0-.47,0-.91,0-1.35v-.39h-2.78v16.2h2.9Z" transform="translate(-9.43 -12.43)"/><path class="cls-1" d="M177.94,35.94a7.33,7.33,0,0,0,6-2.7v2.27h2.81v-22h-2.9v8a7.62,7.62,0,0,0-5.92-2.59,8.23,8.23,0,0,0-8.33,8.5A8.28,8.28,0,0,0,177.94,35.94Zm-5.49-8.56a5.8,5.8,0,0,1,9.86-4.11A5.53,5.53,0,0,1,184,27.34a5.63,5.63,0,0,1-1.61,4.16,5.75,5.75,0,0,1-4.11,1.69A5.65,5.65,0,0,1,172.45,27.38Z" transform="translate(-9.43 -12.43)"/><polygon class="cls-1" points="56.42 48.7 47.45 28.37 42.9 28.37 42.9 54.06 46.27 54.06 46.21 33.39 55.26 54.06 57.55 54.06 66.56 33.4 66.5 54.06 69.91 54.06 69.91 28.37 65.36 28.37 56.42 48.7"/><path class="cls-1" d="M91.17,40.8,80.44,66.5h3.84l2.86-7H98.24l2.9,7H105L94.38,40.8Zm5.91,15.62H88.3l4.38-11Z" transform="translate(-9.43 -12.43)"/><polygon class="cls-1" points="92.33 31.61 98.45 31.61 98.45 54.06 102.03 54.06 102.03 31.61 108.19 31.61 108.19 28.37 92.33 28.37 92.33 31.61"/><polygon class="cls-1" points="108.96 31.61 115.09 31.61 115.09 54.06 118.66 54.06 118.66 31.61 124.82 31.61 124.82 28.37 108.96 28.37 108.96 31.61"/><polygon class="cls-1" points="126.05 54.06 140.63 54.06 140.63 50.83 129.59 50.83 129.59 42.72 140.56 42.72 140.56 39.48 129.59 39.48 129.59 31.61 140.63 31.61 140.63 28.37 126.05 28.37 126.05 54.06"/><path class="cls-1" d="M168.73,54.29a8.87,8.87,0,0,0-2-12.14c-1.51-1-3.6-1.34-7.21-1.34h-6.89V66.5h3.57V44h3.52c2.34,0,3.74.13,4.84.85a5.5,5.5,0,0,1,2.28,4.49,5.7,5.7,0,0,1-1.76,4.29c-1.27,1.18-3.77,1.18-5.26,1.18h-1.52l7.54,11.65h4l-6.25-9.4A6.9,6.9,0,0,0,168.73,54.29Z" transform="translate(-9.43 -12.43)"/><path class="cls-1" d="M181.1,52.14l-.51-.18c-3.51-1.19-5.63-1.91-5.6-4.57a3.9,3.9,0,0,1,4.16-3.89c3,0,3.73,2.14,4,3.76l.06.32h3.51l0-.42c-.43-5-4.29-6.79-7.46-6.79a8.25,8.25,0,0,0-5.88,2.31,6.73,6.73,0,0,0-1.91,4.95c0,5,4.63,6.37,6.63,7l.45.14c2.78.89,5.18,1.67,5.18,4.7a4.49,4.49,0,0,1-4.59,4.36c-.42,0-4.15-.13-4.6-4.67l0-.35h-3.55v.4c.16,4.63,3.46,7.75,8.2,7.75s8.1-3.24,8.1-7.7C187.23,54.5,183.54,53.08,181.1,52.14Z" transform="translate(-9.43 -12.43)"/><path class="cls-1" d="M16.85,79.26c0,1.77-1,3.4-3.07,3.4S10.49,81,10.49,77.8s1.18-4.86,3.29-4.86,3.08,1.67,3.07,3.57H15.58c0-1.35-.51-2.38-1.72-2.38-1.4,0-2.1,1.33-2.1,3.73s.9,3.6,2.1,3.6,1.67-1.14,1.72-2.21Z" transform="translate(-9.43 -12.43)"/><path class="cls-1" d="M22.57,82.48h-1V81.37a1.72,1.72,0,0,1-1.68,1.26c-1.34,0-2.29-1.34-2.29-3.63s.85-3.65,2.29-3.65a1.67,1.67,0,0,1,1.68,1.3V75.5h1ZM18.69,79c0,1.57.49,2.53,1.39,2.53a1.14,1.14,0,0,0,1-.62,5.58,5.58,0,0,0,0-3.84,1.17,1.17,0,0,0-1-.62c-.9,0-1.39,1-1.39,2.54Z" transform="translate(-9.43 -12.43)"/><path class="cls-1" d="M24,73.12h1.11v9.36H24Z" transform="translate(-9.43 -12.43)"/><path class="cls-1" d="M26.61,73.12h1.11v1.29H26.61Zm0,2.38h1.11v7H26.61Z" transform="translate(-9.43 -12.43)"/><path class="cls-1" d="M29.36,76.55h-.73V75.5h.73v-.44A2,2,0,0,1,31.6,73v1c-.56,0-1.13.23-1.13,1.23v.34H31.6v1.05H30.48v5.93H29.36Z" transform="translate(-9.43 -12.43)"/><path class="cls-1" d="M31.91,79c0-2,.84-3.63,2.69-3.63S37.28,77,37.28,79s-.84,3.64-2.68,3.64S31.91,81,31.91,79Zm1.18,0c0,1.78.53,2.59,1.53,2.59s1.5-.81,1.5-2.6-.53-2.59-1.53-2.59-1.5.81-1.5,2.59Z" transform="translate(-9.43 -12.43)"/><path class="cls-1" d="M38.33,75.5h1c0,.54,0,.91,0,1.29a1.73,1.73,0,0,1,1.83-1.44v1.33a.78.78,0,0,0-.46-.13c-.59,0-1.28.66-1.28,2.09v3.84H38.33Z" transform="translate(-9.43 -12.43)"/><path class="cls-1" d="M41.91,75.5h1c0,.34,0,.66,0,1a1.8,1.8,0,0,1,1.81-1.18c1.16,0,1.93.67,1.93,2.26v4.87H45.52V78c0-.65-.1-1.53-1.13-1.53-.82,0-1.37.56-1.37,1.73v4.3H41.91Z" transform="translate(-9.43 -12.43)"/><path class="cls-1" d="M48.05,73.12h1.11v1.29H48.05Zm0,2.38h1.11v7H48.05Z" transform="translate(-9.43 -12.43)"/><path class="cls-1" d="M55.3,82.48h-1V81.37a1.72,1.72,0,0,1-1.68,1.26c-1.34,0-2.29-1.34-2.29-3.63s.85-3.65,2.29-3.65a1.67,1.67,0,0,1,1.68,1.3V75.5h1ZM51.42,79c0,1.57.49,2.53,1.39,2.53a1.14,1.14,0,0,0,1-.62,5.58,5.58,0,0,0,0-3.84,1.17,1.17,0,0,0-1-.62c-.9,0-1.39,1-1.39,2.54Z" transform="translate(-9.43 -12.43)"/><path class="cls-1" d="M57.31,73.12h1.2L57.4,75.75h-1Z" transform="translate(-9.43 -12.43)"/><path class="cls-1" d="M61.77,77.4c0-.77-.39-1.07-1-1.07a.84.84,0,0,0-.88.89c0,.72.71.92,1.53,1.18A2,2,0,0,1,63,80.49a2.1,2.1,0,0,1-2.2,2.14,2.15,2.15,0,0,1-2.29-2.26h1.1a1.15,1.15,0,0,0,1.2,1.25,1,1,0,0,0,1-1c0-.77-.66-1-1.54-1.3a2,2,0,0,1-1.62-2,2.08,2.08,0,0,1,4.15.15Z" transform="translate(-9.43 -12.43)"/><path class="cls-1" d="M67.28,82.48V73.12h1.88l1.92,7.37,1.81-7.37h1.88v9.36H73.65v-8.1l-2,8.1h-1l-2.16-8.1v8.1Z" transform="translate(-9.43 -12.43)"/><path class="cls-1" d="M76.9,79.36c0,1.2.47,2.24,1.5,2.24a1.35,1.35,0,0,0,1.33-1.21h1.1a2.77,2.77,0,0,1-.91,1.74,2.41,2.41,0,0,1-1.52.51c-1.9,0-2.68-1.77-2.68-3.63,0-2.12,1-3.65,2.66-3.65a2.15,2.15,0,0,1,1.92,1,5.31,5.31,0,0,1,.59,3Zm2.88-1c0-1.11-.44-2.11-1.42-2.11s-1.44.85-1.47,2.11Z" transform="translate(-9.43 -12.43)"/><path class="cls-1" d="M82,75.5h1c0,.34,0,.66,0,1a1.8,1.8,0,0,1,1.81-1.18c1.16,0,1.93.67,1.93,2.26v4.87H85.58V78c0-.65-.1-1.53-1.13-1.53-.82,0-1.37.56-1.37,1.73v4.3H82Z" transform="translate(-9.43 -12.43)"/><path class="cls-1" d="M88.31,76.55h-.88V75.5h.88V73.58h1.13V75.5h.89v1.05h-.89v5.93H88.31Z" transform="translate(-9.43 -12.43)"/><path class="cls-1" d="M95.7,82.48h-1V81.37A1.72,1.72,0,0,1,93,82.63c-1.34,0-2.29-1.34-2.29-3.63s.85-3.65,2.29-3.65a1.67,1.67,0,0,1,1.68,1.3V75.5h1ZM91.82,79c0,1.57.49,2.53,1.39,2.53a1.14,1.14,0,0,0,1-.62,5.58,5.58,0,0,0,0-3.84,1.17,1.17,0,0,0-1-.62c-.9,0-1.39,1-1.39,2.54Z" transform="translate(-9.43 -12.43)"/><path class="cls-1" d="M97.14,73.12h1.11v9.36H97.14Z" transform="translate(-9.43 -12.43)"/><path class="cls-1" d="M103,82.48V73.12h1.25v4h3v-4h1.26v9.36h-1.26V78.23h-3v4.25Z" transform="translate(-9.43 -12.43)"/><path class="cls-1" d="M110.76,79.36c0,1.2.47,2.24,1.5,2.24a1.35,1.35,0,0,0,1.33-1.21h1.1a2.77,2.77,0,0,1-.91,1.74,2.41,2.41,0,0,1-1.52.51c-1.9,0-2.68-1.77-2.68-3.63,0-2.12,1-3.65,2.66-3.65a2.15,2.15,0,0,1,1.92,1,5.31,5.31,0,0,1,.59,3Zm2.88-1c0-1.11-.44-2.11-1.42-2.11s-1.44.85-1.47,2.11Z" transform="translate(-9.43 -12.43)"/><path class="cls-1" d="M120.52,82.48h-1V81.37a1.72,1.72,0,0,1-1.68,1.26c-1.34,0-2.29-1.34-2.29-3.63s.85-3.65,2.29-3.65a1.67,1.67,0,0,1,1.68,1.3V75.5h1ZM116.64,79c0,1.57.49,2.53,1.39,2.53a1.14,1.14,0,0,0,1-.62,5.58,5.58,0,0,0,0-3.84,1.17,1.17,0,0,0-1-.62c-.9,0-1.39,1-1.39,2.54Z" transform="translate(-9.43 -12.43)"/><path class="cls-1" d="M121.95,73.12h1.11v9.36h-1.11Z" transform="translate(-9.43 -12.43)"/><path class="cls-1" d="M124.79,76.55h-.88V75.5h.88V73.58h1.13V75.5h.89v1.05h-.89v5.93h-1.13Z" transform="translate(-9.43 -12.43)"/><path class="cls-1" d="M127.58,73.12h1.11v2.3c0,.32,0,.62,0,1a1.59,1.59,0,0,1,1.67-1,1.84,1.84,0,0,1,1.47.61,2.61,2.61,0,0,1,.48,1.78v4.74h-1.11V78.07a2.14,2.14,0,0,0-.25-1.23,1,1,0,0,0-.86-.39,1.22,1.22,0,0,0-1,.44,2,2,0,0,0-.37,1.39v4.2h-1.11Z" transform="translate(-9.43 -12.43)"/><path class="cls-1" d="M136.89,82.48V73.12h1.88l1.92,7.37,1.81-7.37h1.88v9.36h-1.13v-8.1l-2,8.1h-1L138,74.37v8.1Z" transform="translate(-9.43 -12.43)"/><path class="cls-1" d="M145.51,79c0-2,.84-3.63,2.69-3.63S150.88,77,150.88,79s-.84,3.64-2.68,3.64S145.51,81,145.51,79Zm1.18,0c0,1.78.53,2.59,1.53,2.59s1.5-.81,1.5-2.6-.53-2.59-1.53-2.59-1.5.81-1.5,2.59Z" transform="translate(-9.43 -12.43)"/><path class="cls-1" d="M154.2,82.48h-1.06l-2.07-7h1.14l1.45,5.39L155,75.5h1.13Z" transform="translate(-9.43 -12.43)"/><path class="cls-1" d="M157.55,79.36c0,1.2.47,2.24,1.5,2.24a1.35,1.35,0,0,0,1.33-1.21h1.1a2.77,2.77,0,0,1-.91,1.74,2.41,2.41,0,0,1-1.52.51c-1.9,0-2.68-1.77-2.68-3.63,0-2.12,1-3.65,2.66-3.65a2.15,2.15,0,0,1,1.92,1,5.31,5.31,0,0,1,.59,3Zm2.88-1c0-1.11-.44-2.11-1.42-2.11s-1.44.85-1.47,2.11Z" transform="translate(-9.43 -12.43)"/><path class="cls-1" d="M162.65,75.5h1c0,.34,0,.67,0,1a1.59,1.59,0,0,1,1.66-1.19,1.65,1.65,0,0,1,1.15.42,1.57,1.57,0,0,1,.35.71,1.76,1.76,0,0,1,.54-.75,2.15,2.15,0,0,1,1.24-.38,1.86,1.86,0,0,1,1.62.82,3.46,3.46,0,0,1,.38,1.77v4.54h-1.13v-4.4a2.87,2.87,0,0,0-.14-1.07.93.93,0,0,0-.91-.56,1.08,1.08,0,0,0-.95.43,2.08,2.08,0,0,0-.32,1.21v4.39h-1.11V78.1a2.82,2.82,0,0,0-.15-1.1.91.91,0,0,0-.9-.56,1.15,1.15,0,0,0-.95.42,2,2,0,0,0-.32,1.25v4.36h-1.11Z" transform="translate(-9.43 -12.43)"/><path class="cls-1" d="M172.87,79.36c0,1.2.47,2.24,1.5,2.24a1.35,1.35,0,0,0,1.33-1.21h1.1a2.77,2.77,0,0,1-.91,1.74,2.41,2.41,0,0,1-1.52.51c-1.9,0-2.68-1.77-2.68-3.63,0-2.12,1-3.65,2.66-3.65a2.15,2.15,0,0,1,1.92,1,5.31,5.31,0,0,1,.59,3Zm2.88-1c0-1.11-.44-2.11-1.42-2.11s-1.44.85-1.47,2.11Z" transform="translate(-9.43 -12.43)"/><path class="cls-1" d="M178,75.5h1c0,.34,0,.66,0,1a1.8,1.8,0,0,1,1.81-1.18c1.16,0,1.93.67,1.93,2.26v4.87h-1.11V78c0-.65-.1-1.53-1.13-1.53-.82,0-1.37.56-1.37,1.73v4.3H178Z" transform="translate(-9.43 -12.43)"/><path class="cls-1" d="M184.28,76.55h-.88V75.5h.88V73.58h1.13V75.5h.89v1.05h-.89v5.93h-1.13Z" transform="translate(-9.43 -12.43)"/><path class="cls-1" d="M54.61,99a3,3,0,1,0,2.78,3A2.89,2.89,0,0,0,54.61,99Z" transform="translate(-9.43 -12.43)"/><path class="cls-1" d="M78.7,99.23h-1v2.85h.93c1.54,0,1.72-1,1.72-1.47C80.39,99.69,79.71,99.23,78.7,99.23Z" transform="translate(-9.43 -12.43)"/><path class="cls-1" d="M22.37,99.23h-1v2.85h.93c1.54,0,1.72-1,1.72-1.47C24.06,99.69,23.38,99.23,22.37,99.23Z" transform="translate(-9.43 -12.43)"/><path class="cls-1" d="M185.84,91.73a2.16,2.16,0,0,0-1.79-1H12.56a2.16,2.16,0,0,0-2.16,2.16v19a2.16,2.16,0,0,0,2.16,2.16H184a2.16,2.16,0,0,0,2.16-2.16v-19A2.15,2.15,0,0,0,185.84,91.73Zm-162,15.44-2.37-3.31h0v3.31h-2.5V96.94h3.24c1.8,0,2.49.22,3.16.73a3.55,3.55,0,0,1,1.26,2.79A3.11,3.11,0,0,1,24,103.69l2.78,3.49Zm11.94-7.94H32.57v1.59h3.09v2.3H32.57v1.76h3.18v2.3H30.07V96.94h5.69Zm7,8.14c-3,0-3.69-1.94-3.69-3.25v-.33h2.6c0,1.19.73,1.4,1.07,1.4a1,1,0,0,0,1-1c0-.68-.43-.84-2-1.51-.72-.29-2.51-1-2.51-2.93s1.87-3,3.58-3a3.65,3.65,0,0,1,2.77,1.16,3.09,3.09,0,0,1,.68,2H43.62c-.06-.35-.14-1-.94-1a.85.85,0,0,0-.9.8c0,.61.28.73,2.12,1.56s2.39,1.74,2.39,2.93C46.29,105.73,45.43,107.37,42.72,107.37Zm11.87,0a5.28,5.28,0,0,1-5.38-5.19,5.78,5.78,0,0,1,.4-2.19,5.39,5.39,0,1,1,5,7.38Zm16.71-4.25a3.91,3.91,0,0,1-1,3.14,3.83,3.83,0,0,1-2.86,1.11,4.12,4.12,0,0,1-2.95-1.09,3.91,3.91,0,0,1-1-3.16V96.94H66v6.19c0,.69,0,2,1.33,2s1.3-1.13,1.3-2V96.94h2.62Zm8.85,4.06-2.37-3.31h0v3.31h-2.5V96.94h3.24c1.8,0,2.49.22,3.16.73a3.55,3.55,0,0,1,1.26,2.79,3.11,3.11,0,0,1-2.55,3.22l2.78,3.49Zm11-2.1a2.73,2.73,0,0,0,2.46-1.73h2.74a5.25,5.25,0,0,1-5.18,4,5.31,5.31,0,1,1,0-10.63,5.24,5.24,0,0,1,5.2,4.08H93.64A2.65,2.65,0,0,0,91.17,99a2.83,2.83,0,0,0-2.74,3A2.87,2.87,0,0,0,91.18,105.08Zm14.3-5.84H102.3v1.59h3.09v2.3H102.3v1.76h3.18v2.3H99.8V96.94h5.69Zm14.87,5.84a2.73,2.73,0,0,0,2.46-1.73h2.74a5.25,5.25,0,0,1-5.18,4,5.31,5.31,0,1,1,0-10.63,5.24,5.24,0,0,1,5.2,4.08h-2.74A2.65,2.65,0,0,0,120.34,99a2.83,2.83,0,0,0-2.74,3A2.87,2.87,0,0,0,120.35,105.08Zm14.3-5.84h-3.18v1.59h3.09v2.3h-3.09v1.76h3.18v2.3H129V96.94h5.69Zm12.47,7.94h-2.27l-3.9-6.23h0l.07,6.21h-2.5V96.94h2.26l4,6.43,0,0-.11-6.41h2.5Zm9.66-7.94h-2v7.94h-2.62V99.23h-2v-2.3h6.64Zm8.68,0h-3.18v1.59h3.09v2.3h-3.09v1.76h3.18v2.3h-5.69V96.94h5.69Zm8.73,7.94-2.37-3.31h0v3.31h-2.5V96.94h3.24c1.8,0,2.49.22,3.16.73a3.55,3.55,0,0,1,1.26,2.79,3.11,3.11,0,0,1-2.55,3.22l2.78,3.49Z" transform="translate(-9.43 -12.43)"/><path class="cls-1" d="M172.75,99.23h-1v2.85h.93c1.54,0,1.72-1,1.72-1.47C174.44,99.69,173.76,99.23,172.75,99.23Z" transform="translate(-9.43 -12.43)"/></svg>