<svg id="Layer_1" data-name="Layer 1" xmlns="http://www.w3.org/2000/svg" width="40" height="40" viewBox="0 0 40 40"><defs><style>.cls-1{fill:#54565b;}</style></defs><title>Instagram icon</title><path class="cls-1" d="M.28,26.49v-13a2.62,2.62,0,0,0,.06-.37A21.06,21.06,0,0,1,.83,8.6a10.06,10.06,0,0,1,6-7.18,15.07,15.07,0,0,1,5.45-1c.41,0,.82-.06,1.23-.09h13a2.62,2.62,0,0,0,.37.06A21.06,21.06,0,0,1,31.4.83a10.06,10.06,0,0,1,7.18,6,15.08,15.08,0,0,1,1,5.45c0,.41.06.82.09,1.23v13a2.61,2.61,0,0,0-.06.37,21,21,0,0,1-.49,4.53,10.06,10.06,0,0,1-6,7.19,15.08,15.08,0,0,1-5.45,1c-.41,0-.82.06-1.23.09h-13a2.61,2.61,0,0,0-.37-.06,21,21,0,0,1-4.53-.49,10.06,10.06,0,0,1-7.19-6,15.07,15.07,0,0,1-1-5.45C.36,27.31.31,26.9.28,26.49ZM36.19,20h-.06c0-1.64,0-3.29,0-4.93s-.1-3.1-.25-4.64a7,7,0,0,0-1.66-4,7.22,7.22,0,0,0-5.26-2.4c-2.31-.14-4.63-.18-7-.2s-4.61,0-6.92,0c-1.55,0-3.1.1-4.64.25a7,7,0,0,0-4,1.66,7.22,7.22,0,0,0-2.4,5.26c-.14,2.31-.18,4.63-.2,7s0,4.61,0,6.92c0,1.55.1,3.1.25,4.64a7,7,0,0,0,1.66,4,7.22,7.22,0,0,0,5.26,2.4c2.31.14,4.63.18,7,.2s4.62,0,6.92,0a39.49,39.49,0,0,0,5.1-.34,6.43,6.43,0,0,0,5.58-5A12.78,12.78,0,0,0,36,28C36.12,25.31,36.14,22.66,36.19,20Z"/><path class="cls-1" d="M30.13,20A10.13,10.13,0,1,1,20,9.87,10.13,10.13,0,0,1,30.13,20ZM20,26.56A6.56,6.56,0,1,0,13.44,20,6.57,6.57,0,0,0,20,26.56Z"/><path class="cls-1" d="M30.5,7.1a2.38,2.38,0,1,1,0,4.76,2.38,2.38,0,0,1,0-4.76Z"/></svg>