<?xml version="1.0" encoding="utf-8"?>
<!-- Generator: Adobe Illustrator 21.0.0, SVG Export Plug-In . SVG Version: 6.00 Build 0)  -->
<svg version="1.1" id="Layer_1" xmlns="http://www.w3.org/2000/svg" xmlns:xlink="http://www.w3.org/1999/xlink" x="0px" y="0px" width="140px" height="81px" viewBox="0 0 613.6 356" style="enable-background:new 0 0 613.6 356;" xml:space="preserve">
<style type="text/css">
	.st0{fill:#94C947;}
	.st1{fill:#C8E1A1;}
	.st2{fill:#646E7B;}
	.st3{fill:#A6ADB4;}
	.st4{fill:#FFFFFF;}
</style>
<title>18167-03 CalMHSA17 EMM Resource Center Logo</title>
<g>
	<path class="st0" d="M39.8,12C29.5,28.7,21.8,38.8,26,56.3c3.2,13.1,14.7,30.3,21,39.1l17.2,24.1l47.2,66.1l17.9-25.6L85,97.7l0,0
		c-7.2-10.1-38.7-51.2-44.7-68.8C38.3,23.5,38.1,17.5,39.8,12z M52.2,102.4l-0.8-1.1L52.2,102.4z M63.2,117.9l-11.1-15.6L63.2,117.9
		z"/>
	<path class="st0" d="M111.5,185.5l17.9-25.6L85.1,97.7l0,0c-7.2-10.1-38.7-51.2-44.7-68.8c3.4-3.7,10.6-7.6,25.1-7.6
		s21.4,3.8,24.9,7.5c-4.7,13.4-16,29.4-21,36.1l0,0c5.1-6.9,16.3-22.7,21-36c2.2-5.3,2.4-11.2,0.6-16.7c10.3,16.7,18,26.9,13.8,44.3
		l0,0c4.3-17.5-3.4-27.5-13.8-44.3c-1.3-2-3-3.7-4.9-5.1c-6.2-3.8-13.4-5.6-20.6-5.2C58.1,1.4,50.9,3.2,44.7,7c-1.9,1.4-3.6,3-5,5
		C29.5,28.7,21.8,38.8,26,56.3c3.2,13.1,14.7,30.3,21,39.1l0,0c6.9,9.5,12.7,17.7,18.1,25.2l0,0l-0.9-1.3l0,0L111.5,185.5z
		 M52.3,102.4l-0.7-1.2l0.8,1.1L52.3,102.4z M63.3,117.9l-11.1-15.6L63.3,117.9z"/>
	<path class="st1" d="M90.3,28.7c-4.7,13.4-16,29.4-21,36.1l18.1,25.1c6.3-9.4,14.5-22.8,17.2-33.6c4.3-17.5-3.4-27.5-13.8-44.3
		C92.6,17.5,92.4,23.4,90.3,28.7z"/>
	<path class="st1" d="M43.5,100.8L1.1,160.4l18.1,25.2l42.3-59.4C55.1,117,48.7,108.3,43.5,100.8z"/>
	<polygon class="st0" points="190.4,71.3 158.1,71.3 158.1,48 190.2,48 190.2,38.1 158.1,38.1 158.1,15.5 190.4,15.5 190.4,5.6 
		147.3,5.6 147.3,81.2 190.4,81.2 	"/>
	<path class="st0" d="M253.3,81.2V25.5h-10v7.7c-5-6-12.5-9.4-20.4-9.2c-15.7-0.2-28.6,12.3-28.9,28c0,0.4,0,0.9,0,1.3
		c-0.5,15.7,11.9,28.9,27.7,29.3c0.4,0,0.8,0,1.2,0c7.8,0.3,15.4-3.1,20.4-9.2v7.7H253.3z M224,73.2c-10.7,0.3-19.7-8.2-19.9-19
		c0-0.3,0-0.6,0-0.9c-0.3-10.7,8.2-19.7,18.9-19.9c0.3,0,0.6,0,0.9,0c8-0.2,15.2,4.6,18.2,11.9c1.1,2.5,1.7,5.2,1.5,7.9
		c0,2.7-0.6,5.4-1.7,7.9C239.2,68.6,232,73.5,224,73.2L224,73.2z"/>
	<path class="st0" d="M289.5,82.7c12.7,0.1,24-8.2,27.8-20.4l0.5-1.7h-10.3l-0.3,0.9c-2.9,7.3-10.1,12-17.9,11.7
		c-10.7,0.2-19.4-8.4-19.6-19c0-0.3,0-0.6,0-0.9c-0.1-5.3,1.8-10.4,5.4-14.3c7.8-7.6,20.2-7.5,27.9,0.2c1.8,1.8,3.2,4,4.2,6.4
		l0.3,0.9h10.3l-0.5-1.7c-4.8-15.6-21.3-24.3-36.8-19.5c-12.3,3.8-20.7,15.2-20.8,28c-0.2,16,12.6,29.1,28.6,29.3
		C288.7,82.7,289.1,82.7,289.5,82.7z"/>
	<path class="st0" d="M350.9,24h-0.7c-6.4-0.2-12.5,2.3-16.9,6.9V5.6h-10.1v75.6h10V49.7c-0.2-4.2,1.2-8.3,3.9-11.4
		c3.1-3.2,7.5-4.9,12-4.6c4.6-0.4,9.2,1.4,12.2,4.9c2.6,3.9,3.8,8.5,3.4,13.2v29.6h10V51.4c0.5-6.9-1.4-13.8-5.3-19.5
		C364.9,26.5,358,23.5,350.9,24z"/>
	<polygon class="st0" points="394.9,21.4 421,81.2 428,81.2 454.1,21.5 453.9,81.2 464.3,81.2 464.3,5.6 450.6,5.6 424.6,64.8 
		398.4,5.6 384.8,5.6 384.8,81.2 395.1,81.2 	"/>
	<rect x="474.6" y="25.5" class="st0" width="10" height="55.7"/>
	<rect x="474.6" y="5.6" class="st0" width="10" height="12.8"/>
	<path class="st0" d="M504,49.9c0-10.3,5.8-16.3,16-16.4h0.4c12.6,0,15.3,9.6,15.3,17.7v30h9.9V49.7c0-16.2-8.6-25.5-23.6-25.7h-0.7
		c-6.7-0.3-13.2,2.4-17.7,7.5c0-1.6,0-3.1,0-4.6v-1.3H494v55.7h10L504,49.9z"/>
	<path class="st0" d="M580.4,82.7c8,0.3,15.6-3.1,20.6-9.3v7.8h9.7V5.6h-10v27.5c-5.1-5.8-12.6-9.1-20.4-8.9
		c-15.6-0.2-28.5,12.3-28.7,27.9c0,0.4,0,0.9,0,1.3c-0.5,15.7,11.9,28.8,27.6,29.3C579.7,82.7,580.1,82.7,580.4,82.7z M561.5,53.2
		c0.1-11,9-19.9,20.1-19.8c5.2,0,10.1,2.1,13.8,5.7c3.7,3.7,5.8,8.7,5.7,14c0.2,5.3-1.8,10.5-5.5,14.3c-3.7,3.8-8.8,5.8-14.1,5.8
		c-10.7,0.3-19.7-8.2-19.9-18.9C561.5,53.9,561.5,53.6,561.5,53.2z"/>
	<polygon class="st0" points="195.1,169.3 164.2,99.4 148.6,99.4 148.6,187.7 160.2,187.7 160,116.7 191.1,187.7 198.9,187.7 
		229.9,116.7 229.7,187.7 241.4,187.7 241.4,99.4 225.8,99.4 	"/>
	<path class="st0" d="M282,99.4l-36.8,88.3h13.2l9.8-24.1h38.1l10,24.1h13.3l-36.5-88.3H282z M302.3,153.1h-30.1l15.1-37.8
		L302.3,153.1z"/>
	<polygon class="st0" points="318.5,110.5 339.6,110.5 339.6,187.7 351.9,187.7 351.9,110.5 373,110.5 373,99.4 318.5,99.4 	"/>
	<polygon class="st0" points="375.7,110.5 396.8,110.5 396.8,187.7 409,187.7 409,110.5 430.2,110.5 430.2,99.4 375.7,99.4 	"/>
	<polygon class="st0" points="434.5,187.7 484.6,187.7 484.6,176.6 446.6,176.6 446.6,148.7 484.3,148.7 484.3,137.6 446.6,137.6 
		446.6,110.5 484.6,110.5 484.6,99.4 434.5,99.4 	"/>
	<path class="st0" d="M548.8,145.8c3.7-5.1,5.5-11.3,5.4-17.6c0.2-9.6-4.4-18.6-12.3-24.1c-5.2-3.4-12.4-4.6-24.8-4.6h-23.7v88.2
		h12.1v-77.2h12.1c8,0,12.9,0.4,16.6,2.9c5,3.6,7.9,9.3,7.8,15.4c0.2,5.5-1.9,10.9-5.9,14.7c-4.4,4.1-13,4.1-18.1,4.1h-5.2
		l25.9,40.1h13.8L531,155.4C538.1,155,544.6,151.5,548.8,145.8z"/>
	<path class="st0" d="M591.4,138.4l-1.8-0.6c-12.1-4.1-19.4-6.6-19.3-15.7c0-7.4,6.1-13.4,13.5-13.4c0.2,0,0.4,0,0.7,0
		c10.3,0,12.8,7.4,13.8,12.9l0.2,1.1h12.1v-1.4c-1.5-17.2-14.7-23.3-25.6-23.3c-7.5-0.2-14.8,2.7-20.3,7.9
		c-4.5,4.6-6.8,10.8-6.6,17.2c0,17.2,15.9,21.9,22.8,24.1l1.5,0.5c9.6,3.1,17.8,5.7,17.8,16.2c-0.4,8.4-7.3,14.9-15.7,14.7
		c-1.4,0-14.3-0.4-15.8-16.1v-1.2h-12.2v1.4c0.6,15.9,11.9,26.6,28.2,26.6c16.3,0,27.8-11.1,27.8-26.5
		C612.4,146.5,599.7,141.6,591.4,138.4z"/>
	<path class="st2" d="M26.6,231.6c0,6.1-3.4,11.7-10.6,11.7s-11.3-5.7-11.3-16.7c0-11,4.1-16.7,11.3-16.7s10.6,5.7,10.6,12.3h-4.4
		c0-4.6-1.8-8.2-5.9-8.2c-4.8,0-7.2,4.6-7.2,12.8c0,8.3,3.1,12.4,7.2,12.4s5.7-3.9,5.9-7.6L26.6,231.6z"/>
	<path class="st2" d="M46.3,242.7h-3.4v-3.8c-0.7,2.7-3.1,4.5-5.9,4.5c-4.6,0-7.9-4.6-7.9-12.5c0-7.9,2.9-12.5,7.9-12.5
		c2.7-0.1,5.2,1.7,5.8,4.4v-4h3.4L46.3,242.7z M32.9,230.8c0,5.4,1.7,8.7,4.8,8.7c1.5,0,2.8-0.8,3.4-2.1c1-2,1.4-4.3,1.2-6.6
		c0.3-2.3,0-4.6-1-6.6c-0.7-1.3-2-2.1-3.4-2.1c-3.1,0-4.8,3.4-4.8,8.7L32.9,230.8z"/>
	<path class="st2" d="M51.2,210.5h3.9v32.2h-3.9V210.5z"/>
	<path class="st2" d="M60.1,210.5h3.8v4.4h-3.8V210.5z M60.1,218.7h3.8v24.1h-3.8V218.7z"/>
	<path class="st2" d="M69.6,222.3h-2.5v-3.6h2.5v-1.5c-0.2-3.8,2.7-7,6.5-7.3c0.4,0,0.8,0,1.2,0v3.4c-1.9,0-3.9,0.8-3.9,4.2v1.2h3.9
		v3.6h-3.9v20.4h-3.8V222.3z"/>
	<path class="st2" d="M78.3,230.7c0-6.9,2.9-12.5,9.2-12.5s9.2,5.6,9.2,12.5c0,6.9-2.9,12.7-9.2,12.7c-6.3,0-9.2-5.6-9.2-12.5
		L78.3,230.7z M82.4,230.7c0,6.1,1.8,8.9,5.3,8.9s5.2-2.8,5.2-8.9s-1.8-8.9-5.3-8.9C84.1,221.7,82.4,224.5,82.4,230.7L82.4,230.7z"
		/>
	<path class="st2" d="M100.4,218.7h3.4c0,1.9,0,3.1,0,4.4c0.5-3,3.2-5.1,6.2-5v4.5c-0.5-0.3-1-0.5-1.6-0.4c-2,0-4.4,2.3-4.4,7.2
		v13.2h-3.6V218.7z"/>
	<path class="st2" d="M112.8,218.7h3.4c0,1.2,0,2.3,0,3.4c0.9-2.6,3.5-4.2,6.2-4.1c4,0,6.6,2.3,6.6,7.8v16.7h-3.9v-15.5
		c0-2.2-0.3-5.3-3.9-5.3c-2.8,0-4.7,1.9-4.7,5.9v14.8h-3.8V218.7z"/>
	<path class="st2" d="M133.9,210.5h3.7v4.4h-3.7V210.5z M133.9,218.7h3.7v24.1h-3.7V218.7z"/>
	<path class="st2" d="M158.8,242.7h-3.4v-3.8c-0.7,2.7-3.1,4.5-5.8,4.5c-4.6,0-7.9-4.6-7.9-12.5c0-7.9,2.9-12.5,7.9-12.5
		c2.7-0.1,5.1,1.7,5.8,4.4v-4h3.4L158.8,242.7z M145.4,230.7c0,5.4,1.7,8.7,4.8,8.7c1.5,0,2.8-0.8,3.4-2.1c1-2,1.4-4.3,1.2-6.6
		c0.3-2.3-0.2-4.6-1.2-6.6c-0.7-1.3-2-2.1-3.4-2.1C147.1,222,145.4,225.4,145.4,230.7L145.4,230.7z"/>
	<path class="st2" d="M165.7,210.5h4.1l-3.8,9h-3.4L165.7,210.5z"/>
	<path class="st2" d="M181,225.2c0-2.6-1.3-3.7-3.4-3.7c-1.6-0.1-2.9,1.1-3,2.7c0,0.1,0,0.2,0,0.3c0,2.5,2.4,3.2,5.3,4.1
		c3.4,0.6,5.9,3.8,5.6,7.3c0.1,4-3,7.3-7,7.4c-0.2,0-0.4,0-0.6,0c-4.1,0.3-7.6-2.8-7.9-6.9c0-0.3,0-0.6,0-0.9h3.8
		c-0.2,2.2,1.4,4.1,3.6,4.3c0.2,0,0.4,0,0.6,0c1.9,0,3.4-1.5,3.4-3.4c0-2.6-2.3-3.4-5.3-4.5c-3.3-0.6-5.6-3.5-5.6-6.9
		c0.4-3.9,3.9-6.8,7.8-6.4c3.6,0.3,6.4,3.3,6.5,7L181,225.2z"/>
	<path class="st2" d="M200,242.7v-32.1h6.4l6.9,25.3l6.2-25.3h6.5v32.2h-4v-27.8l-6.9,27.8h-3.4l-7.4-27.8v27.8L200,242.7z"/>
	<path class="st2" d="M233,232c0,4.1,1.6,7.7,5.2,7.7c2.4,0,4.3-1.8,4.6-4.2h3.8c-0.3,2.3-1.4,4.4-3.1,6c-1.5,1.2-3.3,1.8-5.2,1.8
		c-6.5,0-9.2-6.1-9.2-12.5c0-7.3,3.4-12.5,9.1-12.5c2.7-0.1,5.2,1.2,6.6,3.4c1.7,3.2,2.4,6.8,2,10.3H233z M242.9,228.5
		c0-3.8-1.5-7.3-4.9-7.3c-3.4,0-5,2.9-5.1,7.3H242.9z"/>
	<path class="st2" d="M250.5,218.7h3.4c0,1.2,0,2.3,0,3.4c0.9-2.6,3.5-4.2,6.2-4.1c4,0,6.6,2.3,6.6,7.8v16.7h-3.9v-15.5
		c0-2.2-0.3-5.3-3.9-5.3c-2.8,0-4.7,1.9-4.7,5.9v14.8h-3.8V218.7z"/>
	<path class="st2" d="M272.2,222.3h-3v-3.6h3v-6.6h3.9v6.6h3.1v3.6h-3.1v20.4h-3.9V222.3z"/>
	<path class="st2" d="M297.7,242.7h-3.4v-3.8c-0.7,2.7-3.1,4.5-5.9,4.5c-4.6,0-7.9-4.6-7.9-12.5c0-7.9,2.9-12.5,7.9-12.5
		c2.7-0.1,5.2,1.7,5.8,4.4v-4h3.4L297.7,242.7z M284.3,230.7c0,5.4,1.7,8.7,4.8,8.7c1.5,0,2.8-0.8,3.4-2.1c1-2,1.4-4.3,1.2-6.6
		c0.3-2.3-0.2-4.6-1.2-6.6c-0.7-1.3-2-2.1-3.4-2.1C286,222,284.3,225.4,284.3,230.7L284.3,230.7z"/>
	<path class="st2" d="M302.6,210.5h3.8v32.2h-3.8V210.5z"/>
	<path class="st2" d="M322.6,242.7v-32.1h4.3v13.8h10.3v-13.8h4.3v32.2h-4.3v-14.6h-10.3v14.6H322.6z"/>
	<path class="st2" d="M349.4,232c0,4.1,1.6,7.7,5.2,7.7c2.4,0,4.3-1.8,4.6-4.2h3.8c-0.3,2.3-1.4,4.4-3.1,6c-1.5,1.2-3.3,1.8-5.2,1.8
		c-6.5,0-9.2-6.1-9.2-12.5c0-7.3,3.4-12.5,9.1-12.5c2.7-0.1,5.2,1.2,6.6,3.4c1.7,3.2,2.4,6.8,2,10.3H349.4z M359.3,228.5
		c0-3.8-1.5-7.3-4.9-7.3c-3.4,0-5,2.9-5.1,7.3H359.3z"/>
	<path class="st2" d="M383,242.7h-3.4v-3.8c-0.7,2.7-3.1,4.5-5.8,4.5c-4.6,0-7.9-4.6-7.9-12.5c0-7.9,2.9-12.5,7.9-12.5
		c2.7-0.1,5.2,1.8,5.8,4.5v-4.1h3.4L383,242.7z M369.6,230.7c0,5.4,1.7,8.7,4.8,8.7c1.5,0,2.8-0.8,3.4-2.1c1-2,1.4-4.3,1.2-6.6
		c0.3-2.3-0.2-4.6-1.2-6.6c-0.7-1.3-2-2.1-3.4-2.1C371.3,222,369.6,225.4,369.6,230.7L369.6,230.7z"/>
	<path class="st2" d="M387.9,210.5h3.8v32.2h-3.8V210.5z"/>
	<path class="st2" d="M397.7,222.3h-3v-3.6h3v-6.6h3.9v6.6h3.1v3.6h-3.1v20.4h-3.9V222.3z"/>
	<path class="st2" d="M407.3,210.5h3.8v7.9c0,1.1,0,2.1,0,3.4c0.9-2.3,3.3-3.7,5.7-3.4c1.9-0.1,3.8,0.7,5.1,2.1
		c1.3,1.8,1.9,3.9,1.7,6.1V243h-3.8v-15.4c0.1-1.5-0.2-2.9-0.9-4.2c-0.7-0.9-1.8-1.4-3-1.3c-1.3-0.1-2.6,0.5-3.4,1.5
		c-1,1.4-1.5,3.1-1.3,4.8v14.4h-3.8L407.3,210.5z"/>
	<path class="st2" d="M439.3,242.7v-32.1h6.5l6.6,25.3l6.2-25.3h6.5v32.2h-3.9v-27.8l-6.9,27.8h-3.4l-7.4-27.8v27.8L439.3,242.7z"/>
	<path class="st2" d="M468.9,230.7c0-6.9,2.9-12.5,9.2-12.5c6.4,0,9.2,5.6,9.2,12.5c0,6.9-2.9,12.7-9.2,12.7s-9.2-5.6-9.2-12.5
		L468.9,230.7z M473,230.7c0,6.1,1.8,8.9,5.3,8.9c3.4,0,5.2-2.8,5.2-8.9s-1.8-8.9-5.3-8.9C474.7,221.7,473,224.5,473,230.7
		L473,230.7z"/>
	<path class="st2" d="M498.8,242.7h-3.7l-7.1-24.1h3.9l5,18.5l4.8-18.5h3.7L498.8,242.7z"/>
	<path class="st2" d="M510.3,232c0,4.1,1.6,7.7,5.2,7.7c2.4,0,4.3-1.8,4.6-4.2h3.8c-0.3,2.3-1.4,4.4-3.1,6c-1.5,1.2-3.3,1.8-5.2,1.8
		c-6.5,0-9.2-6.1-9.2-12.5c0-7.3,3.4-12.5,9.1-12.5c2.7-0.1,5.2,1.2,6.6,3.4c1.7,3.2,2.4,6.8,2,10.3H510.3z M520.2,228.5
		c0-3.8-1.5-7.3-4.9-7.3s-5,2.9-5.1,7.3H520.2z"/>
	<path class="st2" d="M527.9,218.7h3.4c0,1.2,0,2.3,0,3.4c0.7-2.6,3.1-4.3,5.7-4.1c1.5,0,2.9,0.5,4,1.4c0.6,0.7,1,1.5,1.2,2.4
		c0.4-1,1-1.9,1.9-2.6c1.3-0.9,2.7-1.3,4.3-1.3c2.2-0.1,4.3,1,5.6,2.8c1,1.9,1.4,4,1.3,6.1v15.6h-3.9v-15.1c0.1-1.2-0.1-2.5-0.5-3.7
		c-0.5-1.2-1.8-2-3.1-1.9c-1.3-0.1-2.5,0.5-3.3,1.5c-0.8,1.2-1.2,2.7-1.1,4.2v15.1h-3.8v-14.9c0.1-1.3-0.1-2.6-0.5-3.8
		c-0.5-1.2-1.8-2-3.1-1.9c-1.3-0.1-2.5,0.5-3.3,1.4c-0.8,1.3-1.2,2.8-1.1,4.3v15h-3.8L527.9,218.7z"/>
	<path class="st2" d="M563,232c0,4.1,1.6,7.7,5.2,7.7c2.4,0,4.3-1.8,4.6-4.2h3.8c-0.3,2.3-1.4,4.4-3.1,6c-1.5,1.2-3.3,1.8-5.2,1.8
		c-6.5,0-9.2-6.1-9.2-12.5c0-7.3,3.4-12.5,9.1-12.5c2.7-0.1,5.2,1.2,6.6,3.4c1.7,3.2,2.4,6.8,2,10.3H563z M572.9,228.5
		c0-3.8-1.5-7.3-4.9-7.3s-5,2.9-5.1,7.3H572.9z"/>
	<path class="st2" d="M580.5,218.7h3.4c0,1.2,0,2.3,0,3.4c0.9-2.6,3.5-4.2,6.2-4.1c4,0,6.6,2.3,6.6,7.8v16.7h-3.8v-15.5
		c0-2.2-0.3-5.3-3.9-5.3c-2.8,0-4.7,1.9-4.7,5.9v14.8h-3.8L580.5,218.7z"/>
	<path class="st2" d="M602.2,222.3h-3v-3.6h3v-6.6h3.9v6.6h3.1v3.6h-3.1v20.4h-3.9V222.3z"/>
	<path class="st2" d="M11.8,271.3h589.6c4.1,0,7.4,3.3,7.4,7.4v65.2c0,4.1-3.3,7.4-7.4,7.4H11.8c-4.1,0-7.4-3.3-7.4-7.4v-65.2
		C4.4,274.6,7.7,271.3,11.8,271.3z"/>
	<path class="st3" d="M601.4,276.4c1.3,0,2.3,1,2.3,2.3v0V344c0,1.3-1,2.3-2.3,2.3l0,0H11.8c-1.3,0-2.3-1-2.3-2.3l0,0v-65.3
		c0-1.3,1-2.3,2.3-2.3c0,0,0,0,0,0H601.4 M601.4,271.3H11.8c-4.1,0-7.4,3.3-7.4,7.4l0,0V344c0,4.1,3.3,7.4,7.4,7.4c0,0,0,0,0,0
		h589.6c4.1,0,7.4-3.3,7.4-7.4l0,0v-65.3C608.8,274.6,605.5,271.3,601.4,271.3L601.4,271.3z"/>
	<path class="st4" d="M33.7,292.4h11.1c6.2,0,8.6,0.8,10.9,2.5c2.8,2.4,4.4,5.9,4.3,9.6c0.3,5.3-3.5,10.1-8.7,11l9.6,12H50.5
		l-8.1-11.3l0,0v11.4h-8.7V292.4z M42.3,310.1h3.2c5.3,0,5.9-3.4,5.9-5.1c0-3.2-2.3-4.7-5.8-4.7h-3.4L42.3,310.1z"/>
	<path class="st4" d="M72,292.4h19.6v7.9H80.6v5.5h10.6v7.9H80.6v6.1h10.9v7.9H72V292.4z"/>
	<path class="st4" d="M118.6,302.7c-0.2-1.2-0.5-3.4-3.2-3.4c-1.6-0.1-3,1.1-3.1,2.7c0,0,0,0,0,0c0,2.1,1,2.5,7.3,5.4
		c6.3,2.9,8.2,6,8.2,10.1c0,5.2-3,10.8-12.3,10.8c-10.3,0-12.7-6.7-12.7-11.2v-1.1h8.9c0,4.1,2.5,4.8,3.7,4.8c1.9,0,3.4-1.5,3.4-3.4
		c0-2.3-1.5-2.9-6.9-5.2c-2.5-1-8.6-3.4-8.6-10.1s6.4-10.3,12.3-10.3c3.6-0.1,7.1,1.4,9.5,4c1.6,1.9,2.4,4.4,2.3,6.9L118.6,302.7z"
		/>
	<path class="st4" d="M156.3,291.7c10.1,0.2,18.2,8.5,18,18.6c-0.2,10.1-8.5,18.2-18.6,18c-9.8-0.2-17.8-8-18-17.9
		c0-2.6,0.4-5.1,1.4-7.5C142.1,296,148.9,291.6,156.3,291.7z M156.3,320.4c5.7,0.3,10.6-4,10.9-9.7s-4-10.6-9.7-10.9
		c-5.7-0.3-10.6,4-10.9,9.7c0,0.2,0,0.4,0,0.6c-0.2,5.4,4,10.1,9.4,10.3c0.2,0,0.3,0,0.5,0H156.3z"/>
	<path class="st4" d="M195.7,292.4v21.3c0,2.4,0,6.9,4.6,6.9c4.6,0,4.5-3.9,4.5-6.9v-21.3h9v21.3c0.5,3.9-0.8,7.9-3.4,10.8
		c-2.6,2.6-6.2,4-9.8,3.8c-3.7,0.1-7.4-1.2-10.1-3.7c-2.7-2.9-4-6.9-3.4-10.9v-21.3H195.7z"/>
	<path class="st4" d="M227.3,292.4h11.1c6.2,0,8.6,0.8,10.9,2.5c2.8,2.4,4.4,5.9,4.3,9.6c0.3,5.4-3.5,10.1-8.8,11l9.6,12.1h-10.3
		l-8.1-11.4l0,0v11.4h-8.6L227.3,292.4z M235.9,310.1h3.2c5.3,0,5.9-3.4,5.9-5.1c0-3.2-2.3-4.7-5.8-4.7h-3.4L235.9,310.1z"/>
	<path class="st4" d="M300,314.4c-2,8.2-9.4,13.9-17.8,13.8c-10.1,0-18.3-8.2-18.3-18.3c0-10.1,8.2-18.3,18.3-18.3
		c8.5-0.1,16,5.7,17.9,14h-9.5c-1.3-3.6-4.8-6.1-8.6-6.1c-5.4,0.2-9.6,4.6-9.4,10c0,0.1,0,0.2,0,0.3c-0.3,5.4,4,10.1,9.4,10.3
		c0,0,0,0,0.1,0c3.8-0.1,7.1-2.5,8.5-5.9L300,314.4z"/>
	<path class="st4" d="M311.7,292.4h19.6v7.9h-10.9v5.5H331v7.9h-10.6v6.1h10.9v7.9h-19.6V292.4z"/>
	<path class="st4" d="M400.3,314.4c-2,8.2-9.4,13.9-17.8,13.8c-10.1,0-18.3-8.2-18.3-18.3c0-10.1,8.2-18.3,18.3-18.3
		c8.5-0.1,16,5.7,17.9,14H391c-1.3-3.7-4.7-6.1-8.5-6.2c-5.4,0.2-9.6,4.6-9.4,10c0,0.1,0,0.2,0,0.3c-0.3,5.4,4,10.1,9.4,10.3
		c0,0,0,0,0.1,0c3.8-0.1,7.1-2.5,8.5-5.9L400.3,314.4z"/>
	<path class="st4" d="M412,292.4h19.6v7.9h-10.9v5.5h10.6v7.9h-10.6v6.1h10.9v7.9H412V292.4z"/>
	<path class="st4" d="M444.8,292.4h7.8l13.8,22.1l0,0l-0.4-22h8.6v35.1h-7.8l-13.4-21.4l0,0l0.2,21.4h-8.6L444.8,292.4z"/>
	<path class="st4" d="M491.7,300.3h-6.9v-7.9h22.8v7.9h-6.9v27.3h-9.1V300.3z"/>
	<path class="st4" d="M518,292.4h19.6v7.9h-10.9v5.5h10.6v7.9h-10.6v6.1h10.9v7.9H518V292.4z"/>
	<path class="st4" d="M550.7,292.4h11.1c6.2,0,8.6,0.8,10.9,2.5c2.8,2.4,4.4,5.9,4.3,9.6c0.3,5.4-3.5,10.1-8.8,11l9.4,12.1h-10.3
		l-8.1-11.4l0,0v11.4h-8.6L550.7,292.4z M559.3,310.1h3.2c5.3,0,5.9-3.4,5.9-5.1c0-3.2-2.3-4.7-5.8-4.7h-3.4L559.3,310.1z"/>
</g>
</svg>
