<svg id="Layer_1" data-name="Layer 1" xmlns="http://www.w3.org/2000/svg" width="2909" height="2036.3" viewBox="0 0 2909 2036.3"><defs><style>.cls-1{fill:#00609c;}.cls-2{fill:#00588e;}.cls-3{fill:#005a92;}.cls-4{fill:#3481b0;}.cls-5{fill:#166ea5;}.cls-6{fill:#005489;}.cls-7{fill:#005f9b;}.cls-8{fill:#1f74a9;}.cls-9{fill:#2b7bad;}.cls-10{fill:#0d68a1;}.cls-11{fill:#00578d;}.cls-12{fill:#06649f;}.cls-13{fill:#005d98;}.cls-14{fill:#00558a;}.cls-15{fill:#005b94;}.cls-16{fill:#00588f;}.cls-17{fill:#2e7dae;}.cls-18{fill:#3d87b4;}.cls-19{fill:#106aa3;}.cls-20{fill:#498eb9;}.cls-21{fill:#2879ac;}.cls-22{fill:#468cb8;}.cls-23{fill:#458cb7;}.cls-24{fill:#4b90b9;}.cls-25{fill:#3883b2;}.cls-26{fill:#3e87b4;}.cls-27{fill:#2678ac;}.cls-28{fill:#2a7aad;}.cls-29{fill:#005e98;}.cls-30{fill:#005d97;}.cls-31{fill:#01619d;}</style></defs><title>EMM Resource Background-01</title><polyline class="cls-1" points="366.5 2034.59 638.33 1872.72 704.35 2034.59 366.5 2034.59"/><polyline class="cls-1" points="704.35 2034.59 638.33 1872.72 638.34 1872.72 726.78 1935.92 864.87 2034.59 704.35 2034.59"/><polyline class="cls-1" points="2202.73 2034.59 2268.93 1872.72 2541.5 2034.59 2202.73 2034.59"/><polyline class="cls-1" points="2041.78 2034.59 2180.24 1935.92 2268.92 1872.72 2268.93 1872.72 2202.73 2034.59 2041.78 2034.59"/><polyline class="cls-1" points="871.29 1841.92 871.29 1841.92 726.78 1935.92 638.34 1872.72 871.29 1841.92"/><polyline class="cls-1" points="2180.24 1935.92 2035.33 1841.92 2268.92 1872.72 2180.24 1935.92"/><polyline class="cls-1" points="0 2034.59 71.49 1764.09 366.5 2034.59 0 2034.59"/><polyline class="cls-1" points="521 858.64 302.94 670.54 798.24 670.54 521 858.64"/><polyline class="cls-1" points="1972.48 858.64 1754.42 670.54 2249.72 670.54 1972.48 858.64"/><polyline class="cls-1" points="2316.35 0 2316.35 0 2322.78 192.67 2316.35 0 2617.87 215.34 2617.88 215.34 2785.83 517.07 2905.04 539.71 2639.52 626.4 2905.04 539.71 2799.32 778.67 2639.52 626.4 2639.51 626.4 2628.69 871.18 2443.28 773.01 2249.72 670.54 2061.95 542.54 2249.72 670.54 1754.42 670.54 1653.31 525.79 2061.95 542.54 1653.31 525.79 1553.88 383.47 1653.31 525.79 1754.42 670.54 1454.02 1014.58 1754.42 670.54 1972.48 858.64 2249.72 670.54 1972.79 1017.1 2249.72 670.54 2443.28 773.01 2628.69 871.18 2430.92 1017.1 2628.69 871.18 2639.51 626.4 2639.52 626.4 2799.32 778.67 2905.04 539.71 2905.04 879.4 2905.04 1017.1 2906.92 1017.1 2909 1017.1 2906.92 1030.21 2906.92 1451.27 2906.92 1653.55 2906.92 1792.06 2906.92 2026.74 2909 2034.59 2541.5 2034.59 2835.64 1765.62 2541.5 2034.59 2268.93 1872.72 2268.92 1872.72 2035.33 1841.92 2027.38 1603.91 2035.33 1841.92 1739.43 1819.25 2035.33 1841.92 2180.24 1935.92 2041.78 2034.59 1700.3 2034.59 1576.55 1941.07 1453.56 2033.03 1453.56 2034.04 1576.55 1942.07 1700.3 2035.59 1451.48 2035.59 1452.82 2034.59 1205.41 2034.59 1328.83 1941.07 1205.41 2034.59 864.87 2034.59 726.78 1935.92 871.29 1841.92 1166.39 1819.25 871.29 1841.92 879.23 1603.91 871.29 1841.92 638.34 1872.72 638.33 1872.72 638.33 1872.71 610.47 1492.05 610.46 1492.05 302.94 1364.06 610.46 1492.05 610.47 1492.05 638.33 1872.71 638.33 1872.72 366.5 2034.59 366.5 1678.47 201.83 1508.8 366.5 1678.47 100.71 1653.55 366.5 1678.47 366.5 2034.59 71.49 1764.09 0 2034.59 0 1792.06 0 1653.55 0 1451.27 0 1017.49 0 583.32 64.84 607.71 0 583.32 0 381.04 71.49 270.51 0 381.04 0 242.54 0 0 366.5 0 704.35 0 864.87 0 871.29 192.67 864.87 0 1166.39 215.34 1166.4 215.34 1334.35 517.07 1453.56 539.71 1188.04 626.4 1453.56 539.71 1347.84 778.67 1188.04 626.4 1188.02 626.4 1177.21 871.18 991.79 773.01 798.24 670.54 610.47 542.54 798.24 670.54 302.94 670.54 201.83 525.79 610.46 542.54 201.83 525.79 100.71 381.04 64.84 607.71 100.71 381.04 201.83 525.79 302.94 670.54 0.34 1017.1 302.94 670.54 521 858.64 798.24 670.54 521.31 1017.1 798.24 670.54 991.79 773.01 1177.21 871.18 979.44 1017.1 1177.21 871.18 1188.02 626.4 1188.04 626.4 1347.84 778.67 1453.56 539.71 1453.56 879.4 1453.56 1004.34 1453.56 583.32 1516.44 606.97 1453.56 583.32 1453.56 381.04 1523.58 272.78 1453.56 381.04 1453.56 242.54 1453.56 7.87 1453.56 370.66 1334.35 97.71 1328.83 93.53 1166.4 215.33 1328.83 93.53 1334.35 97.71 1453.56 370.66 1453.56 539.71 1334.35 517.07 1166.4 215.34 1166.39 215.34 864.87 0 1205.41 0 1166.4 215.33 1205.41 0 1451.48 0 1453.56 0 1817.99 0 2155.83 0 2316.35 0"/><polyline class="cls-1" points="2905.04 0 2905.04 0 2905.04 370.66 2785.83 97.71 2780.31 93.53 2617.88 215.33 2780.31 93.53 2785.83 97.71 2905.04 370.66 2905.04 539.71 2785.83 517.07 2617.88 215.34 2617.87 215.34 2316.35 0 2656.9 0 2617.88 215.33 2656.9 0 2905.04 0"/><polyline class="cls-2" points="302.94 670.54 0.34 1017.1 178.34 1017.1 178.41 1017.29 178.34 1017.1 178.46 1017.16 178.34 1017.1 178.48 1017.1 302.94 670.54"/><polyline class="cls-3" points="302.94 670.54 302.94 670.54 178.48 1017.1 179.18 1017.1 521 858.64 302.94 670.54"/><polyline class="cls-2" points="909.46 884.13 522.14 1017.1 978.71 1017.1 909.46 884.13"/><polyline class="cls-4" points="798.24 670.54 909.46 884.13 991.79 773.01 798.24 670.54"/><polyline class="cls-4" points="1453.56 539.71 1347.84 778.67 1347.84 778.68 1453.56 879.4 1453.56 539.71"/><path class="cls-3" d="M1177.21,871.18h0M1188,626.4h0l-10.81,244.78,170.63-92.51L1188,626.4"/><polyline class="cls-4" points="1334.35 517.08 1017.74 607.71 1188.02 626.4 1188.04 626.4 1334.35 517.08"/><polyline class="cls-2" points="1177.21 871.18 979.44 1017.1 1451.48 1017.1 1451.54 1017.1 1451.64 1016.47 1177.21 871.18"/><polyline class="cls-3" points="798.24 670.54 521.31 1017.1 522.14 1017.1 909.46 884.13 798.24 670.54"/><polyline class="cls-5" points="798.24 670.54 521 858.64 521 1017.1 521.31 1017.1 798.24 670.54"/><polyline class="cls-4" points="521 858.64 521 858.64 179.18 1017.1 521 1017.1 521 858.64"/><polyline class="cls-2" points="798.24 670.54 302.94 670.54 521 858.64 798.24 670.54"/><polyline class="cls-3" points="991.79 773.01 991.79 773.01 909.46 884.13 1177.21 871.18 991.79 773.01"/><polyline class="cls-4" points="1347.84 778.68 1452.03 1014.03 1453.56 1004.34 1453.56 879.4 1347.84 778.68"/><polyline class="cls-2" points="1347.84 778.67 1347.84 778.67 1177.21 871.18 1451.64 1016.47 1452.03 1014.03 1347.84 778.68 1347.84 778.67"/><polyline class="cls-4" points="1017.74 607.71 991.79 773.01 1188.02 626.4 1017.74 607.71"/><polyline class="cls-5" points="1177.21 871.18 909.46 884.13 978.71 1017.1 978.91 1017.1 979.44 1017.1 1177.21 871.18"/><polyline class="cls-5" points="1453.56 539.71 1188.04 626.4 1347.84 778.67 1453.56 539.71"/><polyline class="cls-5" points="366.5 0 0 0 71.49 270.51 366.5 0"/><polyline class="cls-2" points="100.71 381.04 64.84 607.71 201.83 525.79 100.71 381.04"/><polyline class="cls-2" points="0 583.32 0 1017.49 0 1017.1 0.06 1017.1 64.84 607.71 0 583.32"/><polyline class="cls-5" points="201.83 525.79 201.83 525.79 0.16 1017.1 0.34 1017.1 302.94 670.54 201.83 525.79"/><polyline class="cls-2" points="704.35 0 366.5 0 638.33 161.87 704.35 0"/><polyline class="cls-3" points="864.87 0 704.35 0 638.33 161.87 638.34 161.87 726.78 98.68 864.87 0"/><polyline class="cls-4" points="71.49 270.51 0 381.04 100.71 381.04 71.49 270.51"/><polyline class="cls-5" points="71.49 270.51 100.71 381.04 366.5 356.12 71.49 270.51"/><polyline class="cls-5" points="100.71 381.04 0 381.04 0 583.32 64.84 607.71 100.71 381.04"/><polyline class="cls-3" points="201.83 525.79 64.84 607.71 0.06 1017.1 0.16 1017.1 201.83 525.79"/><polyline class="cls-2" points="864.87 0 864.87 0 726.78 98.68 871.29 192.67 864.87 0"/><polyline class="cls-4" points="864.87 0 871.29 192.67 1166.39 215.34 864.87 0"/><polyline class="cls-5" points="1166.4 215.34 1166.4 485.2 1334.35 517.07 1166.4 215.34"/><polyline class="cls-3" points="0 0 0 242.54 0 381.04 71.49 270.51 0 0"/><polyline class="cls-2" points="366.5 0 366.5 0 71.49 270.51 366.5 356.12 366.5 0"/><polyline class="cls-3" points="366.5 356.12 100.71 381.04 201.83 525.79 366.5 356.12"/><polyline class="cls-3" points="201.83 525.79 302.94 670.54 610.46 542.54 201.83 525.79"/><polyline class="cls-4" points="366.5 356.12 366.5 356.12 201.83 525.79 610.46 542.54 366.5 356.12"/><polyline class="cls-3" points="638.33 161.88 366.5 356.12 610.46 542.54 610.47 542.54 638.33 161.88"/><polyline class="cls-5" points="366.5 0 366.5 356.12 638.33 161.88 638.33 161.87 366.5 0"/><polyline class="cls-5" points="610.47 542.54 610.47 542.54 610.46 542.54 302.94 670.54 798.24 670.54 610.47 542.54"/><polyline class="cls-3" points="879.23 430.68 610.47 542.54 798.24 670.54 879.23 430.68"/><polyline class="cls-5" points="1017.74 607.71 798.24 670.54 991.79 773.01 1017.74 607.71"/><polyline class="cls-4" points="879.23 430.68 879.23 430.68 798.24 670.54 1017.74 607.71 879.23 430.68"/><polyline class="cls-2" points="1188.02 626.4 991.79 773.01 1177.21 871.18 1188.02 626.4"/><polyline class="cls-2" points="1334.35 517.07 1334.35 517.08 1188.04 626.4 1453.56 539.71 1334.35 517.07"/><polyline class="cls-5" points="726.78 98.68 726.78 98.68 638.34 161.87 871.29 192.67 726.78 98.68"/><polyline class="cls-5" points="638.33 161.88 638.33 161.88 610.47 542.54 879.23 430.68 638.33 161.88"/><polyline class="cls-3" points="871.29 192.67 879.23 430.68 1166.39 215.34 871.29 192.67"/><polyline class="cls-2" points="638.34 161.87 638.34 161.87 638.33 161.87 638.33 161.88 879.23 430.68 871.29 192.67 638.34 161.87"/><polyline class="cls-4" points="1166.4 215.34 1166.39 215.34 879.23 430.68 1166.4 485.2 1166.4 215.34"/><polyline class="cls-3" points="879.23 430.68 1017.74 607.71 1166.4 485.2 879.23 430.68"/><polyline class="cls-5" points="1328.83 93.53 1166.4 215.33 1166.4 215.34 1453.56 370.66 1334.35 97.71 1328.83 93.53"/><polyline class="cls-5" points="1451.48 0 1205.41 0 1328.83 93.53 1451.82 1.3 1451.48 0"/><polyline class="cls-2" points="1205.41 0 1166.4 215.33 1328.83 93.53 1205.41 0"/><polyline class="cls-3" points="1205.41 0 864.87 0 1166.39 215.34 1166.4 215.34 1166.4 215.33 1205.41 0"/><polyline class="cls-2" points="1166.4 485.2 1017.74 607.71 1334.35 517.08 1334.35 517.07 1166.4 485.2"/><polyline class="cls-3" points="1166.4 215.34 1334.35 517.07 1453.56 539.71 1453.56 370.66 1166.4 215.34"/><polyline class="cls-4" points="1451.82 1.3 1328.83 93.53 1334.35 97.71 1453.56 370.66 1453.56 7.87 1451.82 1.3"/><polyline class="cls-2" points="1754.42 670.54 1454.02 1014.58 1453.62 1017.1 1629.96 1017.1 1754.42 670.54"/><polyline class="cls-6" points="1452.14 1016.74 1451.82 1017.1 1452.82 1017.1 1452.14 1016.74"/><polyline class="cls-7" points="1453.56 1015.11 1452.86 1015.91 1453.39 1017.1 1453.56 1017.1 1453.56 1015.11"/><polyline class="cls-6" points="1452.86 1015.91 1452.14 1016.74 1452.82 1017.1 1453.39 1017.1 1452.86 1015.91"/><polyline class="cls-3" points="1754.42 670.54 1754.42 670.54 1629.96 1017.1 1630.66 1017.1 1972.48 858.64 1754.42 670.54"/><polyline class="cls-2" points="2360.94 884.13 1973.62 1017.1 2386.58 1017.1 2386.58 1017.49 2386.58 1017.1 2430.19 1017.1 2360.94 884.13"/><polyline class="cls-4" points="2249.72 670.54 2360.94 884.13 2443.28 773.01 2249.72 670.54"/><polyline class="cls-4" points="2905.04 539.71 2799.32 778.67 2799.32 778.68 2905.04 879.4 2905.04 539.71"/><path class="cls-3" d="M2628.69,871.18h0m10.83-244.78h0l-10.82,244.78,170.63-92.51L2639.52,626.4"/><polyline class="cls-4" points="2785.83 517.08 2469.22 607.71 2639.51 626.4 2639.52 626.4 2785.83 517.08"/><polyline class="cls-3" points="2628.69 871.18 2430.92 1017.1 2730.17 1017.1 2729.33 1017.49 2730.17 1017.1 2730.03 1017.49 2730.17 1017.1 2904.3 1017.1 2628.69 871.18"/><polyline class="cls-3" points="2249.72 670.54 1972.79 1017.1 1973.62 1017.1 2360.94 884.13 2249.72 670.54"/><polyline class="cls-5" points="2249.72 670.54 1972.48 858.64 1972.48 1017.1 1972.79 1017.1 2249.72 670.54"/><polyline class="cls-4" points="1972.48 858.64 1972.48 858.64 1630.66 1017.1 1927.42 1017.1 1972.48 1017.1 1972.48 858.64"/><polyline class="cls-2" points="2249.72 670.54 1754.42 670.54 1972.48 858.64 2249.72 670.54"/><polyline class="cls-3" points="2443.28 773.01 2443.28 773.01 2360.94 884.13 2628.69 871.18 2443.28 773.01"/><polyline class="cls-4" points="2799.32 778.68 2904.87 1017.1 2905.04 1017.1 2905.04 879.4 2799.32 778.68"/><polyline class="cls-2" points="2799.32 778.67 2799.32 778.67 2628.69 871.18 2904.3 1017.1 2904.87 1017.1 2799.32 778.68 2799.32 778.67"/><polyline class="cls-4" points="2469.22 607.71 2443.28 773.01 2639.51 626.4 2469.22 607.71"/><polyline class="cls-5" points="2628.69 871.18 2360.94 884.13 2430.19 1017.1 2430.92 1017.1 2628.69 871.18"/><polyline class="cls-5" points="2905.04 539.71 2639.52 626.4 2799.32 778.67 2905.04 539.71"/><polyline class="cls-5" points="1817.99 0 1453.56 0 1524.65 268.98 1817.99 0"/><polyline class="cls-8" points="1453.56 0 1451.48 0 1451.82 1.3 1453.56 0"/><polyline class="cls-9" points="1453.56 0 1453.56 0 1451.82 1.3 1453.56 7.87 1453.56 0"/><polyline class="cls-2" points="1553.88 383.47 1518.62 606.34 1653.31 525.79 1553.88 383.47"/><polyline class="cls-2" points="1453.56 583.32 1453.56 1004.34 1516.32 607.71 1516.44 606.97 1453.56 583.32"/><polyline class="cls-6" points="1516.44 606.97 1516.32 607.71 1517.12 607.23 1516.44 606.97"/><polyline class="cls-6" points="1454.02 1014.58 1453.56 1015.11 1453.56 1017.1 1453.62 1017.1 1454.02 1014.58"/><polyline class="cls-5" points="1653.31 525.79 1653.31 525.79 1454.87 1009.24 1454.02 1014.58 1754.42 670.54 1653.31 525.79"/><polyline class="cls-10" points="1451.85 1016.59 1451.64 1017.1 1451.82 1017.1 1452.14 1016.74 1451.85 1016.59"/><polyline class="cls-9" points="1453.56 1012.42 1452.48 1015.05 1452.86 1015.91 1453.56 1015.11 1453.56 1012.42"/><polyline class="cls-10" points="1452.48 1015.05 1451.85 1016.59 1452.14 1016.74 1452.86 1015.91 1452.48 1015.05"/><polyline class="cls-10" points="1454.87 1009.24 1453.56 1012.42 1453.56 1015.11 1454.02 1014.58 1454.87 1009.24"/><polyline class="cls-2" points="2155.83 0 1817.99 0 2089.81 161.87 2155.83 0"/><polyline class="cls-3" points="2316.35 0 2155.83 0 2089.81 161.87 2089.82 161.87 2178.26 98.68 2316.35 0"/><polyline class="cls-4" points="1523.58 272.78 1453.56 381.04 1552.19 381.04 1523.58 272.78"/><polyline class="cls-5" points="1525.22 271.16 1554.22 380.85 1817.99 356.12 1525.22 271.16"/><polyline class="cls-9" points="1524.72 271.02 1523.58 272.78 1552.19 381.04 1554.22 380.85 1525.22 271.16 1524.72 271.02"/><polyline class="cls-5" points="1552.19 381.04 1453.56 381.04 1453.56 583.32 1516.44 606.97 1552.19 381.04 1553.88 383.47 1552.19 381.04"/><polyline class="cls-10" points="1552.19 381.04 1516.44 606.97 1517.12 607.23 1518.62 606.34 1553.88 383.47 1552.19 381.04"/><polyline class="cls-3" points="1653.31 525.79 1518.62 606.34 1518.4 607.71 1517.12 607.23 1518.4 607.71 1454.87 1009.24 1653.31 525.79"/><polyline class="cls-11" points="1451.64 1016.47 1451.54 1017.1 1451.64 1017.1 1451.85 1016.59 1451.64 1016.47"/><polyline class="cls-12" points="1453.56 1004.34 1452.03 1014.03 1452.48 1015.05 1453.56 1012.42 1453.56 1004.34"/><polyline class="cls-11" points="1452.03 1014.03 1451.64 1016.47 1451.85 1016.59 1452.48 1015.05 1452.03 1014.03"/><polyline class="cls-11" points="1517.12 607.23 1516.32 607.71 1453.56 1004.34 1453.56 1012.42 1454.87 1009.24 1518.4 607.71 1517.12 607.23"/><polyline class="cls-13" points="1518.62 606.34 1517.12 607.23 1518.4 607.71 1518.62 606.34"/><polyline class="cls-2" points="2316.35 0 2316.35 0 2178.26 98.68 2322.78 192.67 2316.35 0"/><polyline class="cls-4" points="2316.35 0 2322.78 192.67 2617.87 215.34 2316.35 0"/><polyline class="cls-5" points="2617.88 215.34 2617.88 485.2 2785.83 517.07 2617.88 215.34"/><polyline class="cls-3" points="1453.56 7.87 1453.56 242.54 1453.56 381.04 1523.58 272.78 1522.98 270.51 1524.72 271.02 1522.98 270.51 1453.56 7.87"/><polyline class="cls-13" points="1453.56 0 1453.56 0 1453.56 7.87 1522.98 270.51 1524.65 268.98 1453.56 0"/><polyline class="cls-13" points="1522.98 270.51 1523.58 272.78 1524.72 271.02 1522.98 270.51"/><polyline class="cls-2" points="1817.99 0 1817.99 0 1524.65 268.98 1525.05 270.51 1524.72 271.02 1525.05 270.51 1525.22 271.16 1817.99 356.12 1817.99 0"/><polyline class="cls-7" points="1525.05 270.51 1524.72 271.02 1525.22 271.16 1525.05 270.51"/><polyline class="cls-14" points="1524.65 268.98 1522.98 270.51 1524.72 271.02 1525.05 270.51 1524.65 268.98"/><polyline class="cls-3" points="1817.99 356.12 1554.22 380.85 1554.27 381.04 1553.88 383.47 1653.31 525.79 1817.99 356.12"/><polyline class="cls-12" points="1554.22 380.85 1552.19 381.04 1554.27 381.04 1554.22 380.85"/><polyline class="cls-13" points="1554.27 381.04 1552.19 381.04 1553.88 383.47 1554.27 381.04"/><polyline class="cls-3" points="1653.31 525.79 1754.42 670.54 2061.95 542.54 1653.31 525.79"/><polyline class="cls-4" points="1817.99 356.12 1817.99 356.12 1653.31 525.79 2061.95 542.54 1817.99 356.12"/><polyline class="cls-3" points="2089.81 161.88 1817.99 356.12 2061.95 542.54 2089.81 161.88"/><polyline class="cls-5" points="1817.99 0 1817.99 356.12 2089.81 161.88 2089.81 161.87 1817.99 0"/><polyline class="cls-5" points="2061.95 542.54 2061.95 542.54 1754.42 670.54 2249.72 670.54 2061.95 542.54"/><polyline class="cls-3" points="2330.71 430.68 2061.95 542.54 2249.72 670.54 2330.71 430.68"/><polyline class="cls-5" points="2469.22 607.71 2249.72 670.54 2443.28 773.01 2469.22 607.71"/><polyline class="cls-4" points="2330.71 430.68 2330.71 430.68 2249.72 670.54 2469.22 607.71 2330.71 430.68"/><polyline class="cls-2" points="2639.51 626.4 2443.28 773.01 2628.69 871.18 2639.51 626.4"/><polyline class="cls-2" points="2785.83 517.07 2785.83 517.08 2639.52 626.4 2905.04 539.71 2785.83 517.07"/><polyline class="cls-5" points="2178.26 98.68 2178.26 98.68 2089.82 161.87 2322.78 192.67 2178.26 98.68"/><polyline class="cls-5" points="2089.81 161.88 2089.81 161.88 2061.95 542.54 2330.71 430.68 2089.81 161.88"/><polyline class="cls-3" points="2322.78 192.67 2330.71 430.68 2617.87 215.34 2322.78 192.67"/><polyline class="cls-2" points="2089.82 161.87 2089.82 161.87 2089.81 161.87 2089.81 161.88 2330.71 430.68 2322.78 192.67 2089.82 161.87"/><polyline class="cls-4" points="2617.88 215.34 2617.87 215.34 2330.71 430.68 2617.88 485.2 2617.88 215.34"/><polyline class="cls-3" points="2330.71 430.68 2469.22 607.71 2617.88 485.2 2330.71 430.68"/><polyline class="cls-5" points="2780.31 93.53 2617.88 215.33 2617.88 215.34 2905.04 370.66 2785.83 97.71 2780.31 93.53"/><polyline class="cls-5" points="2905.04 0 2656.9 0 2780.31 93.53 2905.04 0"/><polyline class="cls-2" points="2656.9 0 2617.88 215.33 2780.31 93.53 2656.9 0"/><polyline class="cls-3" points="2656.9 0 2316.35 0 2617.87 215.34 2617.88 215.34 2617.88 215.33 2656.9 0"/><polyline class="cls-2" points="2617.88 485.2 2469.22 607.71 2785.83 517.08 2785.83 517.07 2617.88 485.2"/><polyline class="cls-3" points="2617.88 215.34 2785.83 517.07 2905.04 539.71 2905.04 370.66 2617.88 215.34"/><polyline class="cls-4" points="2905.04 0 2905.04 0 2780.31 93.53 2785.83 97.71 2905.04 370.66 2905.04 0"/><polyline class="cls-2" points="178.48 1017.49 178.34 1017.49 0.34 1017.49 302.94 1364.06 178.48 1017.49"/><polyline class="cls-6" points="178.34 1017.1 0.34 1017.1 0.17 1017.29 0.34 1017.49 178.34 1017.49 178.41 1017.29 178.34 1017.1"/><polyline class="cls-14" points="178.41 1017.29 178.34 1017.49 178.46 1017.43 178.41 1017.29"/><polyline class="cls-7" points="178.46 1017.43 178.34 1017.49 178.48 1017.49 178.46 1017.43"/><polyline class="cls-6" points="0.06 1017.1 0 1017.1 0.05 1017.16 0.06 1017.1"/><polyline class="cls-15" points="0.34 1017.1 0.16 1017.1 0.11 1017.23 0.17 1017.29 0.34 1017.1"/><polyline class="cls-14" points="0.16 1017.1 0.06 1017.1 0.05 1017.16 0.11 1017.23 0.16 1017.1"/><polyline class="cls-3" points="179.18 1017.49 178.48 1017.49 302.94 1364.06 521 1175.95 179.18 1017.49"/><polyline class="cls-11" points="178.34 1017.1 178.41 1017.29 178.46 1017.16 178.34 1017.1"/><polyline class="cls-16" points="178.46 1017.16 178.41 1017.29 178.46 1017.43 178.76 1017.29 178.46 1017.16"/><polyline class="cls-12" points="178.76 1017.29 178.46 1017.43 178.48 1017.49 179.18 1017.49 178.76 1017.29"/><polyline class="cls-4" points="978.71 1017.49 522.13 1017.49 909.46 1150.47 978.71 1017.49"/><polyline class="cls-9" points="978.71 1017.1 522.14 1017.1 521.57 1017.29 522.13 1017.49 978.71 1017.49 978.81 1017.29 978.71 1017.1"/><polyline class="cls-17" points="522.14 1017.1 521.31 1017.1 521.24 1017.18 521.57 1017.29 522.14 1017.1"/><polyline class="cls-18" points="521.31 1017.1 521 1017.1 521.24 1017.18 521.31 1017.1"/><polyline class="cls-18" points="978.91 1017.1 978.71 1017.1 978.81 1017.29 978.91 1017.1"/><path class="cls-4" d="M798.24,1364.06h0m111.22-213.59h0L798.24,1364.06l193.55-102.48-82.33-111.11"/><polyline class="cls-4" points="1451.48 1157.17 1347.84 1255.91 1347.84 1255.92 1451.48 1490.19 1451.48 1157.17"/><polyline class="cls-3" points="1177.21 1163.41 1188.02 1408.19 1188.04 1408.19 1347.84 1255.92 1177.21 1163.41"/><polyline class="cls-4" points="1188.04 1408.19 1188.04 1408.19 1188.02 1408.19 1017.74 1426.88 1334.35 1517.51 1188.04 1408.19"/><polyline class="cls-4" points="1451.48 1017.49 979.44 1017.49 1177.21 1163.41 1451.48 1018.2 1451.48 1017.49"/><polyline class="cls-9" points="1451.48 1017.1 979.44 1017.1 979.17 1017.29 979.44 1017.49 1451.48 1017.49 1451.48 1017.1"/><polyline class="cls-18" points="979.44 1017.1 978.91 1017.1 979.17 1017.29 979.44 1017.1"/><polyline class="cls-3" points="522.13 1017.49 521.31 1017.49 798.24 1364.06 909.46 1150.47 522.13 1017.49"/><polyline class="cls-11" points="521.57 1017.29 521.24 1017.41 521.31 1017.49 522.13 1017.49 521.57 1017.29"/><polyline class="cls-16" points="521.24 1017.18 521.16 1017.29 521.24 1017.41 521.57 1017.29 521.24 1017.18"/><polyline class="cls-13" points="521 1017.1 521.16 1017.29 521.24 1017.18 521 1017.1"/><polyline class="cls-5" points="521.31 1017.49 521 1017.49 521 1175.95 798.24 1364.06 521.31 1017.49"/><polyline class="cls-10" points="521.24 1017.41 521 1017.49 521.31 1017.49 521.24 1017.41"/><polyline class="cls-19" points="521.16 1017.29 521 1017.49 521.24 1017.41 521.16 1017.29"/><polyline class="cls-8" points="521 1017.1 521 1017.49 521.16 1017.29 521 1017.1"/><polyline class="cls-4" points="521 1017.49 179.18 1017.49 521 1175.95 521 1017.49"/><polyline class="cls-9" points="178.48 1017.1 178.34 1017.1 178.46 1017.16 178.48 1017.1"/><polyline class="cls-17" points="179.18 1017.1 178.48 1017.1 178.46 1017.16 178.76 1017.29 179.18 1017.1"/><polyline class="cls-20" points="521 1017.1 179.18 1017.1 178.76 1017.29 179.18 1017.49 521 1017.49 521 1017.1"/><polyline class="cls-2" points="521 1175.95 521 1175.95 302.94 1364.06 798.24 1364.06 521 1175.95"/><polyline class="cls-3" points="909.46 1150.47 909.46 1150.47 991.79 1261.58 1177.21 1163.41 909.46 1150.47"/><polyline class="cls-5" points="1451.48 1021.8 1347.84 1255.91 1451.48 1157.17 1451.48 1155.19 1452.52 1156.18 1451.48 1155.19 1451.48 1021.8"/><polyline class="cls-2" points="1451.48 1018.2 1177.21 1163.41 1347.84 1255.92 1347.84 1255.91 1451.48 1021.8 1451.48 1018.2"/><polyline class="cls-4" points="991.79 1261.58 1017.74 1426.88 1188.02 1408.19 991.79 1261.58"/><polyline class="cls-5" points="979.17 1017.29 978.91 1017.49 978.81 1017.29 978.91 1017.49 978.71 1017.49 909.46 1150.47 1177.21 1163.41 979.44 1017.49 978.91 1017.49 979.17 1017.29"/><polyline class="cls-10" points="978.81 1017.29 978.71 1017.49 978.91 1017.49 978.81 1017.29"/><polyline class="cls-10" points="979.17 1017.29 978.91 1017.49 979.44 1017.49 979.17 1017.29"/><polyline class="cls-8" points="978.91 1017.1 978.91 1017.1 978.81 1017.29 978.91 1017.49 979.17 1017.29 978.91 1017.1"/><polyline class="cls-5" points="1347.84 1255.92 1188.04 1408.19 1451.48 1494.21 1451.48 1490.19 1347.84 1255.92"/><polyline class="cls-5" points="71.49 1764.09 0 2034.59 366.5 2034.59 71.49 1764.09"/><polyline class="cls-2" points="64.84 1426.88 100.71 1653.55 201.83 1508.8 64.84 1426.88"/><polyline class="cls-2" points="0.06 1017.49 0 1017.49 0 1451.27 64.84 1426.88 0.06 1017.49"/><polyline class="cls-6" points="0.05 1017.43 0 1017.49 0.06 1017.49 0.05 1017.43"/><path class="cls-6" d="M0,1017.49H0m0-.39v.39l0-.19,0-.19"/><polyline class="cls-15" points="0.04 1017.38 0 1017.49 0.05 1017.43 0.04 1017.38"/><polyline class="cls-14" points="0.03 1017.29 0 1017.49 0.04 1017.38 0.03 1017.29"/><polyline class="cls-5" points="0.34 1017.49 0.16 1017.49 201.83 1508.8 302.94 1364.06 0.34 1017.49"/><polyline class="cls-10" points="0.17 1017.29 0.11 1017.37 0.16 1017.49 0.34 1017.49 0.17 1017.29"/><polyline class="cls-10" points="0 1017.1 0.04 1017.21 0.05 1017.16 0 1017.1"/><polyline class="cls-8" points="0.11 1017.23 0.08 1017.29 0.11 1017.37 0.17 1017.29 0.11 1017.23"/><polyline class="cls-19" points="0.05 1017.16 0.04 1017.21 0.08 1017.29 0.11 1017.23 0.05 1017.16"/><polyline class="cls-2" points="638.33 1872.72 366.5 2034.59 704.35 2034.59 638.33 1872.72"/><polyline class="cls-3" points="638.34 1872.72 638.33 1872.72 704.35 2034.59 864.87 2034.59 726.78 1935.92 638.34 1872.72"/><polyline class="cls-4" points="100.71 1653.55 0 1653.55 71.49 1764.09 100.71 1653.55"/><polyline class="cls-5" points="100.71 1653.55 100.71 1653.55 71.49 1764.09 366.5 1678.47 100.71 1653.55"/><polyline class="cls-5" points="64.84 1426.88 64.84 1426.88 0 1451.27 0 1653.55 100.71 1653.55 64.84 1426.88"/><polyline class="cls-3" points="0.16 1017.49 0.06 1017.49 64.84 1426.88 201.83 1508.8 0.16 1017.49"/><polyline class="cls-11" points="0.11 1017.37 0.05 1017.43 0.06 1017.49 0.16 1017.49 0.11 1017.37"/><polyline class="cls-11" points="0 1017.1 0.03 1017.29 0.04 1017.21 0 1017.1"/><polyline class="cls-13" points="0.08 1017.29 0.04 1017.38 0.05 1017.43 0.11 1017.37 0.08 1017.29"/><polyline class="cls-16" points="0.04 1017.21 0.03 1017.29 0.04 1017.38 0.08 1017.29 0.04 1017.21"/><polyline class="cls-2" points="871.29 1841.92 726.78 1935.92 864.87 2034.59 871.29 1841.92"/><polyline class="cls-4" points="1166.39 1819.25 871.29 1841.92 864.87 2034.59 1166.39 1819.25"/><polyline class="cls-5" points="1334.35 1517.52 1166.4 1549.39 1166.4 1819.25 1334.35 1517.52"/><polyline class="cls-3" points="0 1653.55 0 1792.06 0 2034.59 71.49 1764.09 0 1653.55"/><polyline class="cls-2" points="366.5 1678.47 366.5 1678.47 71.49 1764.09 366.5 2034.59 366.5 1678.47"/><polyline class="cls-3" points="201.83 1508.8 201.83 1508.8 100.71 1653.55 366.5 1678.47 201.83 1508.8"/><polyline class="cls-3" points="302.94 1364.06 302.94 1364.06 201.83 1508.8 610.46 1492.05 302.94 1364.06"/><polyline class="cls-4" points="610.46 1492.05 201.83 1508.8 366.5 1678.47 610.46 1492.05"/><polyline class="cls-3" points="610.47 1492.05 610.46 1492.05 366.5 1678.47 638.33 1872.71 610.47 1492.05"/><polyline class="cls-5" points="366.5 1678.47 366.5 1678.47 366.5 2034.59 638.33 1872.72 638.33 1872.71 366.5 1678.47"/><polyline class="cls-5" points="798.24 1364.06 302.94 1364.06 610.46 1492.05 610.47 1492.05 798.24 1364.06"/><polyline class="cls-3" points="798.24 1364.06 798.24 1364.06 610.47 1492.05 879.23 1603.91 798.24 1364.06"/><polyline class="cls-5" points="991.79 1261.58 991.79 1261.58 798.24 1364.06 1017.74 1426.88 991.79 1261.58"/><polyline class="cls-4" points="798.24 1364.06 879.23 1603.91 1017.74 1426.88 798.24 1364.06"/><polyline class="cls-2" points="1177.21 1163.41 1177.21 1163.41 991.79 1261.58 1188.02 1408.19 1177.21 1163.41"/><polyline class="cls-2" points="1188.04 1408.19 1334.35 1517.51 1334.35 1517.52 1451.48 1495.28 1451.48 1494.89 1451.48 1494.21 1188.04 1408.19"/><polyline class="cls-5" points="871.29 1841.92 638.34 1872.72 726.78 1935.92 871.29 1841.92"/><polyline class="cls-5" points="610.47 1492.05 638.33 1872.71 879.23 1603.91 610.47 1492.05"/><polyline class="cls-3" points="879.23 1603.91 879.23 1603.91 871.29 1841.92 1166.39 1819.25 879.23 1603.91"/><polyline class="cls-2" points="879.23 1603.91 638.33 1872.71 638.33 1872.72 638.34 1872.72 871.29 1841.92 879.23 1603.91"/><polyline class="cls-4" points="1166.4 1549.39 879.23 1603.91 1166.39 1819.25 1166.4 1819.25 1166.4 1549.39"/><polyline class="cls-3" points="1017.74 1426.88 1017.74 1426.88 879.23 1603.91 1166.4 1549.39 1017.74 1426.88"/><polyline class="cls-5" points="1451.48 1665.07 1166.4 1819.25 1166.4 1819.26 1328.83 1941.07 1334.35 1936.88 1451.48 1668.7 1451.48 1665.07"/><polyline class="cls-5" points="1328.83 1941.07 1328.83 1941.07 1205.41 2034.59 1452.82 2034.59 1453.19 2034.31 1452.52 2033.81 1451.48 2034.59 1451.48 2033.03 1328.83 1941.07"/><polyline class="cls-2" points="1166.4 1819.26 1205.41 2034.59 1328.83 1941.07 1166.4 1819.26"/><polyline class="cls-3" points="1166.4 1819.25 1166.39 1819.25 864.87 2034.59 1205.41 2034.59 1166.4 1819.26 1166.4 1819.25"/><polyline class="cls-2" points="1017.74 1426.88 1166.4 1549.39 1334.35 1517.52 1334.35 1517.51 1017.74 1426.88"/><polyline class="cls-3" points="1451.48 1495.28 1334.35 1517.52 1166.4 1819.25 1451.48 1665.07 1451.48 1663.94 1451.48 1495.28"/><path class="cls-4" d="M1453.56,2033l-1,.78.67.5.37-.28v-1m-2.08-364.33-117.13,268.18-5.52,4.19,122.65,92V1668.7"/><path class="cls-2" d="M2906.92,1017.1H2905v.39l-.74-.39.74.39H2730l-124.8,346.57L2906.46,1020l.46-2.9m2.08,0h-2.08v2.38l2.08-2.38"/><polyline class="cls-14" points="2904.3 1017.1 2730.17 1017.1 2730.03 1017.49 2905.04 1017.49 2904.3 1017.1"/><polyline class="cls-7" points="2905.04 1017.1 2904.87 1017.1 2905.04 1017.49 2905.04 1017.1"/><polyline class="cls-6" points="2904.87 1017.1 2904.3 1017.1 2905.04 1017.49 2904.87 1017.1"/><polyline class="cls-3" points="2730.03 1017.49 2729.33 1017.49 2386.58 1175.95 2605.23 1364.06 2730.03 1017.49"/><polyline class="cls-16" points="2730.17 1017.1 2729.33 1017.49 2730.03 1017.49 2730.17 1017.1"/><polyline class="cls-2" points="1973.62 1017.1 1973.62 1017.1 1972.48 1017.49 1972.79 1017.1 1972.48 1017.49 1927.62 1017.49 1997.06 1150.47 2385.44 1017.49 1972.48 1017.49 1973.62 1017.1"/><polyline class="cls-6" points="2386.58 1017.1 1973.62 1017.1 1972.48 1017.49 2385.44 1017.49 2386.58 1017.1"/><polyline class="cls-14" points="1973.62 1017.1 1972.79 1017.1 1972.48 1017.49 1973.62 1017.1"/><polyline class="cls-15" points="1972.79 1017.1 1972.48 1017.1 1972.48 1017.49 1972.79 1017.1"/><polyline class="cls-7" points="1972.48 1017.1 1927.42 1017.1 1927.62 1017.49 1972.48 1017.49 1972.48 1017.1"/><path class="cls-4" d="M2108.58,1364.06h0m-111.52-213.59-82.56,111.11,194.08,102.48-111.52-213.59"/><polyline class="cls-5" points="1453.56 1157.17 1453.56 1490.2 1557.48 1255.92 1557.48 1255.91 1453.56 1157.17"/><polyline class="cls-9" points="1452.52 1156.18 1451.48 1157.17 1451.48 1490.19 1452.52 1492.54 1453.56 1490.2 1453.56 1157.17 1452.52 1156.18"/><polyline class="cls-8" points="1451.48 1155.19 1451.48 1157.17 1452.52 1156.18 1451.48 1155.19"/><polyline class="cls-8" points="1451.48 1490.19 1451.48 1494.21 1451.74 1494.3 1452.52 1492.54 1451.48 1490.19"/><polyline class="cls-10" points="1451.48 1494.21 1451.48 1494.89 1451.74 1494.3 1451.48 1494.21"/><polyline class="cls-3" points="1728.59 1163.41 1557.48 1255.92 1717.73 1408.19 1717.74 1408.19 1728.59 1163.41"/><polyline class="cls-4" points="1717.74 1408.19 1717.74 1408.19 1717.73 1408.19 1571.02 1517.51 1888.49 1426.88 1717.74 1408.19"/><polyline class="cls-4" points="1926.89 1017.49 1629.82 1017.49 1453.56 1017.49 1453.56 1018.2 1728.59 1163.41 1926.89 1017.49"/><polyline class="cls-9" points="1629.96 1017.1 1453.62 1017.1 1453.56 1017.49 1629.82 1017.49 1629.96 1017.1"/><polyline class="cls-17" points="1630.66 1017.1 1629.96 1017.1 1629.82 1017.49 1630.66 1017.1"/><polyline class="cls-20" points="1927.42 1017.1 1630.66 1017.1 1629.82 1017.49 1926.89 1017.49 1927.42 1017.1"/><polyline class="cls-21" points="1453.62 1017.1 1453.56 1017.1 1453.56 1017.49 1453.62 1017.1"/><polyline class="cls-20" points="1452.82 1017.49 1452.22 1017.49 1452.52 1017.65 1452.82 1017.49"/><polyline class="cls-22" points="1451.54 1017.1 1451.48 1017.1 1451.54 1017.13 1451.54 1017.1"/><polyline class="cls-23" points="1452.82 1017.1 1451.82 1017.1 1451.71 1017.22 1452.22 1017.49 1452.82 1017.49 1453.19 1017.29 1452.82 1017.1"/><polyline class="cls-20" points="1453.56 1017.1 1453.39 1017.1 1453.42 1017.17 1453.56 1017.1"/><polyline class="cls-23" points="1453.39 1017.1 1452.82 1017.1 1453.19 1017.29 1453.42 1017.17 1453.39 1017.1"/><polyline class="cls-24" points="1451.82 1017.1 1451.64 1017.1 1451.61 1017.17 1451.71 1017.22 1451.82 1017.1"/><polyline class="cls-23" points="1451.64 1017.1 1451.54 1017.1 1451.54 1017.13 1451.61 1017.17 1451.64 1017.1"/><polyline class="cls-18" points="1453.56 1017.49 1453.56 1017.49 1453.39 1017.49 1453.17 1017.99 1453.56 1018.2 1453.56 1017.49"/><polyline class="cls-25" points="1453.42 1017.42 1453.39 1017.49 1453.56 1017.49 1453.42 1017.42"/><polyline class="cls-26" points="1453.56 1017.1 1453.56 1017.1 1453.47 1017.29 1453.56 1017.49 1453.56 1017.1"/><polyline class="cls-25" points="1453.47 1017.29 1453.42 1017.42 1453.56 1017.49 1453.47 1017.29"/><polyline class="cls-9" points="1453.39 1017.49 1452.82 1017.49 1452.52 1017.65 1453.17 1017.99 1453.39 1017.49"/><polyline class="cls-27" points="1453.19 1017.29 1452.82 1017.49 1453.39 1017.49 1453.42 1017.42 1453.19 1017.29"/><polyline class="cls-28" points="1453.56 1017.1 1453.42 1017.17 1453.47 1017.29 1453.56 1017.1"/><polyline class="cls-27" points="1453.42 1017.17 1453.19 1017.29 1453.42 1017.42 1453.47 1017.29 1453.42 1017.17"/><polyline class="cls-3" points="2386.27 1017.49 2385.44 1017.49 1997.06 1150.47 2108.58 1364.06 2386.27 1017.49"/><polyline class="cls-11" points="2386.58 1017.1 2385.44 1017.49 2386.27 1017.49 2386.58 1017.1"/><polyline class="cls-5" points="2386.58 1017.49 2386.27 1017.49 2108.58 1364.06 2386.58 1175.95 2386.58 1017.49"/><polyline class="cls-10" points="2386.58 1017.1 2386.58 1017.1 2386.27 1017.49 2386.58 1017.49 2386.58 1017.1"/><polyline class="cls-4" points="2430.92 1017.1 2430.92 1017.1 2430.39 1017.49 2430.19 1017.1 2430.39 1017.49 2386.58 1017.49 2386.58 1175.95 2729.33 1017.49 2430.39 1017.49 2430.92 1017.1"/><polyline class="cls-9" points="2430.19 1017.1 2386.58 1017.1 2386.58 1017.49 2430.39 1017.49 2430.19 1017.1"/><polyline class="cls-17" points="2730.17 1017.1 2430.92 1017.1 2430.39 1017.49 2729.33 1017.49 2730.17 1017.1"/><polyline class="cls-18" points="2430.92 1017.1 2430.19 1017.1 2430.39 1017.49 2430.92 1017.1"/><polyline class="cls-2" points="2386.58 1175.95 2386.58 1175.95 2108.58 1364.06 2605.23 1364.06 2386.58 1175.95"/><polyline class="cls-3" points="1997.06 1150.47 1728.59 1163.41 1914.5 1261.58 1997.06 1150.47"/><polyline class="cls-4" points="1453.56 1021.79 1453.56 1155.19 1452.52 1156.18 1453.56 1155.19 1453.56 1157.17 1557.48 1255.91 1453.56 1021.79"/><polyline class="cls-20" points="1453.56 1155.19 1452.52 1156.18 1453.56 1157.17 1453.56 1155.19"/><polyline class="cls-20" points="1451.65 1017.49 1451.48 1017.49 1451.48 1018.2 1451.88 1017.99 1451.65 1017.49"/><polyline class="cls-22" points="1451.48 1017.1 1451.48 1017.1 1451.48 1017.49 1451.53 1017.2 1451.48 1017.1"/><polyline class="cls-23" points="1451.6 1017.36 1451.48 1017.49 1451.65 1017.49 1451.6 1017.36"/><polyline class="cls-24" points="1451.56 1017.29 1451.48 1017.49 1451.6 1017.36 1451.56 1017.29"/><polyline class="cls-23" points="1451.53 1017.2 1451.48 1017.49 1451.56 1017.29 1451.53 1017.2"/><polyline class="cls-18" points="1452.52 1019.45 1451.48 1021.8 1451.48 1155.19 1452.52 1156.18 1453.56 1155.19 1453.56 1021.79 1452.52 1019.45"/><polyline class="cls-9" points="1451.88 1017.99 1451.48 1018.2 1451.48 1021.8 1452.52 1019.45 1451.88 1017.99"/><polyline class="cls-2" points="1453.56 1018.2 1453.56 1021.79 1557.48 1255.91 1557.48 1255.92 1728.59 1163.41 1453.56 1018.2"/><polyline class="cls-7" points="1452.22 1017.49 1451.65 1017.49 1451.88 1017.99 1452.52 1017.65 1452.22 1017.49"/><polyline class="cls-29" points="1451.48 1017.1 1451.53 1017.2 1451.54 1017.13 1451.48 1017.1"/><polyline class="cls-30" points="1451.71 1017.22 1451.6 1017.36 1451.65 1017.49 1452.22 1017.49 1451.71 1017.22"/><polyline class="cls-31" points="1451.61 1017.17 1451.56 1017.29 1451.6 1017.36 1451.71 1017.22 1451.61 1017.17"/><polyline class="cls-29" points="1451.54 1017.13 1451.53 1017.2 1451.56 1017.29 1451.61 1017.17 1451.54 1017.13"/><polyline class="cls-15" points="1453.17 1017.99 1452.52 1019.45 1453.56 1021.79 1453.56 1018.2 1453.17 1017.99"/><polyline class="cls-6" points="1452.52 1017.65 1451.88 1017.99 1452.52 1019.45 1453.17 1017.99 1452.52 1017.65"/><polyline class="cls-4" points="1914.5 1261.58 1717.74 1408.19 1888.49 1426.88 1914.5 1261.58"/><polyline class="cls-5" points="1927.62 1017.49 1926.89 1017.49 1728.59 1163.41 1997.06 1150.47 1927.62 1017.49"/><polyline class="cls-9" points="1927.42 1017.1 1927.42 1017.1 1926.89 1017.49 1927.62 1017.49 1927.42 1017.1"/><polyline class="cls-5" points="1557.48 1255.92 1557.48 1255.92 1453.56 1490.2 1453.56 1494.21 1717.73 1408.19 1557.48 1255.92"/><polyline class="cls-9" points="1453.56 1490.2 1452.52 1492.54 1453.3 1494.3 1453.56 1494.21 1453.56 1490.2"/><polyline class="cls-8" points="1452.52 1492.54 1451.74 1494.3 1452.52 1494.55 1453.3 1494.3 1452.52 1492.54"/><polyline class="cls-10" points="1451.74 1494.3 1451.48 1494.89 1452.52 1494.55 1451.74 1494.3"/><polyline class="cls-5" points="2835.64 1765.62 2541.5 2034.59 2909 2034.59 2906.92 2026.74 2906.92 2034.59 2835.64 1765.62"/><path class="cls-2" d="M2808,1653.55h0m33.67-225.3-135.06,80.55,99.69,142.33,35.37-222.88"/><polyline class="cls-6" points="2906.92 1017.1 2906.92 1017.1 2906.46 1020 2906.92 1019.48 2906.92 1017.1"/><polyline class="cls-2" points="2906.92 1030.21 2843.98 1426.88 2843.18 1427.36 2843.98 1426.88 2843.86 1427.62 2906.92 1451.27 2906.92 1030.21"/><polyline class="cls-6" points="2843.98 1426.88 2843.18 1427.36 2843.86 1427.62 2843.98 1426.88"/><polyline class="cls-5" points="2909 1017.1 2906.92 1019.48 2906.92 1022.15 2909 1017.1"/><polyline class="cls-5" points="2906.46 1020 2605.23 1364.06 2706.62 1508.8 2905.61 1025.33 2906.46 1020"/><polyline class="cls-10" points="2906.92 1019.48 2906.46 1020 2905.61 1025.33 2906.92 1022.15 2906.92 1019.48"/><polyline class="cls-2" points="2268.93 1872.72 2202.73 2034.59 2541.5 2034.59 2268.93 1872.72"/><polyline class="cls-3" points="2268.93 1872.72 2268.92 1872.72 2180.24 1935.92 2041.78 2034.59 2202.73 2034.59 2268.93 1872.72"/><polyline class="cls-4" points="2906.92 1653.55 2808.01 1653.55 2836.71 1761.81 2906.92 1653.55"/><polyline class="cls-5" points="2805.98 1653.74 2541.5 1678.47 2835.06 1763.44 2805.98 1653.74"/><polyline class="cls-9" points="2808.01 1653.55 2808.01 1653.55 2805.98 1653.74 2835.06 1763.44 2835.56 1763.58 2836.71 1761.81 2808.01 1653.55"/><polyline class="cls-5" points="2843.86 1427.62 2808.01 1653.55 2906.92 1653.55 2906.92 1451.27 2843.86 1427.62"/><polyline class="cls-10" points="2843.18 1427.36 2841.68 1428.25 2806.31 1651.13 2808.01 1653.55 2843.86 1427.62 2843.18 1427.36"/><path class="cls-3" d="M2905.61,1025.33l-199,483.47,135.06-80.55.22-1.37,63.71-401.55m3.39-8.23-2.08,5.05v8.06l2.08-13.11"/><polyline class="cls-11" points="2906.92 1022.15 2905.61 1025.33 2841.9 1426.88 2843.18 1427.36 2843.98 1426.88 2906.92 1030.21 2906.92 1022.15"/><polyline class="cls-13" points="2841.9 1426.88 2841.68 1428.25 2843.18 1427.36 2841.9 1426.88"/><polyline class="cls-2" points="2035.33 1841.92 2041.78 2034.59 2180.24 1935.92 2035.33 1841.92"/><polyline class="cls-4" points="1739.43 1819.25 2041.78 2034.59 2035.33 1841.92 1739.43 1819.25"/><polyline class="cls-5" points="1571.02 1517.52 1739.42 1819.25 1739.42 1549.39 1571.02 1517.52"/><polyline class="cls-3" points="2906.92 1653.55 2906.92 1653.55 2836.71 1761.81 2837.31 1764.09 2835.64 1765.62 2837.31 1764.09 2906.92 2026.74 2906.92 1792.06 2906.92 1653.55"/><polyline class="cls-13" points="2837.31 1764.09 2835.64 1765.62 2906.92 2034.59 2906.92 2026.74 2837.31 1764.09"/><polyline class="cls-13" points="2836.71 1761.81 2835.56 1763.58 2837.31 1764.09 2836.71 1761.81"/><polyline class="cls-2" points="2541.5 1678.47 2541.5 2034.59 2835.64 1765.62 2835.23 1764.09 2835.06 1763.44 2541.5 1678.47"/><polyline class="cls-7" points="2835.06 1763.44 2835.23 1764.09 2835.56 1763.58 2835.06 1763.44"/><polyline class="cls-14" points="2835.56 1763.58 2835.23 1764.09 2835.64 1765.62 2837.31 1764.09 2835.56 1763.58"/><polyline class="cls-3" points="2706.62 1508.8 2541.5 1678.47 2805.98 1653.74 2805.93 1653.55 2808.01 1653.55 2805.93 1653.55 2806.31 1651.13 2706.62 1508.8"/><polyline class="cls-12" points="2808.01 1653.55 2805.93 1653.55 2805.98 1653.74 2808.01 1653.55"/><polyline class="cls-13" points="2806.31 1651.13 2805.93 1653.55 2808.01 1653.55 2806.31 1651.13"/><polyline class="cls-3" points="2605.23 1364.06 2605.23 1364.06 2296.87 1492.05 2706.62 1508.8 2605.23 1364.06"/><polyline class="cls-4" points="2296.87 1492.05 2541.5 1678.47 2706.62 1508.8 2296.87 1492.05"/><polyline class="cls-3" points="2296.87 1492.05 2296.86 1492.05 2268.93 1872.71 2541.5 1678.47 2296.87 1492.05"/><polyline class="cls-5" points="2541.5 1678.47 2268.93 1872.71 2268.93 1872.72 2541.5 2034.59 2541.5 1678.47"/><polyline class="cls-5" points="2605.23 1364.06 2108.58 1364.06 2296.86 1492.05 2296.87 1492.05 2605.23 1364.06"/><polyline class="cls-3" points="2108.58 1364.06 2108.58 1364.06 2027.38 1603.91 2296.86 1492.05 2108.58 1364.06"/><polyline class="cls-5" points="1914.5 1261.58 1914.5 1261.58 1888.49 1426.88 2108.58 1364.06 1914.5 1261.58"/><polyline class="cls-4" points="2108.58 1364.06 1888.49 1426.88 2027.38 1603.91 2108.58 1364.06"/><polyline class="cls-2" points="1728.59 1163.41 1728.59 1163.41 1717.74 1408.19 1914.5 1261.58 1728.59 1163.41"/><polyline class="cls-2" points="1717.73 1408.19 1453.56 1494.21 1453.56 1494.89 1453.56 1495.28 1571.02 1517.52 1571.02 1517.51 1717.73 1408.19"/><polyline class="cls-7" points="1453.56 1494.21 1453.3 1494.3 1453.56 1494.89 1453.56 1494.21"/><polyline class="cls-15" points="1453.3 1494.3 1452.52 1494.55 1453.56 1494.89 1453.3 1494.3"/><polyline class="cls-6" points="1452.52 1494.55 1451.48 1494.89 1452.52 1495.09 1453.56 1494.89 1452.52 1494.55"/><polyline class="cls-14" points="1453.56 1494.89 1453.56 1494.89 1452.52 1495.09 1453.56 1495.28 1453.56 1494.89"/><polyline class="cls-5" points="2035.33 1841.92 2180.24 1935.92 2268.92 1872.72 2035.33 1841.92"/><polyline class="cls-5" points="2296.86 1492.05 2027.38 1603.91 2268.93 1872.71 2296.86 1492.05"/><polyline class="cls-3" points="2027.38 1603.91 1739.43 1819.25 2035.33 1841.92 2027.38 1603.91"/><polyline class="cls-2" points="2027.38 1603.91 2035.33 1841.92 2268.92 1872.72 2268.93 1872.72 2268.93 1872.71 2027.38 1603.91"/><polyline class="cls-4" points="1739.42 1549.39 1739.42 1819.25 1739.43 1819.25 2027.38 1603.91 1739.42 1549.39"/><polyline class="cls-3" points="1888.49 1426.88 1888.49 1426.88 1739.42 1549.39 2027.38 1603.91 1888.49 1426.88"/><polyline class="cls-5" points="1453.56 1665.06 1453.56 1668.69 1571.02 1936.88 1576.55 1941.07 1739.42 1819.26 1739.42 1819.25 1453.56 1665.06"/><polyline class="cls-8" points="1452.52 1664.5 1451.88 1664.85 1452.52 1666.32 1453.16 1664.85 1452.52 1664.5"/><polyline class="cls-19" points="1451.48 1663.94 1451.88 1664.85 1452.52 1664.5 1451.48 1663.94"/><polyline class="cls-9" points="1453.16 1664.85 1452.52 1666.32 1453.56 1668.69 1453.56 1665.06 1453.16 1664.85"/><polyline class="cls-5" points="1576.55 1942.07 1453.56 2034.04 1453.56 2034.59 1453.19 2034.31 1453.56 2034.59 1452.82 2034.59 1451.48 2035.59 1700.3 2035.59 1576.55 1942.07"/><polyline class="cls-8" points="1453.19 2034.31 1452.82 2034.59 1453.56 2034.59 1453.19 2034.31"/><polyline class="cls-9" points="1453.56 2034.04 1453.19 2034.31 1453.56 2034.59 1453.56 2034.04"/><polyline class="cls-2" points="1739.42 1819.26 1576.55 1941.07 1700.3 2034.59 1739.42 1819.26"/><polyline class="cls-3" points="1739.43 1819.25 1739.43 1819.25 1739.42 1819.25 1739.42 1819.26 1700.3 2034.59 2041.78 2034.59 1739.43 1819.25"/><polyline class="cls-2" points="1888.49 1426.88 1571.02 1517.51 1571.02 1517.52 1739.42 1549.39 1888.49 1426.88"/><polyline class="cls-3" points="1453.56 1495.28 1453.56 1663.94 1453.56 1665.06 1739.42 1819.25 1571.02 1517.52 1453.56 1495.28"/><polyline class="cls-11" points="1451.48 1494.89 1451.48 1494.89 1451.48 1495.28 1452.52 1495.09 1451.48 1494.89"/><polyline class="cls-13" points="1453.56 1663.94 1452.52 1664.5 1453.16 1664.85 1453.56 1663.94"/><polyline class="cls-16" points="1452.52 1495.09 1451.48 1495.28 1451.48 1663.94 1452.52 1664.5 1453.56 1663.94 1453.56 1495.28 1452.52 1495.09"/><polyline class="cls-12" points="1453.56 1663.94 1453.56 1663.94 1453.16 1664.85 1453.56 1665.06 1453.56 1663.94"/><polyline class="cls-2" points="1453.56 1668.69 1453.56 2033.03 1576.55 1941.07 1571.02 1936.88 1453.56 1668.69"/><polyline class="cls-15" points="1451.88 1664.85 1451.48 1665.07 1451.48 1668.7 1452.52 1666.32 1451.88 1664.85"/><polyline class="cls-15" points="1451.48 2033.03 1451.48 2034.59 1452.52 2033.81 1451.48 2033.03"/><polyline class="cls-14" points="1451.48 1663.94 1451.48 1665.07 1451.88 1664.85 1451.48 1663.94"/><polyline class="cls-7" points="1452.52 1666.32 1451.48 1668.7 1451.48 2033.03 1452.52 2033.81 1453.56 2033.03 1453.56 1668.69 1452.52 1666.32"/></svg>