<svg id="Layer_1" data-name="Layer 1" xmlns="http://www.w3.org/2000/svg" xmlns:xlink="http://www.w3.org/1999/xlink" width="37.9" height="37.33" viewBox="0 0 37.9 37.33"><defs><style>.cls-1{fill:none;}.cls-2{fill:#9cdbf8;}.cls-3{fill:#fff;}.cls-4{fill:#0082c1;}.cls-5{fill:#ffca05;}.cls-6{clip-path:url(#clip-path);}.cls-7{fill:#c4e8fa;}.cls-8{fill:#f08a21;}.cls-9{fill:#ae8e39;}.cls-10{fill:#ca9532;}.cls-11{fill:#086244;}</style><clipPath id="clip-path"><path class="cls-1" d="M29.21,19.29s0,0,0-.06a10.26,10.26,0,0,0-20.51,0s0,0,0,.06a19.44,19.44,0,0,1,20.51,0"/></clipPath></defs><title>Funding Bugs for SVG</title><polygon class="cls-2" points="18.96 0.34 17.59 2.11 18.96 3.88 20.33 2.11 18.96 0.34 18.96 0.34"/><polygon class="cls-2" points="18.96 33.49 17.59 35.26 18.96 37.03 20.33 35.26 18.96 33.49 18.96 33.49"/><polygon class="cls-2" points="17.36 0.41 16.15 2.29 17.67 3.93 18.88 2.05 17.36 0.41 17.36 0.41"/><polygon class="cls-2" points="20.25 33.44 19.04 35.32 20.56 36.96 21.77 35.08 20.25 33.44 20.25 33.44"/><polygon class="cls-2" points="15.77 0.62 14.73 2.6 16.39 4.1 17.43 2.12 15.77 0.62 15.77 0.62"/><polygon class="cls-2" points="21.53 33.27 20.49 35.25 22.14 36.75 23.19 34.77 21.53 33.27 21.53 33.27"/><polygon class="cls-2" points="14.21 0.96 13.34 3.03 15.13 4.38 15.99 2.32 14.21 0.96 14.21 0.96"/><polygon class="cls-2" points="22.79 32.99 21.92 35.05 23.71 36.41 24.57 34.34 22.79 32.99 22.79 32.99"/><polygon class="cls-2" points="12.68 1.44 12 3.58 13.89 4.77 14.58 2.64 12.68 1.44 12.68 1.44"/><polygon class="cls-2" points="24.02 32.6 23.34 34.73 25.23 35.93 25.92 33.8 24.02 32.6 24.02 32.6"/><polygon class="cls-2" points="11.2 2.06 10.71 4.24 12.7 5.26 13.2 3.08 11.2 2.06 11.2 2.06"/><polygon class="cls-2" points="25.22 32.11 24.72 34.29 26.71 35.31 27.21 33.13 25.22 32.11 25.22 32.11"/><polygon class="cls-2" points="9.79 2.8 9.48 5.01 11.55 5.86 11.86 3.64 9.79 2.8 9.79 2.8"/><polygon class="cls-2" points="26.36 31.51 26.06 33.73 28.13 34.57 28.43 32.36 26.36 31.51 26.36 31.51"/><polygon class="cls-2" points="8.44 3.66 8.33 5.89 10.46 6.55 10.57 4.32 8.44 3.66 8.44 3.66"/><polygon class="cls-2" points="27.45 30.82 27.34 33.05 29.48 33.71 29.59 31.48 27.45 30.82 27.45 30.82"/><polygon class="cls-2" points="7.17 4.63 7.25 6.87 9.44 7.34 9.35 5.1 7.17 4.63 7.17 4.63"/><polygon class="cls-2" points="28.48 30.03 28.56 32.27 30.75 32.74 30.66 30.5 28.48 30.03 28.48 30.03"/><polygon class="cls-2" points="5.99 5.71 6.27 7.93 8.49 8.21 8.21 5.99 5.99 5.71 5.99 5.71"/><polygon class="cls-2" points="29.43 29.16 29.71 31.38 31.93 31.66 31.65 29.44 29.43 29.16 29.43 29.16"/><polygon class="cls-2" points="4.9 6.89 5.38 9.08 7.61 9.16 7.14 6.98 4.9 6.89 4.9 6.89"/><polygon class="cls-2" points="30.3 28.2 30.78 30.39 33.01 30.48 32.54 28.29 30.3 28.2 30.3 28.2"/><polygon class="cls-2" points="3.93 8.16 4.59 10.3 6.83 10.19 6.16 8.05 3.93 8.16 3.93 8.16"/><polygon class="cls-2" points="31.09 27.18 31.75 29.32 33.99 29.21 33.33 27.07 31.09 27.18 31.09 27.18"/><polygon class="cls-2" points="3.07 9.51 3.92 11.58 6.13 11.28 5.29 9.21 3.07 9.51 3.07 9.51"/><polygon class="cls-2" points="31.78 26.09 32.63 28.16 34.85 27.86 34 25.79 31.78 26.09 31.78 26.09"/><polygon class="cls-2" points="2.33 10.93 3.35 12.92 5.54 12.43 4.51 10.44 2.33 10.93 2.33 10.93"/><polygon class="cls-2" points="32.38 24.94 33.4 26.93 35.59 26.44 34.56 24.45 32.38 24.94 32.38 24.94"/><polygon class="cls-2" points="1.72 12.41 2.91 14.3 5.04 13.62 3.85 11.73 1.72 12.41 1.72 12.41"/><polygon class="cls-2" points="32.88 23.75 34.07 25.64 36.2 24.96 35.01 23.07 32.88 23.75 32.88 23.75"/><polygon class="cls-2" points="1.24 13.94 2.59 15.72 4.65 14.85 3.3 13.07 1.24 13.94 1.24 13.94"/><polygon class="cls-2" points="33.26 22.52 34.62 24.3 36.68 23.43 35.33 21.65 33.26 22.52 33.26 22.52"/><polygon class="cls-2" points="0.89 15.5 2.39 17.16 4.37 16.11 2.87 14.46 0.89 15.5 0.89 15.5"/><polygon class="cls-2" points="33.54 21.26 35.05 22.91 37.03 21.87 35.52 20.21 33.54 21.26 33.54 21.26"/><polygon class="cls-2" points="0.68 17.09 2.32 18.61 4.2 17.39 2.56 15.87 0.68 17.09 0.68 17.09"/><polygon class="cls-2" points="33.71 19.98 35.35 21.5 37.24 20.28 35.59 18.76 33.71 19.98 33.71 19.98"/><polygon class="cls-2" points="0.61 18.68 2.38 20.06 4.15 18.68 2.38 17.31 0.61 18.68 0.61 18.68"/><polygon class="cls-2" points="33.77 18.68 35.54 20.06 37.3 18.68 35.54 17.31 33.77 18.68 33.77 18.68"/><polygon class="cls-2" points="0.68 20.28 2.56 21.5 4.2 19.98 2.32 18.76 0.68 20.28 0.68 20.28"/><polygon class="cls-2" points="33.71 17.39 35.59 18.61 37.23 17.09 35.35 15.87 33.71 17.39 33.71 17.39"/><polygon class="cls-2" points="0.89 21.87 2.87 22.91 4.37 21.26 2.39 20.21 0.89 21.87 0.89 21.87"/><polygon class="cls-2" points="33.54 16.11 35.52 17.16 37.03 15.5 35.05 14.46 33.54 16.11 33.54 16.11"/><polygon class="cls-2" points="1.24 23.43 3.3 24.3 4.65 22.52 2.59 21.65 1.24 23.43 1.24 23.43"/><polygon class="cls-2" points="33.26 14.85 35.33 15.72 36.68 13.94 34.62 13.07 33.26 14.85 33.26 14.85"/><polygon class="cls-2" points="1.72 24.96 3.85 25.64 5.04 23.75 2.91 23.07 1.72 24.96 1.72 24.96"/><polygon class="cls-2" points="32.88 13.62 35.01 14.3 36.2 12.41 34.07 11.73 32.88 13.62 32.88 13.62"/><polygon class="cls-2" points="2.33 26.44 4.51 26.93 5.54 24.94 3.35 24.45 2.33 26.44 2.33 26.44"/><polygon class="cls-2" points="32.38 12.43 34.56 12.92 35.59 10.93 33.4 10.44 32.38 12.43 32.38 12.43"/><polygon class="cls-2" points="3.07 27.86 5.29 28.16 6.13 26.09 3.92 25.79 3.07 27.86 3.07 27.86"/><polygon class="cls-2" points="31.78 11.28 34 11.58 34.85 9.51 32.63 9.21 31.78 11.28 31.78 11.28"/><polygon class="cls-2" points="3.93 29.21 6.16 29.32 6.83 27.18 4.59 27.07 3.93 29.21 3.93 29.21"/><polygon class="cls-2" points="31.09 10.19 33.33 10.3 33.99 8.16 31.75 8.05 31.09 10.19 31.09 10.19"/><polygon class="cls-2" points="4.9 30.48 7.14 30.39 7.61 28.2 5.38 28.29 4.9 30.48 4.9 30.48"/><polygon class="cls-2" points="30.3 9.16 32.54 9.08 33.01 6.89 30.78 6.98 30.3 9.16 30.3 9.16"/><polygon class="cls-2" points="5.99 31.66 8.21 31.38 8.49 29.16 6.27 29.44 5.99 31.66 5.99 31.66"/><polygon class="cls-2" points="29.43 8.21 31.65 7.93 31.93 5.71 29.71 5.99 29.43 8.21 29.43 8.21"/><polygon class="cls-2" points="7.17 32.74 9.35 32.27 9.44 30.03 7.25 30.5 7.17 32.74 7.17 32.74"/><polygon class="cls-2" points="28.48 7.34 30.66 6.87 30.75 4.63 28.56 5.1 28.48 7.34 28.48 7.34"/><polygon class="cls-2" points="8.44 33.71 10.57 33.05 10.46 30.82 8.33 31.48 8.44 33.71 8.44 33.71"/><polygon class="cls-2" points="27.45 6.55 29.59 5.89 29.48 3.66 27.34 4.32 27.45 6.55 27.45 6.55"/><polygon class="cls-2" points="9.79 34.57 11.86 33.73 11.55 31.51 9.48 32.36 9.79 34.57 9.79 34.57"/><polygon class="cls-2" points="26.36 5.86 28.43 5.01 28.13 2.8 26.06 3.64 26.36 5.86 26.36 5.86"/><polygon class="cls-2" points="11.2 35.31 13.2 34.29 12.7 32.11 10.71 33.13 11.2 35.31 11.2 35.31"/><polygon class="cls-2" points="25.22 5.26 27.21 4.24 26.71 2.06 24.72 3.08 25.22 5.26 25.22 5.26"/><polygon class="cls-2" points="12.68 35.93 14.58 34.73 13.89 32.6 12 33.8 12.68 35.93 12.68 35.93"/><polygon class="cls-2" points="24.02 4.77 25.92 3.58 25.23 1.44 23.34 2.64 24.02 4.77 24.02 4.77"/><polygon class="cls-2" points="14.21 36.41 15.99 35.05 15.13 32.99 13.34 34.34 14.21 36.41 14.21 36.41"/><polygon class="cls-2" points="22.79 4.38 24.57 3.03 23.71 0.96 21.92 2.32 22.79 4.38 22.79 4.38"/><polygon class="cls-2" points="15.77 36.75 17.43 35.25 16.39 33.27 14.73 34.77 15.77 36.75 15.77 36.75"/><polygon class="cls-2" points="21.53 4.1 23.19 2.6 22.14 0.62 20.49 2.12 21.53 4.1 21.53 4.1"/><polygon class="cls-2" points="17.36 36.96 18.88 35.32 17.67 33.44 16.15 35.08 17.36 36.96 17.36 36.96"/><polygon class="cls-2" points="20.25 3.93 21.77 2.29 20.56 0.41 19.04 2.05 20.25 3.93 20.25 3.93"/><polygon class="cls-2" points="18.96 37.03 20.33 35.26 18.96 33.49 17.59 35.26 18.96 37.03 18.96 37.03"/><polygon class="cls-2" points="18.96 3.88 20.33 2.11 18.96 0.34 17.59 2.11 18.96 3.88 18.96 3.88"/><polygon class="cls-2" points="17.36 36.96 18.88 35.32 17.67 33.44 16.15 35.08 17.36 36.96 17.36 36.96"/><polygon class="cls-2" points="20.25 3.93 21.77 2.29 20.56 0.41 19.04 2.05 20.25 3.93 20.25 3.93"/><path class="cls-3" d="M19,35.23A16.54,16.54,0,1,0,2.41,18.68,16.56,16.56,0,0,0,19,35.23"/><path class="cls-3" d="M19,35.23v.38A16.93,16.93,0,1,0,2,18.68,16.95,16.95,0,0,0,19,35.61v-.77a16.18,16.18,0,1,1,11.42-4.74A16.11,16.11,0,0,1,19,34.84v.39"/><path class="cls-4" d="M19,34.12A15.43,15.43,0,1,0,3.52,18.68,15.45,15.45,0,0,0,19,34.12"/><path class="cls-3" d="M19,34.12v.38A15.82,15.82,0,1,0,3.14,18.68,15.83,15.83,0,0,0,19,34.5v-.76A15.07,15.07,0,1,1,29.6,29.32,15,15,0,0,1,19,33.74v.38"/><path class="cls-5" d="M29.22,19.23h0s0,0,0,.06a19.44,19.44,0,0,0-20.51,0s0,0,0-.06c0,5.66,4.59,9.68,10.26,9.68s10.26-4,10.26-9.68"/><path class="cls-2" d="M29.21,19.29s0,0,0-.06a10.26,10.26,0,0,0-20.51,0s0,0,0,.06a19.44,19.44,0,0,1,20.51,0"/><g class="cls-6"><path class="cls-7" d="M19.73,16.38l-.78,0h-.41l-1-7.27a9.76,9.76,0,0,1,3.11.06l-.6,4.53a2.22,2.22,0,0,0-.44.34,2.18,2.18,0,0,0-.47.69,2.11,2.11,0,0,0-.17.84v.63a.34.34,0,0,0,0,.17l.68,0h0"/><path class="cls-7" d="M16,16.59l-.87-1.37a1,1,0,0,1,.91-.63.91.91,0,0,1,.67.28.94.94,0,0,1,.28.69v.63a.27.27,0,0,0,.13.25l.27,0h0q-.7.05-1.39.16m-1.57-2.47-1.78-2.79a9.7,9.7,0,0,1,2.64-1.61l1.17,3.72a2.19,2.19,0,0,0-.41,0,2.11,2.11,0,0,0-.84.17,2.18,2.18,0,0,0-.69.47l-.09.09"/><path class="cls-7" d="M22.13,16.62q-.62-.1-1.26-.16l.57-1.82a1,1,0,0,1,.69.91v1.06h0M23.26,15a2,2,0,0,0-.11-.32A2.19,2.19,0,0,0,22,13.56l-.19-.07,1.14-3.63a9.72,9.72,0,0,1,2.55,1.69L23.26,15"/><path class="cls-7" d="M12.73,17.39l-2.95-1.8a9.66,9.66,0,0,1,1.3-2.53l2.83,3v1h0q-.59.16-1.17.36"/><path class="cls-7" d="M25.43,17.47a19.32,19.32,0,0,0-1.86-.55L27,13.29a9.65,9.65,0,0,1,1.2,2.49l-2.77,1.69"/><path class="cls-7" d="M9.28,18.95q0-.13,0-.26a9.71,9.71,0,0,1,.06-1.1l1.57.53q-.84.38-1.63.84"/><path class="cls-7" d="M28.64,18.95q-.72-.41-1.47-.76l1.42-.48a9.76,9.76,0,0,1,0,1q0,.13,0,.26"/></g><path class="cls-3" d="M19,28.76v.39A10.46,10.46,0,1,0,8.5,18.68,10.47,10.47,0,0,0,19,29.15v-.78a9.7,9.7,0,1,1,6.84-2.84A9.65,9.65,0,0,1,19,28.37v.39"/><path class="cls-4" d="M17.15,16.45l1-.07a.32.32,0,0,0,.05-.19v-.63a2.11,2.11,0,0,0-.17-.84,2.19,2.19,0,0,0-.47-.69,2.22,2.22,0,0,0-.68-.47,2,2,0,0,0-.83-.17,2.11,2.11,0,0,0-.84.17,2.19,2.19,0,0,0-1.16,1.16,2.11,2.11,0,0,0-.17.84V17q.59-.16,1.19-.28V15.56a1,1,0,0,1,1-1,.91.91,0,0,1,.67.28.94.94,0,0,1,.28.69v.63a.27.27,0,0,0,.13.25m6.18.41v-1.3a2.11,2.11,0,0,0-.17-.84A2.19,2.19,0,0,0,22,13.56a2.11,2.11,0,0,0-.84-.17,2,2,0,0,0-.83.17,2.21,2.21,0,0,0-.68.47,2.18,2.18,0,0,0-.47.69,2.11,2.11,0,0,0-.17.84v.63a.34.34,0,0,0,0,.17c.37,0,.73,0,1.09,0a.31.31,0,0,0,.06-.21v-.63a1,1,0,0,1,1-1,.94.94,0,0,1,.69.28.92.92,0,0,1,.28.67v1.06q.6.1,1.19.23"/><path class="cls-8" d="M21.16,25.8a2,2,0,0,1-.83-.17,2.29,2.29,0,0,1-.68-.46,2.07,2.07,0,0,1-.47-.68,2.11,2.11,0,0,1-.17-.84V23a.26.26,0,0,1,.3-.3h.6a.26.26,0,0,1,.3.3v.63a1,1,0,0,0,1,1,.94.94,0,0,0,.69-.28.92.92,0,0,0,.28-.67v-2.5a.92.92,0,0,0-.28-.67.94.94,0,0,0-.69-.28.26.26,0,0,1-.3-.3v-.6a.26.26,0,0,1,.3-.3.94.94,0,0,0,.69-.28.92.92,0,0,0,.28-.67V16.62l.11,0h0q.55.09,1.08.22v1.2a2.08,2.08,0,0,1-.18.85,2.13,2.13,0,0,1-.49.7,2.14,2.14,0,0,1,.49.7,2.08,2.08,0,0,1,.18.85v2.5a2.11,2.11,0,0,1-.17.84,2.08,2.08,0,0,1-.47.68,2.26,2.26,0,0,1-.69.46,2.11,2.11,0,0,1-.84.17"/><path class="cls-9" d="M23.32,16.86q-.54-.12-1.08-.22h0q.55.09,1.08.22h0"/><path class="cls-10" d="M22.24,16.64l-.11,0h0l.11,0h0"/><path class="cls-8" d="M16.07,25.8a2.11,2.11,0,0,1-.84-.17,2.26,2.26,0,0,1-.69-.46,2.07,2.07,0,0,1-.47-.68,2.11,2.11,0,0,1-.17-.84V17l.76-.19h0l.44-.09V18a2.14,2.14,0,0,1,1-.22,2,2,0,0,1,.83.17,2.31,2.31,0,0,1,.68.46,2.08,2.08,0,0,1,.47.68,2.11,2.11,0,0,1,.17.84v3.69a2.11,2.11,0,0,1-.17.84,2.08,2.08,0,0,1-.47.68,2.29,2.29,0,0,1-.68.46,2,2,0,0,1-.83.17m0-6.79a.94.94,0,0,0-.69.28.92.92,0,0,0-.28.67v3.69a.91.91,0,0,0,.28.67.94.94,0,0,0,.69.28,1,1,0,0,0,1-1V20a1,1,0,0,0-1-1"/><path class="cls-9" d="M14.66,16.84h0l.44-.09h0l-.44.09"/><path class="cls-10" d="M13.91,17h0l.75-.19h0l-.76.19"/><path class="cls-11" d="M13.91,17q.59-.16,1.19-.28h0l-.44.09-.75.19m9.42-.17q-.54-.12-1.08-.22l-.11,0h0q.6.1,1.19.23"/><path class="cls-3" d="M15.64,19.51a.92.92,0,0,1,.28-.67.94.94,0,0,1,.69-.28,1,1,0,0,1,1,1V23.2a1,1,0,0,1-1,1,.94.94,0,0,1-.69-.28.92.92,0,0,1-.28-.67V19.51ZM18.46,16a.26.26,0,0,0,.3-.3v-.63a2.11,2.11,0,0,0-.17-.84,2.19,2.19,0,0,0-.47-.69,2.22,2.22,0,0,0-.68-.47,2,2,0,0,0-.83-.17,2.11,2.11,0,0,0-.84.17,2.19,2.19,0,0,0-1.16,1.16,2.11,2.11,0,0,0-.17.84V23.2a2.11,2.11,0,0,0,.17.84,2.07,2.07,0,0,0,.47.68,2.26,2.26,0,0,0,.69.46,2.11,2.11,0,0,0,.84.17,2,2,0,0,0,.83-.17,2.29,2.29,0,0,0,.68-.46,2.08,2.08,0,0,0,.47-.68,2.11,2.11,0,0,0,.17-.84V19.51a2.11,2.11,0,0,0-.17-.84,2.08,2.08,0,0,0-.47-.68,2.3,2.3,0,0,0-.68-.46,2,2,0,0,0-.83-.17,2.14,2.14,0,0,0-1,.22V15.11a1,1,0,0,1,1-1,.91.91,0,0,1,.67.28.94.94,0,0,1,.28.69v.63a.26.26,0,0,0,.3.3Zm5.41-.93a2.11,2.11,0,0,0-.17-.84,2.19,2.19,0,0,0-1.16-1.16,2.11,2.11,0,0,0-.84-.17,2,2,0,0,0-.83.17,2.21,2.21,0,0,0-.68.47,2.18,2.18,0,0,0-.47.69,2.11,2.11,0,0,0-.17.84v.63a.26.26,0,0,0,.3.3h.6a.26.26,0,0,0,.3-.3v-.63a1,1,0,0,1,1-1,.94.94,0,0,1,.69.28.92.92,0,0,1,.28.67v2.5a.92.92,0,0,1-.28.67.94.94,0,0,1-.69.28.26.26,0,0,0-.3.3v.6a.26.26,0,0,0,.3.3.94.94,0,0,1,.69.28.92.92,0,0,1,.28.67v2.5a.92.92,0,0,1-.28.67.94.94,0,0,1-.69.28,1,1,0,0,1-1-1v-.63a.26.26,0,0,0-.3-.3h-.6a.26.26,0,0,0-.3.3v.63a2.11,2.11,0,0,0,.17.84,2.07,2.07,0,0,0,.47.68,2.29,2.29,0,0,0,.68.46,2,2,0,0,0,.83.17,2.11,2.11,0,0,0,.84-.17,2.26,2.26,0,0,0,.69-.46A2.08,2.08,0,0,0,23.7,24a2.11,2.11,0,0,0,.17-.84V20.7a2.08,2.08,0,0,0-.18-.85,2.14,2.14,0,0,0-.49-.7,2.14,2.14,0,0,0,.49-.7,2.08,2.08,0,0,0,.18-.85v-2.5Z"/><path class="cls-5" d="M19,34.69V35a16.3,16.3,0,1,0-16.3-16.3A16.32,16.32,0,0,0,19,35v-.57A15.74,15.74,0,1,1,30.07,29.8,15.68,15.68,0,0,1,19,34.41v.29Z"/><path class="cls-5" d="M9.09,26.23a.36.36,0,0,0-.51-.07h0a.36.36,0,0,0,.44.58H9a.36.36,0,0,0,.07-.51Z"/><path class="cls-3" d="M8.46,24.34,8.3,24l-1.07.47.5-.77h0l-.91-.16L7.89,23l-.16-.36-1.65.72.17.39.89.13-.51.74.17.39,1.65-.72ZM7.52,22l-.29-1.34-.34.07.21,1-.37.08L6.54,21,6.19,21l.18.83L6,22,5.81,21l-.34.08.29,1.33L7.52,22Zm-.4-1.95v-.39L6,19.74l1.11-.92v-.34l-1.8.07v.39l1.11,0-1.08.89v.37l1.8-.07Zm0-2.71L7.19,17l-1.42-.2.08-.54-.36-.05-.21,1.48.36.05.08-.54,1.42.2Zm.14-1.12.12-.39L7,15.6l.22-.73.43,0,.12-.4-2,.22-.1.35,1.52,1.26Zm-.52-.9L6.26,15l.63-.06-.14.46ZM8,13.93l.6-1.15-.32-.17-.42.8-1.28-.67-.19.35L8,13.93ZM9.5,11.45l.26-.3-.54-.48.49-.55.54.48.26-.3L9.17,9.12l-.26.3.53.47L9,10.43,8.42,10l-.26.3,1.35,1.2ZM11,9.83,12.1,9l-.21-.28-.78.6L10.88,9l.67-.52-.21-.28-.67.52-.22-.29.77-.59L11,7.57,9.92,8.4,11,9.83Zm1.45-1.12.36-.19,0-.43.67-.36.33.28.37-.19L12.63,6.57l-.32.17.16,2Zm.28-1-.06-.63.48.41-.42.22Zm1.92-.08,1.23-.4-.11-.34-.85.28-.45-1.37-.38.12.56,1.72Zm1.94-.54L17,7,16.76,5.6l.54-.09-.06-.36-1.47.24.06.36.54-.09.23,1.42Zm1.49-.23h.4V6.14h.73v.72h.4l0-1.8h-.4v.71H18.5V5.06h-.4l0,1.8Zm3.84.44a.57.57,0,0,0,.78-.37h0c.08-.3-.08-.48-.41-.67S22,6,22,5.92h0c0-.08.12-.13.26-.09a.85.85,0,0,1,.41.29l.28-.23a1,1,0,0,0-.59-.4.56.56,0,0,0-.75.36h0c-.09.35.11.5.43.69s.32.22.29.32h0c0,.1-.14.14-.3.1a.83.83,0,0,1-.46-.35l-.3.21a1.15,1.15,0,0,0,.66.48Zm1.22.34,1.24.58.15-.32-.89-.41.16-.34.77.36.15-.32L24,6.82l.15-.33L25,6.9l.15-.32L23.92,6l-.76,1.63Zm1.78.87.33.23.33-.47.25.17h0v.69l.38.26V8.62a.56.56,0,0,0,.64-.24h0A.57.57,0,0,0,27,7.95a.72.72,0,0,0-.33-.45L26,7l-1,1.48ZM25.8,8l.29-.43.32.22c.16.11.21.25.11.39h0a.26.26,0,0,1-.4,0L25.8,8ZM27,10.13l.24.25,1.81-.75-.3-.31-1.24.55.58-1.22-.31-.31L27,10.13Zm1.11,1.2.24.31,1.43-1.1-.24-.31-1.43,1.1ZM29.18,13a.92.92,0,0,0,.64.49l.1-.34a.65.65,0,0,1-.42-.31.54.54,0,0,1,.24-.73h0a.53.53,0,0,1,.75.18.67.67,0,0,1,0,.5l.38.08a.93.93,0,0,0-.1-.76.92.92,0,0,0-1.27-.37h0A.91.91,0,0,0,29.18,13Zm.62,1.16.46,1.29.33-.12-.33-.92.36-.13.28.8.33-.12-.28-.8L31.3,14l.32.91.33-.12-.45-1.28-1.7.6Zm.69,2.52c.06.38.31.62.66.56h0c.31-.05.41-.28.44-.65s.05-.4.17-.42h0c.09,0,.17.05.19.2a.85.85,0,0,1-.1.49l.33.15a1,1,0,0,0,.12-.7.56.56,0,0,0-.64-.53h0c-.35.06-.41.31-.45.68s-.07.38-.17.4h0c-.1,0-.18-.07-.21-.23A.83.83,0,0,1,31,16l-.32-.19a1.15,1.15,0,0,0-.16.8Zm.24,2.13,0,.4.39.2-.07.76-.42.13,0,.41,1.88-.61,0-.36-1.74-.93Zm.69.77.56.29-.6.19,0-.48Zm-1.2,2.35a.92.92,0,0,0,.1.8l.32-.17a.65.65,0,0,1-.07-.51.54.54,0,0,1,.69-.34h0a.53.53,0,0,1,.39.66.67.67,0,0,1-.33.38l.21.32a.93.93,0,0,0,.47-.6.92.92,0,0,0-.63-1.17h0a.91.91,0,0,0-1.15.62Zm-.56,1.64-.18.36,1.29.64-.24.49.33.16.66-1.34-.33-.16-.24.49-1.29-.64Z"/><path class="cls-5" d="M28.68,26.22a.36.36,0,0,0,.06.51h0a.36.36,0,0,0,.44-.58h0a.36.36,0,0,0-.51.07Z"/><path class="cls-3" d="M10.34,29.37a.92.92,0,0,0,.78.21l0-.36a.65.65,0,0,1-.5-.13.54.54,0,0,1-.05-.77h0a.53.53,0,0,1,.76-.11.66.66,0,0,1,.23.45l.38-.07a.93.93,0,0,0-.38-.66.92.92,0,0,0-1.32.14h0a.91.91,0,0,0,.14,1.3Zm1.06.78.35.2.34-.27.67.37-.05.43.36.2.21-2L13,29,11.4,30.16Zm1-.31.49-.39-.08.63-.42-.23Zm1.32,1.52,1.22.43.12-.34-.85-.3.48-1.36-.37-.13-.6,1.7Zm1.93.62.39.08.38-1.76L16,30.22,15.63,32Zm1.23.27.4,0,.06-.7.86.08,0-.36-.86-.08,0-.38,1,.09,0-.36L17,30.46l-.16,1.8Zm3,.14a.93.93,0,0,0,.87-1h0a1,1,0,0,0-1.91.17h0a.92.92,0,0,0,1,.84Zm0-.36a.55.55,0,0,1-.59-.52h0a.54.54,0,0,1,.49-.61.55.55,0,0,1,.59.52h0a.54.54,0,0,1-.49.61Zm1.74.15.38-.1-.15-.56.3-.08h0l.52.46.45-.12-.59-.51a.56.56,0,0,0,.23-.64h0a.57.57,0,0,0-.26-.36.72.72,0,0,0-.56,0l-.8.22.47,1.74Zm.14-1-.14-.5.38-.1c.19-.05.32,0,.37.17h0c0,.15,0,.28-.23.33l-.39.1Zm2.06.39.35-.17-.48-1L24.9,31l.31-.14-.76-1.63-.35.17.47,1-1.23-.65-.33.15.76,1.63Zm2.2-1.1.34-.21-1-1.53-.34.21,1,1.53Zm.94-.58.31-.25-.13-.42.59-.48.38.21.32-.26-1.74-.93-.28.23.54,1.9Zm.08-1-.18-.61.55.31-.37.3Z"/><path class="cls-4" d="M13.38,13.81l.17-.17-.23-.23.13-.13a.39.39,0,0,0,0-.58h0a.37.37,0,0,0-.56,0l-.31.32.77.75Zm-.22-.54L12.92,13l.13-.13a.16.16,0,0,1,.25,0h0a.17.17,0,0,1,0,.25l-.13.13ZM14.22,13l.19-.14-.2-.28.15-.11h0l.39.14.22-.16-.44-.16a.34.34,0,0,0,0-.41h0a.34.34,0,0,0-.22-.14.43.43,0,0,0-.32.1l-.4.29.64.87Zm-.14-.59-.18-.25.19-.14c.09-.07.18-.07.24,0h0a.16.16,0,0,1-.06.23l-.19.14ZM15.74,12a.56.56,0,0,0,.28-.75h0a.57.57,0,0,0-1,.49h0a.55.55,0,0,0,.75.26Zm-.09-.2a.33.33,0,0,1-.44-.17h0a.32.32,0,0,1,.15-.44.33.33,0,0,1,.44.17h0a.32.32,0,0,1-.15.44Zm.95-.18.23-.06-.08-.31.17,0a.39.39,0,0,0,.32-.48h0a.37.37,0,0,0-.5-.25l-.43.12.28,1Zm.09-.58-.09-.32.18,0c.11,0,.2,0,.23.11h0a.17.17,0,0,1-.14.21l-.18,0Zm1.58.26a.56.56,0,0,0,.52-.61h0a.57.57,0,0,0-1.14.1h0a.55.55,0,0,0,.62.5Zm0-.22a.33.33,0,0,1-.36-.31h0a.32.32,0,0,1,.29-.36.33.33,0,0,1,.36.31h0a.32.32,0,0,1-.29.36Zm1.33.21c.23,0,.41-.08.42-.3h0c0-.19-.1-.28-.31-.35s-.23-.09-.22-.16h0c0-.05.06-.09.15-.08a.51.51,0,0,1,.27.13l.14-.17a.62.62,0,0,0-.39-.17.34.34,0,0,0-.41.29h0c0,.21.12.29.33.36s.21.1.2.16h0c0,.06-.07.1-.16.09A.5.5,0,0,1,19.3,11l-.15.15a.69.69,0,0,0,.44.21Zm.76.09.23.05.23-1.05-.23-.05-.23,1.05Zm.88.23.22.08.29-.81.31.11.07-.21-.84-.3-.07.21.31.11-.29.81Zm.85.33.21.11.48-1L22.56,11l-.48,1Zm1,.6a.56.56,0,0,0,.79-.13h0a.57.57,0,0,0-.94-.65h0a.55.55,0,0,0,.15.78Zm.13-.18a.33.33,0,0,1-.08-.46h0a.32.32,0,0,1,.46-.09.33.33,0,0,1,.08.46h0a.32.32,0,0,1-.46.09Zm.64.72.16.17.49-.48-.13.85.14.14.77-.75-.16-.17-.48.46.12-.83-.15-.16-.77.75Z"/></svg>