<svg id="Layer_1" data-name="Layer 1" xmlns="http://www.w3.org/2000/svg"  width="68px" height="68px" viewBox="0 0 136 136">
<defs>
	<style>.cls-1{fill:#fff;}.cls-2{fill:#0082c1;}.cls-3{fill:#9cdbf8;}.cls-4{fill:#c4e8fa;}.cls-5{fill:#ffca05;}.cls-6{fill:#ae8e39;}.cls-7{fill:#ca9532;}.cls-8{fill:#086244;}.cls-9{fill:#f08a21;}</style>
</defs>

<title>Prop 63</title>

<circle class="cls-1" cx="85" cy="85" r="79"/>

<path class="cls-2" d="M134.21,35.84a69.56,69.56,0,1,0,20.43,49.24A69.44,69.44,0,0,0,134.21,35.84ZM85,133.51A48.43,48.43,0,1,1,133.4,85.08,48.48,48.48,0,0,1,85,133.51Z"/><path class="cls-3" d="M165.37,88.59l4.53-3.51-4.53-3.51,4.2-3.89-4.81-3.1,3.85-4.24-5.07-2.67L167,63.1l-5.28-2.22L164.77,56l-5.45-1.75,2.62-5.09-5.58-1.27,2.16-5.3-5.67-.78,1.69-5.47-5.72-.28,1.21-5.6-5.72.22L145,25l-5.68.72.22-5.72L134,21.24l-.28-5.72-5.47,1.69-.78-5.68-5.3,2.17-1.27-5.59-5.09,2.62L114,5.28l-4.85,3.05L107,3.05l-4.56,3.46L99.72,1.45,95.48,5.3,92.37.48l-3.89,4.2L85,.16,83,2.74,81.46,4.68,77.57.48,74.47,5.3,70.23,1.45,67.55,6.51,63,3.05,60.77,8.33,55.93,5.28l-1.75,5.45L49.08,8.11,47.81,13.7l-5.3-2.16-.78,5.67-5.47-1.69L36,21.24,30.39,20l.22,5.72L24.92,25l.72,5.68-5.72-.22,1.21,5.6-5.72.28,1.69,5.47-5.68.78,2.17,5.3L8,49.19l2.62,5.09L5.17,56l3.05,4.85L2.94,63.1l3.46,4.56L1.34,70.33l3.85,4.24L.37,77.68l4.2,3.89L.05,85.08l4.53,3.51L.37,92.48l4.81,3.1L1.34,99.82l5.07,2.67-3.46,4.56,5.28,2.22-3.05,4.85,5.45,1.75L8,121l5.58,1.27-2.16,5.3,5.67.78-1.69,5.47,5.72.28-1.21,5.6,5.72-.22-.72,5.68,5.68-.72-.22,5.72,5.6-1.21.28,5.72,5.47-1.69.78,5.67,5.3-2.16L49.08,162l5.09-2.62,1.75,5.45,4.85-3.05L63,167.11l4.56-3.46,2.67,5.07,4.24-3.85,3.1,4.82,3.89-4.2L85,170h0l3.51-4.53,3.89,4.2,3.1-4.81,4.24,3.85,2.67-5.07,4.56,3.46,2.22-5.28,4.85,3.05,1.75-5.45,5.09,2.62,1.27-5.58,5.3,2.16.78-5.67,5.47,1.69.28-5.72,5.6,1.21-.22-5.72,5.68.72-.72-5.68,5.72.22-1.21-5.6,5.72-.28-1.69-5.47,5.67-.78-2.16-5.3,5.59-1.27-2.62-5.09,5.45-1.75-3.05-4.85,5.28-2.22-3.46-4.56,5.07-2.67-3.85-4.24,4.81-3.1ZM85,163.44a78.36,78.36,0,1,1,78.36-78.36A78.45,78.45,0,0,1,85,163.44Z"/><path class="cls-3" d="M116.65,53.4A44.83,44.83,0,0,0,40.15,85.08c0,.41,0,.81,0,1.21a90,90,0,0,1,89.59,0c0-.4,0-.8,0-1.21A44.68,44.68,0,0,0,116.65,53.4Z"/><path class="cls-4" d="M88.56,74.42q-1.79-.07-3.59-.07l-1.88,0L78.61,40.7A45.15,45.15,0,0,1,93,41l-2.79,21a10.29,10.29,0,0,0-2.05,1.59A10.1,10.1,0,0,0,86,66.72a9.74,9.74,0,0,0-.78,3.88v2.93a1.57,1.57,0,0,0,.19.79q1.57,0,3.13.07v0"/><path class="cls-4" d="M71.41,75.36l-4-6.33a4.45,4.45,0,0,1,4.23-2.92,4.23,4.23,0,0,1,3.11,1.29A4.34,4.34,0,0,1,76,70.6v2.93a1.23,1.23,0,0,0,.58,1.18l1.25-.11v0q-3.25.25-6.43.74M64.12,64,55.86,51a44.88,44.88,0,0,1,12.23-7.47l5.4,17.21a10.12,10.12,0,0,0-1.89-.17,9.74,9.74,0,0,0-3.88.78,10.1,10.1,0,0,0-3.19,2.16l-.41.43"/><path class="cls-4" d="M99.65,75.54q-2.87-.47-5.81-.76l2.64-8.4a4.43,4.43,0,0,1,3.17,4.23v4.92h0v0m5.24-7.33a9.39,9.39,0,0,0-.5-1.49A10.13,10.13,0,0,0,99,61.37a9.44,9.44,0,0,0-.89-.33l5.28-16.8A45,45,0,0,1,115.23,52L104.9,68.2"/><path class="cls-4" d="M56.15,79.07,42.5,70.73a44.73,44.73,0,0,1,6-11.69L61.59,72.85V77.4h0v0q-2.75.74-5.43,1.65"/><path class="cls-4" d="M114.93,79.46a89.41,89.41,0,0,0-8.62-2.57l15.88-16.78a44.68,44.68,0,0,1,5.55,11.51l-12.81,7.83"/><path class="cls-4" d="M40.16,86.29q0-.61,0-1.22A45,45,0,0,1,40.44,80l7.27,2.44q-3.87,1.77-7.54,3.88"/><path class="cls-4" d="M129.78,86.29q-3.31-1.9-6.79-3.53l6.58-2.21a45.16,45.16,0,0,1,.23,4.53q0,.61,0,1.22"/><path class="cls-5" d="M43.09,109.35l.31.54Z"/><path class="cls-5" d="M43.75,110.46a42.74,42.74,0,0,0,3.68,5.17A48.66,48.66,0,0,1,43.75,110.46Z"/><path class="cls-5" d="M48.1,116.43l.33.38Z"/><path class="cls-5" d="M129.77,86.26a90,90,0,0,0-89.59,0,44.81,44.81,0,0,0,89.59,0Z"/><path class="cls-5" d="M121.51,116.81l.32-.37Z"/><path class="cls-5" d="M126.55,109.87l.3-.51Z"/><path class="cls-5" d="M122.52,115.63a42.74,42.74,0,0,0,3.67-5.16A48.66,48.66,0,0,1,122.52,115.63Z"/><path class="cls-6" d="M105.18,76.63q-2.48-.57-5-1v0q2.53.43,5,1h0v0"/><path class="cls-7" d="M100.16,75.62l-.5-.08v0l.51.09v0"/><path class="cls-6" d="M65.09,76.55l0,0,2-.44h0v0l-2,.43"/><path class="cls-7" d="M61.59,77.42v0h0q1.73-.46,3.49-.86l0,0q-1.77.4-3.51.87"/><path class="cls-8" d="M61.59,77.4q2.73-.73,5.52-1.3h0l-2,.44q-1.76.4-3.49.86m43.59-.79q-2.48-.57-5-1l-.51-.09h0q2.79.46,5.52,1.09"/><path class="cls-9" d="M75.46,110.15a4.3,4.3,0,0,0,1.75-1.07A4.24,4.24,0,0,0,78.51,106V88.88a4.42,4.42,0,0,0-4.4-4.4,4.34,4.34,0,0,0-3.19,1.29,4.5,4.5,0,0,0-.76,1,4.67,4.67,0,0,1,1.45-.24A4.42,4.42,0,0,1,76,91v17.09A4.23,4.23,0,0,1,75.46,110.15Z"/><path class="cls-9" d="M77.95,115.12a9.44,9.44,0,0,1-3.84.78,9.74,9.74,0,0,1-3.88-.78A10.44,10.44,0,0,1,67,113a9.58,9.58,0,0,1-2.16-3.15,9.76,9.76,0,0,1-.78-3.88V76.8c-.84.2-1.68.4-2.51.62v30.64a9.76,9.76,0,0,0,.78,3.88,9.59,9.59,0,0,0,2.16,3.15,10.44,10.44,0,0,0,3.19,2.11,9.74,9.74,0,0,0,3.88.78,9.45,9.45,0,0,0,3.84-.78,10.62,10.62,0,0,0,3.15-2.11c.21-.2.4-.41.58-.62A10.8,10.8,0,0,1,77.95,115.12Z"/><path class="cls-5" d="M85,159.18v1.32A75.44,75.44,0,1,0,9.54,85.07,75.52,75.52,0,0,0,85,160.5v-2.65a72.87,72.87,0,1,1,51.44-21.34A72.55,72.55,0,0,1,85,157.85v1.32Z"/><path class="cls-5" d="M39.31,120a1.68,1.68,0,0,0-2.35-.33h0A1.69,1.69,0,0,0,39,122.34h0a1.68,1.68,0,0,0,.3-2.35Z"/><path class="cls-1" d="M36.38,111.25l-.72-1.65-5,2.17,2.3-3.54,0,0-4.21-.72,5-2.18L33,103.61,25.38,107l.79,1.81,4.11.6-2.35,3.42.79,1.81,7.65-3.35ZM32,100.56l-1.35-6.21-1.6.35,1,4.43-1.71.37-.84-3.84-1.6.35.84,3.84-1.65.36-1-4.37-1.6.35,1.34,6.15L32,100.56Zm-1.87-9-.07-1.81-5.3.2,5.15-4.24-.06-1.56-8.34.32.07,1.81,5.14-.2-5,4.1.06,1.69,8.34-.32ZM30.25,79l.26-1.82-6.59-.92.35-2.52-1.68-.23-1,6.85,1.68.23.35-2.51,6.59.92Zm.65-5.17.53-1.79-1.58-1.27,1-3.38,2-.2.55-1.84-9.08,1L23.86,68l7,5.82ZM28.48,69.7l-2.28-1.83,2.91-.29-.63,2.13Zm5.91-6.63,2.8-5.3L35.71,57l-1.94,3.68-5.91-3.12L27,59.17l7.38,3.89ZM41.21,51.6l1.22-1.37L39.92,48l2.25-2.53,2.51,2.22,1.22-1.37-6.24-5.54-1.22,1.37,2.47,2.19-2.25,2.53-2.47-2.19L35,46.06l6.24,5.54Zm7-7.52,5-3.87-1-1.3-3.6,2.76-1.07-1.39,3.12-2.39-1-1.3L46.59,39l-1-1.34,3.55-2.72-1-1.3-5,3.83,5.08,6.62Zm6.72-5.18L56.58,38l-.2-2,3.12-1.65L61,35.67l1.7-.9L55.66,29l-1.5.79.76,9.1Zm1.28-4.63-.28-2.91,2.24,1.88-2,1Zm8.88-.37,5.7-1.85-.52-1.59-4,1.28L64.26,25.4,62.51,26l2.58,7.94Zm9-2.52,1.81-.3-1.09-6.56,2.51-.42L77,22.44l-6.82,1.13.28,1.67L73,24.82l1.09,6.56Zm6.91-1,1.84,0,0-3.35,3.39,0,0,3.35,1.84,0,.11-8.34-1.84,0,0,3.3-3.38,0,0-3.3-1.84,0L81,30.34Zm17.8,2c1.74.47,3.2-.1,3.63-1.7v0c.38-1.4-.38-2.24-1.9-3.11-1.3-.73-1.59-1-1.45-1.53v0c.11-.39.55-.6,1.23-.42a3.92,3.92,0,0,1,1.88,1.36l1.28-1.09A4.83,4.83,0,0,0,100.73,24c-1.65-.45-3.08.2-3.48,1.66v0c-.43,1.6.49,2.33,2,3.19,1.25.71,1.47,1,1.35,1.46v0c-.13.47-.64.64-1.37.45a3.83,3.83,0,0,1-2.14-1.63l-1.39,1a5.31,5.31,0,0,0,3.07,2.21ZM104.4,34l5.76,2.69.69-1.48-4.1-1.92.74-1.59,3.56,1.66.69-1.48-3.57-1.66.72-1.53,4.05,1.89.69-1.48-5.7-2.66L104.4,34Zm8.26,4,1.51,1,1.52-2.19,1.17.81h0l-.05,3.21,1.76,1.22,0-3.61a2.59,2.59,0,0,0,2.94-1.11v0a2.63,2.63,0,0,0,.5-2,3.33,3.33,0,0,0-1.52-2.08l-3.13-2.17L112.67,38Zm4-2.48,1.37-2,1.5,1c.73.51,1,1.16.51,1.8v0a1.21,1.21,0,0,1-1.83.17l-1.53-1.06Zm5.68,10,1.13,1.16,8.37-3.46-1.38-1.42-5.73,2.55,2.68-5.67L126,37.2l-3.66,8.29ZM127.42,51l1.12,1.46,6.62-5.08L134,46,127.42,51Zm4.88,7.57a4.26,4.26,0,0,0,3,2.26l.46-1.6a3,3,0,0,1-1.92-1.44,2.48,2.48,0,0,1,1.11-3.39h0a2.47,2.47,0,0,1,3.45.84,3.08,3.08,0,0,1,.22,2.32l1.75.36a4.31,4.31,0,0,0-.48-3.5A4.24,4.24,0,0,0,134,52.76h0a4.21,4.21,0,0,0-1.66,5.83ZM135.17,64l2.11,6,1.54-.54-1.5-4.27,1.65-.58,1.31,3.71,1.54-.54L140.51,64l1.6-.56,1.49,4.22,1.54-.54L143,61.19,135.17,64Zm3.2,11.69c.29,1.78,1.42,2.87,3.05,2.6h0c1.44-.24,1.88-1.28,2-3,.13-1.48.25-1.87.79-2h0c.4-.07.78.25.89.94a3.92,3.92,0,0,1-.46,2.27l1.52.72a4.83,4.83,0,0,0,.54-3.23c-.28-1.68-1.47-2.72-3-2.47h0c-1.63.27-1.92,1.42-2.06,3.15-.12,1.44-.31,1.76-.77,1.83h0c-.48.08-.85-.32-1-1.06a3.83,3.83,0,0,1,.59-2.62l-1.46-.86a5.31,5.31,0,0,0-.74,3.71Zm1.11,9.85-.17,1.87,1.8.93-.31,3.51-1.93.59-.17,1.91,8.69-2.82.15-1.69-8.06-4.31Zm3.19,3.59,2.6,1.34-2.79.87.2-2.21ZM137.1,100a4.26,4.26,0,0,0,.45,3.7l1.46-.78a3,3,0,0,1-.31-2.38,2.48,2.48,0,0,1,3.2-1.57h0a2.47,2.47,0,0,1,1.8,3.06,3.08,3.08,0,0,1-1.51,1.78l1,1.5a4.31,4.31,0,0,0,2.17-2.79,4.24,4.24,0,0,0-2.9-5.4h0A4.21,4.21,0,0,0,137.1,100Zm-2.58,7.59-.82,1.64,6,3-1.13,2.27,1.52.75,3.08-6.19-1.52-.75-1.13,2.27-6-3Z"/><path class="cls-5" d="M130,119.93a1.68,1.68,0,0,0,.29,2.36h0a1.69,1.69,0,0,0,2.05-2.68h0a1.68,1.68,0,0,0-2.35.32Z"/><path class="cls-1" d="M45.07,134.56a4.27,4.27,0,0,0,3.6,1l-.17-1.65a3,3,0,0,1-2.32-.61,2.48,2.48,0,0,1-.24-3.56l0,0a2.47,2.47,0,0,1,3.51-.51,3.08,3.08,0,0,1,1.07,2.07l1.76-.32a4.31,4.31,0,0,0-1.76-3.07,4.24,4.24,0,0,0-6.1.63l0,0a4.21,4.21,0,0,0,.64,6ZM50,138.18l1.63.91,1.58-1.26,3.08,1.72-.25,2,1.68.94,1-9.08-1.48-.83L50,138.18Zm4.58-1.44,2.29-1.82-.35,2.9-1.94-1.08Zm6.09,7,5.66,2,.55-1.57-3.92-1.38,2.22-6.3-1.73-.61-2.77,7.87Zm8.92,2.87,1.79.39,1.78-8.15-1.79-.39-1.78,8.15Zm5.7,1.25,1.83.16.29-3.22,4,.35.15-1.66-4-.35.16-1.77,4.5.4.15-1.66L76,139.58l-.74,8.31Zm13.77.64a4.32,4.32,0,0,0,4-4.69v0a4.44,4.44,0,0,0-8.83.81v0A4.28,4.28,0,0,0,89,148.53Zm-.13-1.69a2.54,2.54,0,0,1-2.75-2.39v0a2.5,2.5,0,0,1,2.26-2.81A2.54,2.54,0,0,1,91.17,144v0a2.49,2.49,0,0,1-2.26,2.81Zm8.07.7,1.77-.48-.7-2.58,1.37-.37h0l2.42,2.11,2.07-.56-2.75-2.34a2.59,2.59,0,0,0,1.05-3v0a2.62,2.62,0,0,0-1.19-1.65,3.32,3.32,0,0,0-2.57-.18l-3.68,1L97,147.54Zm.65-4.62L97,140.61l1.76-.48c.86-.23,1.5,0,1.7.77v0c.18.68-.19,1.27-1,1.51l-1.8.49Zm9.52,1.81,1.64-.77-2.24-4.81,5.91,3.1,1.41-.66L110.34,134l-1.64.77,2.17,4.66-5.72-3-1.53.72,3.53,7.56Zm10.2-5.09,1.56-1-4.42-7.08-1.56,1,4.42,7.08Zm4.35-2.71,1.46-1.17-.58-1.94,2.75-2.21,1.77,1,1.5-1.2-8.06-4.3-1.32,1.06,2.49,8.79Zm.37-4.78-.83-2.8,2.56,1.41-1.73,1.39Z"/><path class="cls-2" d="M59.13,62.51l.77-.79-1.07-1,.58-.6a1.78,1.78,0,0,0,.16-2.67h0a1.71,1.71,0,0,0-2.57.16L55.56,59l3.57,3.49Zm-1-2.52L57,58.93l.59-.61a.76.76,0,0,1,1.16-.11h0a.77.77,0,0,1-.07,1.15l-.61.62ZM63,58.67l.89-.65L63,56.73l.69-.5h0l1.81.66,1-.76-2-.72a1.55,1.55,0,0,0,0-1.88h0a1.57,1.57,0,0,0-1-.67,2,2,0,0,0-1.47.45l-1.84,1.35,2.94,4Zm-.63-2.72-.85-1.16.88-.64c.43-.32.84-.31,1.12.07h0a.73.73,0,0,1-.26,1.07l-.9.66Zm7.66-1.63a2.58,2.58,0,0,0,1.32-3.47h0a2.66,2.66,0,0,0-4.8,2.26h0a2.56,2.56,0,0,0,3.49,1.21Zm-.42-.92a1.52,1.52,0,0,1-2-.78h0a1.49,1.49,0,0,1,.7-2,1.52,1.52,0,0,1,2,.78h0a1.49,1.49,0,0,1-.7,2Zm4.39-.85,1.06-.29-.39-1.45.81-.22A1.78,1.78,0,0,0,77,48.37h0a1.71,1.71,0,0,0-2.3-1.17l-2,.53,1.31,4.82Zm.41-2.68-.4-1.47.82-.22c.53-.14.93,0,1.06.5h0a.77.77,0,0,1-.64,1l-.84.23Zm7.33,1.19a2.58,2.58,0,0,0,2.42-2.81h0a2.66,2.66,0,0,0-5.29.48h0a2.56,2.56,0,0,0,2.86,2.32Zm-.08-1a1.52,1.52,0,0,1-1.65-1.43h0a1.49,1.49,0,0,1,1.35-1.68,1.52,1.52,0,0,1,1.65,1.43h0A1.49,1.49,0,0,1,81.73,50Zm6.15,1c1.07.1,1.88-.39,2-1.38h0c.08-.87-.46-1.28-1.44-1.63s-1-.42-1-.75h0c0-.24.26-.41.68-.38a2.34,2.34,0,0,1,1.25.6l.64-.77a2.89,2.89,0,0,0-1.79-.8,1.56,1.56,0,0,0-1.87,1.34h0c-.09,1,.53,1.32,1.51,1.67.81.29,1,.44.95.72h0c0,.29-.31.45-.76.41a2.29,2.29,0,0,1-1.43-.74l-.72.72a3.18,3.18,0,0,0,2,1Zm3.53.4,1.07.23,1.06-4.88-1.07-.23L91.4,51.42Zm4.09,1,1,.37,1.32-3.76,1.43.51.34-1-3.9-1.37-.34,1,1.43.51-1.32,3.75ZM99.42,54l1,.49L102.63,50l-1-.49L99.42,54Zm4.71,2.78a2.58,2.58,0,0,0,3.66-.61h0a2.66,2.66,0,0,0-4.37-3h0a2.56,2.56,0,0,0,.71,3.62Zm.59-.82a1.52,1.52,0,0,1-.35-2.15h0a1.49,1.49,0,0,1,2.12-.42,1.52,1.52,0,0,1,.35,2.15h0a1.49,1.49,0,0,1-2.12.42Zm3,3.35.76.78,2.27-2.22-.58,3.95.65.67L114.36,59l-.76-.78-2.2,2.15.57-3.82-.71-.73-3.57,3.49Z"/><path class="cls-2" d="M81.53,73.54v-.71H79.89a1.22,1.22,0,0,1-1.38-1.38V68.51a4.34,4.34,0,0,0-1.29-3.19A4.23,4.23,0,0,0,74.11,64a4.34,4.34,0,0,0-3.19,1.29,4.4,4.4,0,0,0-.75,1,4.68,4.68,0,0,1,1.44-.23,4.23,4.23,0,0,1,3.11,1.29A4.34,4.34,0,0,1,76,70.6v2.93a1.23,1.23,0,0,0,.58,1.18c1.56-.14,3.12-.26,4.7-.32A1.5,1.5,0,0,0,81.53,73.54Z"/><path class="cls-2" d="M64.09,68.51a9.76,9.76,0,0,1,.78-3.88A10.09,10.09,0,0,1,66.53,62a10,10,0,0,0-4.17,4.74,9.76,9.76,0,0,0-.78,3.88v6.8c.83-.22,1.67-.43,2.51-.63Z"/><path class="cls-1" d="M79.89,72.82h2.76A1.22,1.22,0,0,0,84,71.44V68.51a9.76,9.76,0,0,0-.78-3.88,10.12,10.12,0,0,0-2.16-3.19,10.27,10.27,0,0,0-3.15-2.16,9.44,9.44,0,0,0-3.84-.78,9.74,9.74,0,0,0-3.88.78,10.14,10.14,0,0,0-5.35,5.35,9.76,9.76,0,0,0-.78,3.88V106a9.76,9.76,0,0,0,.78,3.88A9.58,9.58,0,0,0,67,113a10.44,10.44,0,0,0,3.19,2.11,9.74,9.74,0,0,0,3.88.78,9.44,9.44,0,0,0,3.84-.78A10.62,10.62,0,0,0,81.1,113a9.62,9.62,0,0,0,2.16-3.15A9.76,9.76,0,0,0,84,106V88.88A9.76,9.76,0,0,0,83.26,85a9.63,9.63,0,0,0-2.16-3.15,10.66,10.66,0,0,0-3.15-2.11A9.44,9.44,0,0,0,74.11,79a9.89,9.89,0,0,0-4.49,1V68.51A4.42,4.42,0,0,1,74.11,64a4.23,4.23,0,0,1,3.11,1.29,4.34,4.34,0,0,1,1.29,3.19v2.93A1.22,1.22,0,0,0,79.89,72.82Zm-9,12.95a4.34,4.34,0,0,1,3.19-1.29,4.42,4.42,0,0,1,4.4,4.4V106a4.42,4.42,0,0,1-4.4,4.4,4.34,4.34,0,0,1-3.19-1.29A4.24,4.24,0,0,1,69.62,106V88.88A4.24,4.24,0,0,1,70.91,85.77Z"/><path class="cls-2" d="M90.76,73.54v-.71H89.13a1.22,1.22,0,0,1-1.38-1.38V68.51a9.74,9.74,0,0,1,.78-3.88A10.09,10.09,0,0,1,90.21,62a10.32,10.32,0,0,0-2,1.57A10.1,10.1,0,0,0,86,66.72a9.74,9.74,0,0,0-.78,3.88v2.93a1.57,1.57,0,0,0,.19.79c1.69,0,3.37.07,5,.17A1.44,1.44,0,0,0,90.76,73.54Z"/><path class="cls-2" d="M100.86,65.4a4.34,4.34,0,0,0-3.19-1.29,4.24,4.24,0,0,0-3.11,1.29,4.5,4.5,0,0,0-.75,1,4.47,4.47,0,0,1,4.55,1.07,4.24,4.24,0,0,1,1.29,3.11v4.92c.84.14,1.67.29,2.51.45V68.51A4.24,4.24,0,0,0,100.86,65.4Z"/><path class="cls-9" d="M99.65,75.54v6.63a4.23,4.23,0,0,1-.54,2.07,4.37,4.37,0,0,0,3-4.17V76l-2-.37Z"/><path class="cls-9" d="M99.12,110.14a4.29,4.29,0,0,0,1.75-1.06,4.24,4.24,0,0,0,1.29-3.11V94.4a4.24,4.24,0,0,0-1.29-3.11A4.34,4.34,0,0,0,97.67,90a1.22,1.22,0,0,1-1.38-1.38V86.43a4.82,4.82,0,0,1-1.13.14A1.22,1.22,0,0,0,93.78,88v2.76a1.22,1.22,0,0,0,1.38,1.38,4.34,4.34,0,0,1,3.19,1.29,4.24,4.24,0,0,1,1.29,3.11v11.57A4.23,4.23,0,0,1,99.12,110.14Z"/><path class="cls-9" d="M101.56,115.12a9.75,9.75,0,0,1-3.88.78,9.44,9.44,0,0,1-3.84-.78A10.59,10.59,0,0,1,90.68,113a9.59,9.59,0,0,1-2.16-3.15,9.74,9.74,0,0,1-.78-3.88v-2.22H86.62a1.22,1.22,0,0,0-1.38,1.38v2.93a9.74,9.74,0,0,0,.78,3.88,9.6,9.6,0,0,0,2.16,3.15,10.59,10.59,0,0,0,3.15,2.11,9.43,9.43,0,0,0,3.84.78,9.74,9.74,0,0,0,3.88-.78,10.45,10.45,0,0,0,3.19-2.11c.21-.21.41-.42.61-.65A10.83,10.83,0,0,1,101.56,115.12Z"/><path class="cls-1" d="M107.68,68.51a9.76,9.76,0,0,0-.78-3.88,10.14,10.14,0,0,0-5.35-5.35,9.75,9.75,0,0,0-3.88-.78,9.44,9.44,0,0,0-3.84.78,10.24,10.24,0,0,0-3.15,2.16,10.09,10.09,0,0,0-2.16,3.19,9.74,9.74,0,0,0-.78,3.88v2.93a1.22,1.22,0,0,0,1.38,1.38h2.76a1.22,1.22,0,0,0,1.38-1.38V68.51a4.42,4.42,0,0,1,4.4-4.4,4.34,4.34,0,0,1,3.19,1.29,4.24,4.24,0,0,1,1.29,3.11V80.07a4.24,4.24,0,0,1-1.29,3.11,4.34,4.34,0,0,1-3.19,1.29,1.22,1.22,0,0,0-1.38,1.38v2.76A1.22,1.22,0,0,0,97.67,90a4.34,4.34,0,0,1,3.19,1.29,4.24,4.24,0,0,1,1.29,3.11V106a4.24,4.24,0,0,1-1.29,3.11,4.34,4.34,0,0,1-3.19,1.29,4.42,4.42,0,0,1-4.4-4.4V103a1.22,1.22,0,0,0-1.38-1.38H89.13A1.22,1.22,0,0,0,87.74,103V106a9.74,9.74,0,0,0,.78,3.88A9.59,9.59,0,0,0,90.68,113a10.59,10.59,0,0,0,3.15,2.11,9.44,9.44,0,0,0,3.84.78,9.75,9.75,0,0,0,3.88-.78,10.46,10.46,0,0,0,3.19-2.11,9.62,9.62,0,0,0,2.16-3.15,9.76,9.76,0,0,0,.78-3.88V94.4a9.63,9.63,0,0,0-.82-3.93,9.92,9.92,0,0,0-2.29-3.24A9.89,9.89,0,0,0,106.86,84a9.63,9.63,0,0,0,.82-3.93V68.51Z"/></svg>