<svg id="Layer_1" data-name="Layer 1" xmlns="http://www.w3.org/2000/svg" xmlns:xlink="http://www.w3.org/1999/xlink">

	<defs><style>.cls-1,.cls-2{fill:none;}.cls-2,.cls-3{opacity:0.5;}.cls-4{fill:url(#New_Pattern_Swatch_8);}</style>
	<pattern id="New_Pattern_Swatch_8" data-name="New Pattern Swatch 8" width="8" height="8" patternUnits="userSpaceOnUse" viewBox="0 0 8 8">

<rect class="cls-1" width="8" height="8"/><polygon class="cls-2" points="0.17 0 0 0.17 0 7.82 7.82 0 0.17 0"/><polygon class="cls-2" points="8 0.18 0.17 8 7.83 8 8 7.83 8 0.18"/><polygon class="cls-3" points="8 0 7.82 0 0 7.82 0 8 0.17 8 8 0.18 8 0"/><polygon class="cls-3" points="8 7.83 7.83 8 8 8 8 7.83"/><polygon class="cls-3" points="0 0 0 0.17 0.17 0 0 0"/></pattern></defs>

<title>Diagonal Stripe Pattern</title>

<!-- <rect class="cls-4" x="-10.51" y="-10.51" width="515.95" height="515.95"/> -->

<rect class="cls-4" x="0" y="0" width="100%" height="100%"/>

</svg>