<svg id="Layer_1" data-name="Layer 1" xmlns="http://www.w3.org/2000/svg" width="40" height="33.16" viewBox="0 0 40 33.16"><defs><style>.cls-1{fill:#fff;}</style></defs><title>twitter icon</title><path class="cls-1" d="M39.7,4.41a16.16,16.16,0,0,1-4.64,1.27,8.09,8.09,0,0,0,3.55-4.47,16.15,16.15,0,0,1-5.13,2A8.09,8.09,0,0,0,19.7,10.54,22.94,22.94,0,0,1,3,2.09a8.1,8.1,0,0,0,2.5,10.79,8.09,8.09,0,0,1-3.66-1V12A8.08,8.08,0,0,0,8.37,19.9a7.89,7.89,0,0,1-2.13.28A8,8,0,0,1,4.72,20a8.08,8.08,0,0,0,7.55,5.61,16.21,16.21,0,0,1-10,3.46A16.23,16.23,0,0,1,.3,29a22.9,22.9,0,0,0,12.39,3.63c14.87,0,23-12.31,23-23,0-.35,0-.7,0-1a16.38,16.38,0,0,0,4-4.18"/></svg>