<?xml version="1.0" standalone="no"?>
<!DOCTYPE svg PUBLIC "-//W3C//DTD SVG 20010904//EN"
 "http://www.w3.org/TR/2001/REC-SVG-20010904/DTD/svg10.dtd">
<svg version="1.0" xmlns="http://www.w3.org/2000/svg"
 width="570.000000pt" height="570.000000pt" viewBox="0 0 570.000000 570.000000"
 preserveAspectRatio="xMidYMid meet">
<metadata>
Created by potrace 1.11, written by Peter Selinger 2001-2013
</metadata>
<g transform="translate(0.000000,570.000000) scale(0.100000,-0.100000)"
fill="#000000" stroke="none">
<path d="M0 2850 l0 -2850 2850 0 2850 0 0 2850 0 2850 -2850 0 -2850 0 0
-2850z m3135 2671 c277 -59 391 -147 566 -437 192 -317 243 -418 295 -589 26
-84 28 -103 28 -270 1 -158 -2 -191 -23 -270 -62 -239 -236 -589 -456 -917
l-51 -77 -267 369 -267 370 63 88 c233 321 420 639 522 887 42 101 44 96 -61
165 -90 59 -223 103 -374 126 -143 20 -483 15 -595 -11 -167 -37 -299 -96
-372 -167 l-32 -31 19 -48 c115 -290 443 -802 1037 -1616 196 -269 1529 -2136
1555 -2179 7 -10 -499 -745 -517 -751 -6 -1 -237 318 -515 709 -278 392 -700
984 -939 1317 -632 882 -736 1040 -887 1341 -193 387 -241 646 -174 928 38
157 104 295 283 592 116 192 186 283 256 334 104 77 265 133 443 156 110 13
357 4 463 -19z m-665 -3245 c140 -200 255 -370 255 -378 0 -8 -277 -405 -615
-881 -469 -660 -618 -863 -627 -854 -6 7 -126 173 -267 370 -157 219 -254 363
-249 370 7 12 1066 1503 1175 1655 33 45 62 82 66 81 4 0 122 -164 262 -363z"/>
</g>
</svg>
